<?xml version="1.0" standalone="no"?>
<!DOCTYPE svg PUBLIC "-//W3C//DTD SVG 20010904//EN"
 "http://www.w3.org/TR/2001/REC-SVG-20010904/DTD/svg10.dtd">
<svg version="1.0" xmlns="http://www.w3.org/2000/svg"
 width="712.000000pt" height="191.000000pt" viewBox="0 0 712.000000 191.000000"
 preserveAspectRatio="xMidYMid meet">

<g transform="translate(0.000000,191.000000) scale(0.100000,-0.100000)"
fill="#000000" stroke="none">
<path d="M2130 1826 c0 -7 -9 -16 -21 -19 -16 -4 -20 -12 -17 -34 2 -22 9 -29
31 -31 26 -3 27 -2 27 47 0 28 -4 51 -10 51 -5 0 -10 -6 -10 -14z m0 -51 c0
-26 -14 -33 -25 -15 -9 14 1 40 15 40 5 0 10 -11 10 -25z"/>
<path d="M5680 1826 c0 -8 -10 -16 -22 -18 -18 -2 -23 -10 -23 -33 0 -25 4
-30 28 -33 26 -3 27 -2 27 47 0 28 -2 51 -5 51 -3 0 -5 -6 -5 -14z m-7 -39 c3
-8 1 -20 -4 -28 -11 -19 -34 3 -26 25 8 20 23 21 30 3z"/>
<path d="M1522 1823 c12 -3 18 -17 21 -46 l4 -42 1 42 c2 30 7 43 20 46 9 3
-1 5 -23 5 -22 0 -32 -2 -23 -5z"/>
<path d="M2008 1817 c-7 -21 6 -70 20 -73 7 -1 8 0 2 3 -12 6 -13 50 -1 55 5
2 3 8 -4 15 -10 9 -14 9 -17 0z"/>
<path d="M5071 1783 c1 -26 4 -38 6 -25 5 27 29 29 37 4 5 -14 17 -19 44 -20
35 0 36 0 12 11 l-25 11 28 4 c36 5 34 37 -3 37 -19 0 -26 -6 -31 -30 -7 -30
-11 -22 -13 25 -1 20 -7 26 -28 28 -27 3 -28 2 -27 -45z m39 22 c0 -8 -7 -15
-15 -15 -8 0 -15 7 -15 15 0 8 7 15 15 15 8 0 15 -7 15 -15z m75 -15 c3 -5 -3
-10 -15 -10 -12 0 -18 5 -15 10 3 6 10 10 15 10 5 0 12 -4 15 -10z"/>
<path d="M1590 1775 c0 -19 5 -35 10 -35 6 0 10 13 10 29 0 16 6 32 13 34 6 3
2 6 -10 6 -20 1 -23 -4 -23 -34z"/>
<path d="M1670 1798 l25 -11 -25 -6 c-34 -9 -32 -35 3 -39 21 -3 27 1 27 17 0
34 -11 51 -34 50 -19 0 -19 -1 4 -11z m15 -38 c-3 -5 -13 -10 -21 -10 -8 0
-12 5 -9 10 3 6 13 10 21 10 8 0 12 -4 9 -10z"/>
<path d="M1721 1770 c1 -34 1 -34 8 -6 9 41 31 46 31 7 0 -17 5 -31 10 -31 11
0 12 15 4 47 -5 16 -13 22 -30 21 -21 -2 -24 -7 -23 -38z"/>
<path d="M1795 1800 c-8 -14 3 -30 21 -30 23 0 16 -20 -8 -21 -19 -1 -20 -2
-4 -6 10 -3 23 0 30 7 8 8 5 16 -13 30 l-25 18 25 5 c22 4 22 4 2 6 -12 0 -25
-3 -28 -9z"/>
<path d="M1861 1770 c1 -34 1 -34 8 -6 9 43 31 45 32 4 l1 -33 7 29 c9 41 31
46 31 7 0 -17 5 -31 10 -31 12 0 13 40 2 56 -4 6 -26 11 -49 10 -43 0 -43 -1
-42 -36z"/>
<path d="M1983 1775 c0 -22 2 -30 4 -17 2 12 2 30 0 40 -3 9 -5 -1 -4 -23z"/>
<path d="M2063 1775 c0 -22 2 -30 4 -17 2 12 2 30 0 40 -3 9 -5 -1 -4 -23z"/>
<path d="M2170 1795 c-17 -21 -2 -50 26 -50 14 0 19 7 19 30 0 34 -24 45 -45
20z m40 -20 c0 -16 -6 -25 -15 -25 -9 0 -15 9 -15 25 0 16 6 25 15 25 9 0 15
-9 15 -25z"/>
<path d="M5219 1794 c-15 -18 -2 -48 22 -50 8 0 9 1 2 3 -27 10 -23 44 7 56
13 4 12 6 -1 6 -9 1 -22 -6 -30 -15z"/>
<path d="M5283 1780 c2 -30 6 -35 30 -38 25 -3 27 -1 27 32 0 20 -4 36 -10 36
-5 0 -10 -14 -10 -31 0 -39 -22 -34 -32 7 -6 27 -6 27 -5 -6z"/>
<path d="M5361 1756 c1 -28 4 -41 6 -29 2 13 10 20 17 17 7 -3 19 2 26 11 18
21 2 50 -29 51 -19 1 -21 -4 -20 -50z m42 31 c3 -8 1 -20 -4 -28 -11 -19 -34
3 -26 25 8 20 23 21 30 3z"/>
<path d="M5440 1795 c-18 -22 -1 -49 31 -52 19 -1 20 -1 4 4 -34 9 -41 23 -11
23 21 0 27 4 24 17 -4 24 -32 28 -48 8z m35 -5 c3 -5 -3 -10 -15 -10 -12 0
-18 5 -15 10 3 6 10 10 15 10 5 0 12 -4 15 -10z"/>
<path d="M5511 1770 c1 -27 3 -29 6 -10 2 14 11 30 20 37 13 10 13 12 -6 10
-17 -1 -21 -7 -20 -37z"/>
<path d="M5580 1798 c25 -11 25 -11 3 -15 -34 -6 -31 -43 2 -41 22 2 26 7 23
33 -2 24 -8 30 -28 32 l-25 3 25 -12z m15 -38 c-3 -5 -10 -10 -16 -10 -5 0 -9
5 -9 10 0 6 7 10 16 10 8 0 12 -4 9 -10z"/>
<path d="M5714 1796 c-10 -26 0 -51 21 -51 16 0 20 7 20 30 0 33 -30 49 -41
21z m36 -21 c0 -16 -6 -25 -15 -25 -9 0 -15 9 -15 25 0 16 6 25 15 25 9 0 15
-9 15 -25z"/>
<path d="M157 1703 c-11 -10 -8 -61 4 -69 6 -3 16 -1 22 5 9 9 8 11 -5 6 -15
-6 -18 -1 -18 25 0 25 3 31 16 26 8 -3 12 -2 9 4 -7 12 -19 13 -28 3z"/>
<path d="M3707 1703 c-11 -10 -8 -61 4 -69 6 -3 16 -1 22 5 9 9 8 11 -5 6 -15
-6 -18 -1 -18 25 0 25 3 31 16 26 8 -3 12 -2 9 4 -7 12 -19 13 -28 3z"/>
<path d="M258 1673 c17 -7 17 -319 0 -326 -10 -4 -10 -6 0 -6 17 -1 17 -307 0
-314 -10 -4 -10 -6 0 -6 18 -1 18 -317 -1 -324 -9 -4 -9 -6 1 -6 17 -1 17
-307 0 -314 -10 -4 -10 -6 0 -6 8 -1 12 -22 13 -68 0 -38 4 -77 9 -88 7 -17 9
-17 9 -2 1 16 17 17 195 17 177 0 195 -2 199 -18 4 -16 5 -16 6 1 1 16 18 17
200 17 182 0 200 -2 204 -18 4 -16 5 -16 6 1 1 16 17 17 195 17 177 0 195 -2
199 -18 4 -16 5 -16 6 1 1 16 18 17 200 17 182 0 200 -2 204 -17 4 -17 5 -17
6 0 1 16 17 17 195 17 177 0 195 -2 199 -17 4 -17 5 -17 6 0 1 16 18 17 200
17 182 0 200 -2 204 -17 4 -17 5 -17 6 0 1 16 17 17 195 17 177 0 195 -2 199
-17 4 -17 5 -17 6 0 1 15 17 17 184 17 l182 0 0 725 0 725 -1620 -1 c-891 0
-1614 -3 -1607 -6z m315 -36 c12 -15 30 -27 40 -27 9 0 17 -4 17 -10 0 -15 19
-12 36 5 14 13 12 15 -17 15 -20 0 -38 8 -50 22 -11 11 -19 23 -19 25 0 1 606
3 1348 2 741 0 1341 -3 1335 -6 -7 -2 -13 -13 -13 -23 0 -13 -11 -19 -40 -24
-22 -3 -40 -12 -40 -19 0 -8 -4 -7 -10 3 -8 12 -12 12 -18 3 -4 -7 -24 -14
-44 -15 -23 -2 -34 -7 -31 -15 6 -15 73 -18 73 -3 0 6 7 10 15 10 8 0 15 -9
15 -20 0 -18 7 -20 59 -20 63 0 78 12 65 53 -6 20 -6 20 10 4 10 -9 24 -17 32
-17 8 0 14 -4 14 -10 0 -5 7 -10 15 -10 23 0 18 -17 -7 -24 -13 -3 -42 -6 -65
-6 -24 0 -43 -4 -43 -10 0 -5 -20 -10 -44 -10 -26 0 -47 -5 -50 -12 -5 -10 -7
-10 -12 0 -7 14 -34 16 -34 2 0 -6 -28 -10 -65 -10 -37 0 -65 4 -65 10 0 6
-16 10 -36 10 -32 0 -64 18 -64 35 0 9 23 31 40 38 9 3 4 6 -12 6 -14 1 -29 7
-31 14 -4 9 -8 8 -16 -3 -7 -10 -11 -11 -11 -2 0 6 -7 12 -15 12 -12 0 -14 -7
-9 -27 3 -16 2 -23 -3 -17 -4 6 -24 14 -43 18 -19 3 -29 3 -22 0 6 -3 12 -15
13 -27 0 -12 3 -16 6 -9 7 17 23 15 23 -4 0 -13 -8 -15 -40 -12 -28 2 -40 0
-40 -9 0 -8 14 -13 40 -13 22 0 40 -4 40 -9 0 -6 12 -12 28 -14 15 -2 3 -2
-25 0 -43 4 -53 2 -53 -11 0 -9 -4 -16 -10 -16 -5 0 -10 5 -10 10 0 6 -7 10
-15 10 -9 0 -15 9 -15 25 0 16 -6 25 -15 25 -8 0 -15 7 -15 15 0 8 4 15 9 15
5 0 11 6 14 13 4 10 -3 12 -24 9 -20 -3 -29 -10 -29 -22 0 -32 11 -50 31 -50
25 0 24 -17 -1 -25 -19 -6 -24 -16 -21 -42 1 -7 -5 -13 -14 -13 -8 0 -15 -4
-15 -10 0 -5 -4 -10 -10 -10 -5 0 -10 11 -10 25 0 16 -6 25 -15 25 -8 0 -15 5
-15 10 0 6 -7 10 -15 10 -8 0 -15 -4 -15 -9 0 -5 -8 -12 -17 -14 -11 -3 -7 -5
10 -6 30 -1 57 -21 57 -42 0 -16 70 -5 82 13 6 10 10 10 16 1 11 -17 244 -21
250 -5 5 15 42 16 42 2 0 -5 14 -10 30 -10 17 0 30 5 30 10 0 6 50 10 130 10
80 0 130 4 130 10 0 6 35 10 85 10 l85 0 0 -245 0 -246 -32 2 c-18 2 -86 2
-150 1 -107 -2 -117 -4 -123 -22 -4 -11 -15 -20 -26 -20 -11 0 -22 -7 -25 -15
-4 -8 -15 -15 -25 -15 -11 0 -22 -7 -25 -15 -4 -8 -12 -15 -20 -15 -8 0 -14
-4 -14 -9 0 -5 -20 -12 -45 -15 -25 -4 -45 -11 -45 -17 0 -5 -7 -9 -15 -9 -8
0 -15 -4 -15 -10 0 -6 -30 -10 -70 -10 -40 0 -70 4 -70 10 0 6 -18 10 -40 10
-22 0 -40 4 -40 10 0 5 -27 12 -60 16 -33 4 -60 11 -60 15 0 5 -11 9 -25 9
-14 0 -25 5 -25 10 0 6 -11 10 -25 10 -14 0 -28 7 -31 15 -3 8 -21 17 -40 21
-19 3 -36 14 -39 24 -3 10 -17 21 -30 24 -14 4 -25 11 -25 16 0 6 -5 10 -10
10 -10 0 -21 7 -53 36 -7 6 -24 15 -37 19 -14 4 -32 16 -41 26 -8 10 -27 21
-42 24 -15 4 -27 11 -27 16 0 5 -5 9 -11 9 -6 0 -17 7 -25 15 -11 11 -26 13
-55 9 -34 -6 -38 -4 -33 10 4 12 0 16 -15 16 -12 0 -21 -4 -21 -10 0 -5 -16
-10 -35 -10 -19 0 -35 5 -35 10 0 6 -7 10 -15 10 -8 0 -15 -4 -15 -10 0 -5
-16 -12 -35 -16 -20 -3 -37 -13 -40 -24 -3 -10 -17 -21 -30 -24 -14 -4 -25
-11 -25 -16 0 -6 -7 -10 -15 -10 -8 0 -15 -4 -15 -10 0 -5 -11 -12 -25 -16
-14 -3 -25 -10 -25 -15 0 -4 -16 -11 -35 -15 -19 -3 -35 -10 -35 -15 0 -5 -7
-9 -15 -9 -8 0 -15 -4 -15 -10 0 -5 -11 -12 -25 -16 -14 -3 -25 -10 -25 -15 0
-5 -7 -9 -15 -9 -8 0 -15 -4 -15 -10 0 -5 -6 -10 -14 -10 -8 0 -22 -7 -31 -16
-9 -9 -36 -19 -61 -22 -24 -2 -44 -9 -44 -13 0 -5 -13 -9 -30 -9 -16 0 -30 -4
-30 -9 0 -5 -25 -13 -55 -16 -30 -4 -55 -11 -55 -16 0 -5 -11 -9 -24 -9 -13 0
-27 -6 -30 -12 -5 -10 -7 -10 -12 0 -3 7 -25 12 -54 12 -30 0 -50 -5 -52 -12
-3 -9 -36 -14 -104 -17 -54 -1 -101 -7 -104 -12 -3 -5 -69 -11 -145 -14 -77
-3 -141 -10 -143 -15 -2 -6 -33 -10 -68 -10 -36 0 -64 -4 -64 -10 0 -5 -16
-10 -35 -10 l-35 0 0 195 c0 220 -9 200 87 189 39 -5 54 -12 58 -25 5 -15 16
-19 56 -19 27 0 49 5 49 10 0 6 14 10 30 10 17 0 30 4 30 9 0 6 20 13 45 17
25 3 45 10 45 15 0 5 7 9 15 9 23 0 18 17 -7 24 -13 3 -69 6 -125 6 -57 0
-103 4 -103 9 0 5 -35 11 -77 13 -62 4 -81 2 -90 -10 -11 -13 -13 8 -13 112 0
119 1 128 20 133 26 7 26 23 -1 23 -16 0 -20 5 -17 28 3 24 7 27 47 30 51 4
83 27 60 44 -9 6 16 8 77 4 l91 -6 -5 25 c-2 14 -12 25 -21 26 -46 2 -65 7
-69 17 -6 18 -32 14 -32 -4 0 -21 -54 -15 -56 6 -1 8 -2 21 -3 28 -1 16 -48
16 -53 0 -3 -9 -9 -8 -21 4 -36 36 -22 40 118 36 131 -4 135 -5 158 -31z
m2815 26 c-30 -3 -38 -9 -38 -24 0 -14 -7 -19 -30 -19 -23 0 -30 5 -30 19 0
23 18 29 85 28 40 0 43 -1 13 -4z m69 1 c-3 -3 -12 -4 -19 -1 -8 3 -5 6 6 6
11 1 17 -2 13 -5z m-7 -90 c0 -10 -28 -34 -39 -34 -14 0 -14 8 2 25 12 14 37
20 37 9z m-1590 -559 c0 -16 -6 -25 -15 -25 -16 0 -19 9 -9 34 9 25 24 19 24
-9z m54 10 c4 -11 -2 -15 -20 -15 -21 0 -23 2 -12 15 17 18 24 19 32 0z m-46
-121 c6 -11 24 -16 55 -16 32 -1 47 -5 47 -15 0 -7 11 -13 25 -13 14 0 25 -4
25 -10 0 -5 22 -10 50 -10 44 0 50 3 56 25 5 21 10 23 37 18 18 -3 34 -10 35
-15 2 -4 10 -8 18 -8 8 0 14 -4 14 -9 0 -4 27 -11 60 -15 51 -6 60 -10 60 -26
0 -11 -4 -20 -10 -20 -5 0 -10 5 -10 10 0 6 -18 10 -40 10 -35 0 -40 -3 -40
-24 0 -30 20 -36 128 -36 45 0 82 -3 82 -6 0 -3 -6 -12 -14 -19 -20 -21 -314
-25 -327 -5 -7 11 -11 12 -17 3 -4 -6 -31 -15 -60 -19 -28 -3 -52 -10 -52 -15
0 -5 -16 -9 -35 -9 -20 0 -35 5 -35 12 0 6 -8 1 -19 -10 -19 -23 -41 -29 -41
-12 0 6 -15 10 -34 10 -19 0 -36 5 -38 11 -2 6 -54 12 -133 15 -72 3 -131 9
-133 14 -5 13 -32 13 -32 0 0 -6 -37 -10 -90 -10 -49 0 -90 3 -90 8 0 4 5 14
11 22 8 11 12 12 16 3 7 -18 23 -16 23 2 0 8 7 15 15 15 8 0 15 4 15 9 0 5 30
13 68 17 46 5 72 13 83 25 19 22 74 26 83 7 3 -7 3 1 1 17 -3 17 -2 24 1 18 7
-15 54 -18 54 -4 0 5 -6 11 -12 14 -7 2 -9 8 -5 13 4 5 13 2 18 -6 8 -11 12
-12 16 -2 2 6 17 12 33 12 16 0 35 7 44 15 8 8 19 15 25 15 15 0 14 -17 -1
-23 -7 -3 4 -6 25 -6 21 -1 37 -6 37 -13 0 -6 3 -8 7 -5 3 4 -3 16 -15 27 -26
24 -27 30 -7 30 7 0 18 -7 23 -16z m1389 -73 c-7 -2 -19 -12 -28 -23 -14 -15
-69 -27 -69 -14 0 21 18 37 46 42 19 3 34 10 34 16 0 5 6 3 14 -4 10 -9 11
-14 3 -17z m-637 -31 c0 -5 -4 -10 -10 -10 -5 0 -10 5 -10 10 0 6 5 10 10 10
6 0 10 -4 10 -10z m-1267 -17 c-7 -2 -19 -2 -25 0 -7 3 -2 5 12 5 14 0 19 -2
13 -5z m-43 -19 c0 -11 -5 -14 -16 -10 -13 5 -15 1 -11 -21 4 -16 4 -22 1 -15
-7 14 -44 16 -44 2 0 -5 -25 -10 -55 -10 -47 0 -55 3 -55 19 0 21 19 31 56 31
13 0 24 5 24 10 0 6 23 10 50 10 39 0 50 -3 50 -16z m1490 -24 c0 -5 -11 -10
-25 -10 -26 0 -34 -15 -12 -23 6 -3 8 -6 2 -6 -5 0 -16 3 -24 8 -12 8 -12 11
0 25 16 17 59 22 59 6z m-80 -20 c0 -5 -11 -10 -25 -10 -14 0 -25 5 -25 10 0
6 11 10 25 10 14 0 25 -4 25 -10z m637 -66 c15 -4 22 -13 20 -28 -3 -30 47
-30 51 0 2 12 12 24 23 27 19 5 19 0 17 -126 -3 -129 -4 -132 -26 -135 -17 -3
-21 -8 -17 -23 4 -13 2 -19 -9 -19 -11 0 -16 9 -16 31 0 30 19 59 39 59 6 0
11 7 11 15 0 8 -4 15 -10 15 -5 0 -10 -4 -10 -9 0 -13 -49 -23 -81 -16 -16 4
-29 12 -29 20 0 7 -12 12 -27 12 -16 0 -22 -2 -15 -4 29 -11 8 -23 -40 -24
-29 -1 -45 -3 -35 -6 10 -3 17 -14 17 -30 0 -18 4 -24 15 -19 19 7 19 1 -2
-19 -14 -14 -14 -18 -2 -27 10 -6 7 -7 -11 -2 -21 6 -19 2 14 -30 22 -20 36
-40 31 -44 -4 -4 -10 -1 -12 6 -3 6 -11 12 -19 12 -8 0 -14 5 -14 10 0 6 -23
10 -51 10 -47 0 -49 1 -34 17 14 14 18 14 26 2 6 -10 9 -7 9 14 0 22 4 27 25
27 30 0 31 4 5 30 -14 14 -33 20 -65 20 -25 0 -45 -4 -45 -9 0 -5 -10 -11 -22
-14 -22 -6 -58 20 -58 43 0 5 -7 10 -16 10 -34 0 -5 25 32 28 28 2 35 0 24 -7
-19 -13 -13 -17 32 -25 27 -5 40 -2 53 10 14 15 18 15 26 3 6 -10 9 -11 9 -1
0 7 -7 15 -15 18 -17 7 -21 54 -5 54 6 0 10 12 10 26 0 21 -4 25 -22 22 -15
-2 -24 -11 -26 -25 -4 -30 -42 -32 -42 -3 0 11 -7 20 -15 20 -13 0 -14 2 -3
14 7 8 15 10 16 5 5 -12 42 -11 42 1 0 6 8 10 18 11 10 0 12 3 5 6 -25 10 -12
23 23 23 19 0 42 7 50 15 16 15 107 21 151 9z m-797 -14 c0 -5 -11 -10 -25
-10 -14 0 -25 5 -25 10 0 6 11 10 25 10 14 0 25 -4 25 -10z m130 0 c0 -5 -4
-10 -10 -10 -5 0 -10 5 -10 10 0 6 5 10 10 10 6 0 10 -4 10 -10z m407 -5 c8
-9 13 -19 10 -22 -6 -5 -37 21 -37 31 0 10 11 6 27 -9z m-2767 -15 c0 -5 -11
-10 -25 -10 -14 0 -25 5 -25 10 0 6 11 10 25 10 14 0 25 -4 25 -10z m1870 0
c0 -5 -7 -10 -15 -10 -8 0 -15 5 -15 10 0 6 7 10 15 10 8 0 15 -4 15 -10z m80
0 c0 -5 -11 -10 -25 -10 -14 0 -25 5 -25 10 0 6 11 10 25 10 14 0 25 -4 25
-10z m600 0 c0 -5 -4 -10 -10 -10 -5 0 -10 5 -10 10 0 6 5 10 10 10 6 0 10 -4
10 -10z m180 0 c0 -5 -7 -10 -15 -10 -8 0 -15 5 -15 10 0 6 7 10 15 10 8 0 15
-4 15 -10z m-89 -20 c56 0 59 -1 59 -25 0 -18 -5 -25 -20 -25 -11 0 -20 -4
-20 -10 0 -5 -11 -10 -25 -10 -14 0 -25 5 -25 11 0 6 -7 4 -15 -5 -16 -15 -45
-12 -45 5 0 5 -11 9 -25 9 -27 0 -32 14 -12 34 17 17 39 25 55 20 8 -2 40 -4
73 -4z m-1791 -10 c0 -5 11 -10 25 -10 14 0 25 5 25 10 0 6 50 10 130 10 80 0
130 -4 130 -10 0 -5 -4 -10 -10 -10 -5 0 -10 -5 -10 -11 0 -7 -11 -22 -25 -35
-14 -13 -25 -30 -25 -39 0 -9 -9 -15 -25 -15 -14 0 -25 5 -25 11 0 6 -7 4 -15
-5 -8 -8 -15 -20 -15 -26 0 -17 -26 -40 -44 -40 -11 0 -16 9 -16 30 0 28 -3
30 -34 30 -19 0 -41 -7 -50 -15 -8 -8 -22 -15 -30 -15 -9 0 -16 -5 -16 -11 0
-17 -27 -39 -49 -39 -12 0 -21 5 -21 10 0 6 -7 10 -15 10 -8 0 -15 7 -15 15 0
8 -4 15 -10 15 -5 0 -10 6 -10 13 0 15 -33 57 -45 57 -4 0 -16 -10 -27 -22
-16 -19 -21 -20 -28 -8 -6 8 -10 10 -10 4 0 -7 -6 -14 -13 -17 -10 -4 -13 2
-10 21 2 15 0 21 -3 15 -9 -21 -42 -15 -50 9 -11 37 -54 67 -54 38 0 -5 -11
-10 -25 -10 -14 0 -25 -4 -25 -10 0 -5 -7 -10 -16 -10 -13 0 -15 -6 -9 -27 3
-16 11 -29 16 -31 26 -10 3 -22 -41 -22 -33 0 -50 4 -50 13 0 9 -3 8 -9 -2
-14 -21 -108 -19 -124 3 -10 14 -21 17 -45 11 -38 -8 -43 -35 -7 -35 14 0 25
-4 25 -10 0 -5 -7 -10 -15 -10 -11 0 -14 -7 -9 -25 5 -19 2 -25 -10 -25 -10 0
-16 9 -16 25 0 20 -5 25 -25 25 -14 0 -25 -4 -25 -10 0 -5 -7 -10 -15 -10 -8
0 -15 3 -15 6 0 10 28 34 39 34 6 0 11 7 11 15 0 8 7 15 15 15 8 0 15 7 15 15
0 8 -7 15 -15 15 -8 0 -15 -4 -15 -10 0 -5 -7 -10 -15 -10 -8 0 -15 5 -15 10
0 6 -9 10 -20 10 -22 0 -28 26 -8 32 14 5 -6 30 -32 41 -8 3 180 6 418 6 281
1 432 4 432 11 0 6 5 10 10 10 6 0 10 -4 10 -10z m1070 0 c0 -5 -4 -10 -10
-10 -5 0 -10 5 -10 10 0 6 5 10 10 10 6 0 10 -4 10 -10z m520 0 c0 -5 11 -10
25 -10 16 0 25 -6 25 -15 0 -8 -4 -15 -10 -15 -5 0 -10 -7 -10 -15 0 -8 -4
-15 -10 -15 -5 0 -10 7 -10 15 0 8 5 15 10 15 6 0 10 5 10 10 0 6 -11 10 -25
10 -16 0 -25 6 -25 15 0 8 5 15 10 15 6 0 10 -4 10 -10z m-780 -30 c0 -5 -4
-10 -10 -10 -5 0 -10 5 -10 10 0 6 5 10 10 10 6 0 10 -4 10 -10z m30 0 c0 -5
-4 -10 -10 -10 -5 0 -10 5 -10 10 0 6 5 10 10 10 6 0 10 -4 10 -10z m671 -2
c0 -10 2 -10 6 0 6 14 33 16 33 2 0 -5 9 -10 20 -10 11 0 20 -4 20 -10 0 -5
-6 -10 -12 -10 -9 0 -10 -2 -2 -8 7 -4 13 -16 15 -27 3 -13 14 -21 32 -23 28
-3 39 -22 12 -22 -8 0 -15 -7 -15 -15 0 -8 7 -15 15 -15 8 0 15 -4 15 -10 0
-15 47 -12 54 3 3 9 8 8 15 -4 7 -10 26 -16 56 -17 52 0 67 -8 45 -23 -11 -8
-12 -12 -2 -16 14 -5 17 -33 3 -33 -5 0 -11 -12 -13 -27 -2 -23 -8 -28 -33
-29 -29 -2 -29 -2 -2 3 31 5 37 23 7 23 -16 0 -20 7 -20 30 0 21 -5 30 -16 30
-9 0 -26 10 -37 23 -13 15 -21 18 -24 10 -6 -16 -43 -17 -43 -2 0 14 -26 39
-40 39 -8 0 -10 9 -6 23 5 23 -21 57 -45 57 -6 0 -9 7 -5 15 4 10 -1 15 -14
15 -24 0 -26 -23 -4 -44 14 -14 12 -15 -18 -9 -38 7 -48 14 -30 20 17 6 15 23
-3 23 -16 0 -19 9 -9 34 7 19 44 22 45 4z m-1141 -18 c0 -5 -4 -10 -10 -10 -5
0 -10 5 -10 10 0 6 5 10 10 10 6 0 10 -4 10 -10z m50 0 c0 -5 11 -10 25 -10
16 0 25 -6 25 -15 0 -8 7 -15 15 -15 8 0 15 -4 15 -10 0 -5 -12 -10 -26 -10
-26 0 -54 20 -54 39 0 6 -4 11 -10 11 -5 0 -10 5 -10 10 0 6 5 10 10 10 6 0
10 -4 10 -10z m550 0 c0 -5 8 -10 17 -10 9 0 14 -2 12 -5 -8 -7 -79 7 -79 16
0 5 11 9 25 9 14 0 25 -4 25 -10z m433 -17 c-7 -2 -21 -2 -30 0 -10 3 -4 5 12
5 17 0 24 -2 18 -5z m-1823 -13 c0 -5 -4 -10 -10 -10 -5 0 -10 5 -10 10 0 6 5
10 10 10 6 0 10 -4 10 -10z m40 0 c0 -5 -7 -10 -15 -10 -8 0 -15 5 -15 10 0 6
7 10 15 10 8 0 15 -4 15 -10z m777 -22 c-3 -7 -5 -2 -5 12 0 14 2 19 5 13 2
-7 2 -19 0 -25z m329 12 c19 0 34 5 34 10 0 6 11 10 25 10 14 0 25 -4 25 -10
0 -5 -11 -10 -25 -10 -26 0 -35 -25 -12 -33 6 -2 8 -8 4 -13 -4 -5 -11 -3 -15
3 -4 7 -29 13 -56 15 -28 2 -51 8 -54 16 -2 6 3 12 12 12 9 0 16 6 17 13 0 10
2 10 6 0 2 -7 20 -13 39 -13z m170 0 c15 0 24 -6 24 -15 0 -8 5 -15 10 -15 6
0 10 7 10 15 0 9 9 15 25 15 14 0 25 -4 25 -9 0 -5 10 -12 23 -14 12 -3 3 -3
-20 -2 -32 2 -43 -1 -43 -12 0 -19 25 -43 45 -43 9 0 23 -7 31 -15 8 -8 21
-12 29 -9 9 4 15 0 15 -10 0 -19 26 -22 33 -3 2 6 8 9 12 5 9 -8 -18 -38 -34
-38 -6 0 -11 5 -11 10 0 6 -11 10 -25 10 -14 0 -25 5 -25 10 0 6 -10 10 -21
10 -26 0 -59 -35 -59 -62 0 -28 -25 -16 -26 13 -4 85 -1 79 -44 79 -39 0 -80
26 -80 50 0 18 18 10 23 -11 4 -15 12 -20 28 -17 32 4 35 24 4 32 -30 8 -34
26 -5 26 11 0 20 6 21 13 0 10 2 10 6 0 2 -7 16 -13 29 -13z m-1777 -42 c1 -5
-3 -8 -9 -8 -5 0 -10 12 -9 28 0 24 1 25 9 7 5 -11 9 -23 9 -27z m1251 32 c0
-5 -4 -10 -10 -10 -5 0 -10 5 -10 10 0 6 5 10 10 10 6 0 10 -4 10 -10z m260 0
c0 -5 -4 -10 -10 -10 -5 0 -10 5 -10 10 0 6 5 10 10 10 6 0 10 -4 10 -10z
m1070 0 c0 -5 -7 -10 -15 -10 -8 0 -15 5 -15 10 0 6 7 10 15 10 8 0 15 -4 15
-10z m-2033 -57 c-3 -10 -5 -2 -5 17 0 19 2 27 5 18 2 -10 2 -26 0 -35z m1582
28 c4 -4 13 -11 21 -14 8 -3 -4 -6 -27 -6 -32 -1 -43 3 -43 14 0 8 -4 15 -9
15 -5 0 -11 -7 -15 -15 -3 -8 -11 -15 -18 -15 -9 0 -9 3 2 10 13 9 13 11 0 21
-11 8 -2 9 34 5 28 -3 52 -10 55 -15z m61 4 c0 -8 -4 -15 -10 -15 -5 0 -10 4
-10 9 0 5 -8 12 -17 14 -11 3 -7 5 10 6 18 1 27 -4 27 -14z m414 0 c-4 -8 -15
-15 -25 -15 -27 0 -24 18 4 23 12 2 23 5 24 6 1 0 0 -6 -3 -14z m-2089 -24
c-6 -5 -25 10 -25 20 0 5 6 4 14 -3 8 -7 12 -15 11 -17z m835 19 c0 -5 -6 -10
-13 -10 -9 0 -13 -10 -12 -27 1 -24 -2 -28 -27 -28 -16 0 -28 5 -28 13 0 6 -9
12 -20 12 -11 0 -20 5 -20 10 0 6 11 10 25 10 14 0 25 -4 25 -10 0 -5 9 -10
20 -10 11 0 20 5 20 10 0 6 -4 10 -10 10 -5 0 -10 7 -10 15 0 9 9 15 25 15 14
0 25 -4 25 -10z m80 0 c0 -5 -11 -10 -25 -10 -14 0 -25 5 -25 10 0 6 11 10 25
10 14 0 25 -4 25 -10z m100 1 c0 -5 -11 -11 -24 -13 -17 -4 -23 -1 -19 9 6 14
43 18 43 4z m860 -1 c0 -5 -13 -10 -29 -10 -16 0 -36 -3 -45 -6 -11 -4 -16 -1
-16 10 0 12 10 16 45 16 25 0 45 -4 45 -10z m-390 -19 c0 -5 3 -16 6 -25 5
-12 0 -16 -20 -16 -40 0 -34 45 7 49 4 1 7 -3 7 -8z m450 -6 c0 -8 -4 -15 -9
-15 -5 0 -11 7 -15 15 -3 9 0 15 9 15 8 0 15 -7 15 -15z m-110 -5 c0 -5 -4
-10 -10 -10 -5 0 -10 5 -10 10 0 6 5 10 10 10 6 0 10 -4 10 -10z m-850 -20 c0
-5 -7 -10 -15 -10 -8 0 -15 5 -15 10 0 6 7 10 15 10 8 0 15 -4 15 -10z m40 0
c0 -5 -4 -10 -10 -10 -5 0 -10 5 -10 10 0 6 5 10 10 10 6 0 10 -4 10 -10z
m-1030 -31 c0 -5 -6 -9 -14 -9 -8 0 -16 -6 -19 -12 -2 -7 -4 -1 -3 13 1 19 5
25 19 21 9 -2 17 -8 17 -13z m-430 1 c0 -5 -4 -10 -10 -10 -5 0 -10 5 -10 10
0 6 5 10 10 10 6 0 10 -4 10 -10z m30 -10 c0 -11 -4 -20 -10 -20 -5 0 -10 9
-10 20 0 11 5 20 10 20 6 0 10 -9 10 -20z m880 10 c0 -5 -11 -10 -25 -10 -14
0 -25 5 -25 10 0 6 11 10 25 10 14 0 25 -4 25 -10z m187 -2 c8 19 33 14 33 -7
0 -10 7 -21 15 -25 28 -10 17 -36 -15 -36 -23 0 -30 -4 -30 -20 0 -11 -6 -20
-13 -20 -7 0 -19 9 -27 20 -19 26 -30 25 -30 -1 0 -18 -2 -19 -15 -5 -8 8 -15
17 -15 20 0 14 36 46 52 46 12 0 18 8 18 23 0 18 2 19 11 7 8 -11 12 -12 16
-2z m393 6 c0 -3 -7 -12 -15 -20 -16 -17 -18 -14 -9 10 6 15 24 23 24 10z
m140 -51 c0 -7 3 -14 8 -14 4 -1 23 -3 42 -5 19 -2 37 -9 38 -14 2 -6 10 -10
18 -10 8 0 14 -4 14 -10 0 -5 7 -10 15 -10 8 0 15 -7 15 -15 0 -8 -7 -15 -15
-15 -8 0 -15 7 -15 15 0 8 -7 15 -15 15 -9 0 -12 -6 -9 -15 4 -9 0 -15 -10
-15 -9 0 -16 5 -16 10 0 6 -11 10 -24 10 -38 0 -86 12 -86 21 0 5 7 9 15 9 8
0 15 5 15 10 0 6 -12 10 -26 10 -22 0 -24 2 -11 14 9 9 12 26 9 43 l-5 28 22
-24 c11 -13 21 -30 21 -38z m333 45 c4 -10 8 -9 16 2 9 12 11 11 11 -7 0 -13
5 -23 10 -23 6 0 10 -7 10 -15 0 -8 7 -15 15 -15 8 0 15 7 15 15 0 8 7 15 15
15 9 0 12 -6 9 -17 -5 -14 -4 -15 4 -5 6 9 35 15 83 16 84 2 99 -1 99 -20 0
-8 5 -14 10 -14 6 0 10 -9 10 -20 0 -23 5 -22 -140 -25 -72 -2 -105 -6 -108
-15 -3 -9 -7 -9 -14 1 -7 11 -11 11 -15 2 -2 -7 -11 -13 -18 -13 -7 0 -16 6
-19 13 -5 10 -7 10 -12 0 -3 -7 -23 -13 -45 -13 -24 0 -39 5 -39 13 0 8 -3 8
-9 -2 -8 -12 -12 -12 -26 2 -15 16 -15 17 9 17 19 0 26 5 26 20 0 11 7 20 15
20 8 0 12 6 9 14 -3 8 4 16 20 20 13 3 28 15 31 26 7 23 21 26 28 8z m-1183
-19 c0 -18 -31 -44 -38 -32 -4 6 -21 13 -37 16 -24 3 -22 4 13 6 23 0 42 6 42
11 0 6 5 10 10 10 6 0 10 -5 10 -11z m-722 -51 c1 -24 6 -44 11 -46 26 -9 7
-22 -30 -22 -28 0 -39 4 -36 13 2 6 14 11 26 10 13 -2 21 3 21 12 0 8 -4 15
-10 15 -5 0 -10 7 -10 15 0 8 -4 15 -10 15 -20 0 -10 19 13 23 12 2 23 5 23 6
1 0 2 -18 2 -41z m52 28 c0 -8 -6 -16 -13 -19 -8 -3 -13 3 -13 14 0 11 6 19
13 19 7 0 13 -6 13 -14z m143 7 c-7 -2 -19 -2 -25 0 -7 3 -2 5 12 5 14 0 19
-2 13 -5z m37 -8 c0 -8 -4 -15 -10 -15 -5 0 -10 7 -10 15 0 8 5 15 10 15 6 0
10 -7 10 -15z m50 -6 c0 -14 -17 -10 -23 5 -4 10 -1 13 9 9 7 -3 14 -9 14 -14z
m131 -1 c0 -16 2 -18 6 -8 11 29 43 40 43 15 0 -8 7 -15 15 -15 8 0 15 5 15
11 0 6 7 4 15 -5 8 -8 15 -24 15 -35 0 -12 4 -21 9 -21 5 0 16 -3 25 -6 20 -8
21 13 1 32 -8 9 -15 23 -15 32 0 15 2 15 11 2 8 -11 12 -12 16 -2 6 14 33 17
33 2 0 -5 -8 -14 -17 -20 -13 -8 -14 -13 -5 -16 6 -3 12 -17 12 -30 0 -22 -4
-24 -50 -24 -44 0 -50 3 -50 20 0 12 -5 27 -12 34 -10 10 -17 8 -36 -11 -27
-28 -26 -27 -48 -6 -13 13 -19 14 -22 5 -7 -21 -42 -14 -42 8 0 13 7 20 20 20
13 0 17 5 14 14 -5 12 7 20 39 25 4 0 7 -9 8 -21z m816 16 c-3 -3 -12 -4 -19
-1 -8 3 -5 6 6 6 11 1 17 -2 13 -5z m1243 -9 c0 -8 -4 -15 -9 -15 -22 0 -41
-32 -35 -57 7 -25 6 -25 -15 -7 -25 22 -27 34 -6 34 9 0 15 9 15 24 0 22 10
30 43 35 4 0 7 -6 7 -14z m479 -1 c12 -11 -17 -24 -52 -22 -37 1 -38 2 -9 5
33 4 42 17 20 27 -7 3 -2 3 12 0 14 -4 27 -8 29 -10z m-1157 -6 c6 -17 -1 -38
-13 -38 -5 0 -9 11 -9 25 0 26 14 34 22 13z m-1668 -23 c-7 -16 -24 -21 -24
-6 0 8 7 13 27 20 1 1 0 -6 -3 -14z m546 -2 c0 -2 -7 -12 -16 -20 -13 -14 -17
-14 -25 -2 -16 25 -10 36 16 31 14 -2 25 -6 25 -9z m104 -15 c6 -4 7 -10 3
-15 -10 -9 -27 16 -26 37 1 13 1 13 6 0 3 -8 11 -18 17 -22z m106 11 c0 -5
-11 -9 -25 -9 -26 0 -34 15 -12 23 16 5 37 -3 37 -14z m304 5 c9 -8 16 -11 16
-5 0 21 19 11 22 -11 2 -15 11 -24 26 -26 27 -4 30 -22 3 -22 -10 0 -21 7 -25
15 -3 8 -17 15 -31 15 -18 0 -25 5 -25 19 0 11 -6 22 -12 24 -9 4 -10 6 -1 6
6 1 19 -6 27 -15z m-874 -19 c0 -16 6 -25 15 -25 8 0 15 -4 15 -10 0 -5 -7
-10 -15 -10 -8 0 -15 5 -15 10 0 6 -22 10 -50 10 -27 0 -50 -4 -50 -10 0 -5
-7 -10 -15 -10 -8 0 -15 7 -15 15 0 9 9 15 25 15 14 0 25 5 25 10 0 6 14 10
30 10 17 0 30 5 30 10 0 6 5 10 10 10 6 0 10 -11 10 -25z m2160 15 c0 -5 -4
-10 -10 -10 -5 0 -10 5 -10 10 0 6 5 10 10 10 6 0 10 -4 10 -10z m30 0 c0 -5
-4 -10 -10 -10 -5 0 -10 5 -10 10 0 6 5 10 10 10 6 0 10 -4 10 -10z m-2405
-32 c6 -4 2 -8 -7 -8 -10 0 -18 7 -18 17 0 9 3 12 8 7 4 -5 12 -12 17 -16z
m839 7 c4 -11 -1 -15 -19 -15 -16 0 -25 6 -25 15 0 8 9 15 19 15 10 0 21 -7
25 -15z m499 2 c3 -8 1 -20 -4 -28 -8 -12 -10 -12 -18 0 -10 15 -4 41 9 41 4
0 10 -6 13 -13z m77 3 c0 -5 -4 -10 -10 -10 -5 0 -10 5 -10 10 0 6 5 10 10 10
6 0 10 -4 10 -10z m757 -2 c-3 -10 8 -13 42 -11 25 0 34 -1 19 -4 -16 -2 -28
-9 -28 -14 0 -5 -25 -9 -55 -9 -57 0 -74 15 -30 26 14 3 25 10 25 15 0 5 7 9
16 9 9 0 14 -6 11 -12z m726 -2 c4 -10 1 -13 -9 -9 -8 3 -14 -1 -14 -11 0 -9
-4 -16 -9 -16 -9 0 -21 24 -21 41 0 15 47 10 53 -5z m-2839 -21 c-7 -16 -24
-21 -24 -6 0 8 7 13 27 20 1 1 0 -6 -3 -14z m256 -5 c0 -5 -9 -10 -20 -10 -11
0 -20 5 -20 10 0 6 9 10 20 10 11 0 20 -4 20 -10z m310 0 c0 -5 -4 -10 -10
-10 -5 0 -10 5 -10 10 0 6 5 10 10 10 6 0 10 -4 10 -10z m320 0 c0 -5 -4 -10
-10 -10 -5 0 -10 5 -10 10 0 6 5 10 10 10 6 0 10 -4 10 -10z m60 0 c0 -5 -7
-10 -15 -10 -8 0 -15 5 -15 10 0 6 7 10 15 10 8 0 15 -4 15 -10z m220 0 c0 -5
-4 -10 -10 -10 -5 0 -10 5 -10 10 0 6 5 10 10 10 6 0 10 -4 10 -10z"/>
<path d="M2200 1650 c0 -5 11 -10 25 -10 14 0 25 -4 25 -10 0 -5 18 -10 40
-10 43 0 47 4 26 26 -17 16 -116 20 -116 4z"/>
<path d="M2700 1650 c0 -5 -11 -10 -25 -10 -29 0 -33 -15 -8 -24 11 -4 22 -1
29 8 6 9 16 16 23 16 6 0 11 5 11 10 0 6 -7 10 -15 10 -8 0 -15 -4 -15 -10z"/>
<path d="M1710 1630 c0 -5 5 -10 10 -10 6 0 10 5 10 10 0 6 -4 10 -10 10 -5 0
-10 -4 -10 -10z"/>
<path d="M2150 1624 c0 -17 22 -14 28 4 2 7 -3 12 -12 12 -9 0 -16 -7 -16 -16z"/>
<path d="M3037 1626 c-4 -10 0 -12 14 -9 22 6 26 23 5 23 -8 0 -16 -6 -19 -14z"/>
<path d="M690 1600 c0 -5 7 -10 15 -10 8 0 15 5 15 10 0 6 -7 10 -15 10 -8 0
-15 -4 -15 -10z"/>
<path d="M2960 1599 c0 -6 6 -16 13 -23 10 -11 15 -11 25 0 19 21 14 34 -13
34 -14 0 -25 -5 -25 -11z"/>
<path d="M1810 1576 c0 -9 7 -16 16 -16 17 0 14 22 -4 28 -7 2 -12 -3 -12 -12z"/>
<path d="M2154 1573 c-7 -7 -17 -13 -23 -13 -6 0 -11 -4 -11 -10 0 -15 -177
-13 -184 3 -5 10 -7 10 -12 0 -7 -15 -54 -17 -54 -3 0 6 -7 10 -15 10 -8 0
-15 -4 -15 -10 0 -5 -18 -10 -40 -10 -34 0 -40 3 -40 22 l0 21 -19 -21 c-14
-17 -30 -22 -64 -22 -27 0 -47 5 -50 13 -3 6 -3 -4 0 -23 3 -19 9 -37 13 -40
4 -3 11 -16 15 -30 4 -13 13 -30 21 -37 15 -15 54 -17 54 -3 0 6 -4 10 -10 10
-5 0 -10 7 -10 15 0 8 5 15 10 15 6 0 10 7 10 15 0 12 7 14 28 9 15 -4 29 -11
30 -16 2 -4 21 -8 43 -8 28 0 39 4 39 15 0 8 9 15 20 15 11 0 20 5 20 10 0 6
25 10 55 10 52 0 55 -1 55 -25 0 -14 5 -25 10 -25 6 0 10 11 10 25 0 24 24 36
32 17 2 -5 27 -12 55 -15 39 -4 56 -2 67 8 8 8 19 15 24 15 6 0 12 5 14 11 2
6 33 12 72 14 63 2 85 11 86 38 0 12 -58 8 -63 -5 -4 -10 -8 -9 -16 2 -7 10
-11 11 -11 3 0 -7 -11 -13 -25 -13 -14 0 -25 4 -25 9 0 15 -81 18 -96 4z"/>
<path d="M1550 1550 c0 -5 5 -10 10 -10 6 0 10 5 10 10 0 6 -4 10 -10 10 -5 0
-10 -4 -10 -10z"/>
<path d="M2410 1520 c0 -5 7 -10 15 -10 8 0 15 5 15 10 0 6 -7 10 -15 10 -8 0
-15 -4 -15 -10z"/>
<path d="M2238 1483 c12 -2 22 -9 22 -14 0 -5 11 -9 25 -9 16 0 25 6 25 15 0
11 -11 15 -47 14 -27 -1 -38 -4 -25 -6z"/>
<path d="M2434 1476 c-3 -8 -21 -17 -40 -20 -25 -5 -34 -12 -34 -26 0 -26 17
-26 25 0 5 16 16 20 58 21 29 1 44 3 34 6 -11 3 -16 11 -13 19 3 8 -1 14 -10
14 -8 0 -17 -6 -20 -14z"/>
<path d="M532 1423 c-21 -22 -22 -23 -3 -23 11 0 22 8 24 18 4 16 5 16 6 0 0
-10 8 -18 16 -18 19 0 19 3 -2 27 -18 20 -18 20 -41 -4z"/>
<path d="M660 1440 c0 -5 11 -10 25 -10 14 0 25 5 25 10 0 6 -11 10 -25 10
-14 0 -25 -4 -25 -10z"/>
<path d="M330 1420 c0 -5 9 -10 20 -10 11 0 20 5 20 10 0 6 -9 10 -20 10 -11
0 -20 -4 -20 -10z"/>
<path d="M760 1143 c-32 -4 -49 -17 -50 -35 0 -5 6 -8 14 -8 8 0 22 -8 32 -17
17 -17 17 -16 10 10 -5 20 -3 27 8 27 8 0 17 6 19 13 4 10 6 10 6 0 1 -15 51
-18 51 -4 0 6 17 12 38 14 20 2 8 4 -28 4 -36 0 -81 -2 -100 -4z"/>
<path d="M938 1143 c6 -2 18 -2 25 0 6 3 1 5 -13 5 -14 0 -19 -2 -12 -5z"/>
<path d="M1013 1143 c9 -2 25 -2 35 0 9 3 1 5 -18 5 -19 0 -27 -2 -17 -5z"/>
<path d="M1108 1143 c7 -3 16 -2 19 1 4 3 -2 6 -13 5 -11 0 -14 -3 -6 -6z"/>
<path d="M1168 1143 c7 -3 16 -2 19 1 4 3 -2 6 -13 5 -11 0 -14 -3 -6 -6z"/>
<path d="M1110 1110 c0 -5 5 -10 10 -10 6 0 10 5 10 10 0 6 -4 10 -10 10 -5 0
-10 -4 -10 -10z"/>
<path d="M863 1093 c9 -2 23 -2 30 0 6 3 -1 5 -18 5 -16 0 -22 -2 -12 -5z"/>
<path d="M1205 1083 c11 -10 19 -12 23 -6 4 5 14 13 22 16 8 3 -2 6 -23 6 -36
1 -37 0 -22 -16z"/>
<path d="M1780 850 c0 -5 7 -10 15 -10 8 0 15 5 15 10 0 6 -7 10 -15 10 -8 0
-15 -4 -15 -10z"/>
<path d="M1680 820 c0 -5 5 -10 10 -10 6 0 10 5 10 10 0 6 -4 10 -10 10 -5 0
-10 -4 -10 -10z"/>
<path d="M1840 820 c0 -5 7 -10 15 -10 8 0 15 5 15 10 0 6 -7 10 -15 10 -8 0
-15 -4 -15 -10z"/>
<path d="M1846 774 c-17 -20 -27 -22 -102 -18 -70 3 -84 1 -84 -11 0 -10 11
-15 34 -15 19 0 37 -6 40 -12 5 -10 7 -10 12 0 3 7 26 12 59 12 33 0 55 -5 58
-12 4 -10 6 -10 6 0 1 8 23 12 75 12 50 0 76 -4 79 -12 2 -7 8 -10 12 -6 15
14 -24 38 -63 38 -62 0 -101 11 -104 29 -3 14 -6 13 -22 -5z"/>
<path d="M2158 783 c-47 -7 -31 -23 23 -23 36 0 49 4 47 13 -5 13 -28 17 -70
10z"/>
<path d="M2050 740 c0 -5 5 -10 10 -10 6 0 10 5 10 10 0 6 -4 10 -10 10 -5 0
-10 -4 -10 -10z"/>
<path d="M3293 577 c0 -23 1 -24 14 -11 9 9 27 13 42 11 14 -2 20 -2 14 0 -7
3 -13 9 -13 14 0 14 -28 11 -33 -3 -4 -10 -8 -10 -15 1 -7 10 -9 7 -9 -12z"/>
<path d="M3430 590 c0 -5 5 -10 10 -10 6 0 10 5 10 10 0 6 -4 10 -10 10 -5 0
-10 -4 -10 -10z"/>
<path d="M3220 564 c0 -10 28 -34 39 -34 6 0 11 9 11 20 0 15 -7 20 -25 20
-14 0 -25 -3 -25 -6z"/>
<path d="M3170 510 c0 -5 11 -10 25 -10 14 0 25 5 25 10 0 6 -11 10 -25 10
-14 0 -25 -4 -25 -10z"/>
<path d="M3400 510 c0 -5 5 -10 10 -10 6 0 10 5 10 10 0 6 -4 10 -10 10 -5 0
-10 -4 -10 -10z"/>
<path d="M3441 503 c-12 -13 -12 -16 0 -24 9 -6 15 -4 17 6 6 26 -2 34 -17 18z"/>
<path d="M452 500 c0 -14 2 -19 5 -12 2 6 2 18 0 25 -3 6 -5 1 -5 -13z"/>
<path d="M2650 540 c0 -5 5 -10 10 -10 6 0 10 5 10 10 0 6 -4 10 -10 10 -5 0
-10 -4 -10 -10z"/>
<path d="M2960 330 c0 -5 5 -10 10 -10 6 0 10 5 10 10 0 6 -4 10 -10 10 -5 0
-10 -4 -10 -10z"/>
<path d="M2100 395 c0 -28 14 -32 36 -11 21 22 17 36 -11 36 -20 0 -25 -5 -25
-25z"/>
<path d="M2310 290 c0 -11 5 -20 10 -20 6 0 10 9 10 20 0 11 -4 20 -10 20 -5
0 -10 -9 -10 -20z"/>
<path d="M2260 280 c0 -5 5 -10 10 -10 6 0 10 5 10 10 0 6 -4 10 -10 10 -5 0
-10 -4 -10 -10z"/>
<path d="M2440 280 c0 -5 5 -10 10 -10 6 0 10 5 10 10 0 6 -4 10 -10 10 -5 0
-10 -4 -10 -10z"/>
<path d="M2560 280 c0 -5 7 -10 15 -10 8 0 15 5 15 10 0 6 -7 10 -15 10 -8 0
-15 -4 -15 -10z"/>
<path d="M3798 1673 c17 -7 17 -319 0 -326 -10 -4 -10 -6 0 -6 9 -1 12 -39 12
-155 0 -114 -3 -156 -12 -159 -10 -4 -10 -6 0 -6 18 -1 18 -317 0 -324 -10 -4
-10 -6 0 -6 9 -1 12 -39 12 -155 0 -114 -3 -156 -12 -159 -10 -4 -10 -6 0 -6
8 -1 12 -22 13 -68 0 -38 4 -77 9 -88 7 -17 9 -17 9 -2 1 16 17 17 200 17 182
0 200 -2 204 -18 4 -16 5 -16 6 1 1 16 17 17 195 17 177 0 195 -2 199 -18 4
-16 5 -16 6 1 1 16 18 17 200 17 182 0 200 -2 204 -18 4 -16 5 -16 6 1 1 16
17 17 195 17 177 0 195 -2 199 -17 4 -17 5 -17 6 0 1 16 18 17 200 17 182 0
200 -2 204 -17 4 -17 5 -17 6 0 1 16 17 17 195 17 177 0 195 -2 199 -17 4 -17
5 -17 6 0 1 16 18 17 200 17 182 0 200 -2 204 -18 4 -16 5 -16 6 1 1 15 17 17
181 17 l180 0 0 725 0 725 -1622 -1 c-893 0 -1617 -3 -1610 -6z m302 -30 c0
-13 4 -23 9 -23 5 0 16 -3 25 -6 11 -4 16 -1 16 10 0 9 -4 16 -9 16 -5 0 -11
6 -14 14 -5 13 177 15 1329 15 l1334 1 0 -29 c0 -25 -3 -28 -25 -23 -17 3 -27
-1 -31 -12 -4 -11 -19 -16 -49 -16 -24 0 -50 -3 -59 -6 -28 -11 -17 -24 19
-24 19 0 35 5 35 10 0 18 18 11 25 -10 5 -17 15 -20 66 -20 46 0 59 -3 59 -15
0 -18 -16 -20 -24 -2 -5 10 -7 10 -12 0 -3 -8 -24 -13 -49 -13 -25 0 -45 -5
-48 -12 -4 -10 -8 -9 -16 2 -8 11 -13 12 -19 3 -11 -17 -134 -21 -140 -5 -2 7
-19 12 -38 12 -30 0 -34 -3 -34 -25 0 -22 -2 -24 -14 -13 -8 7 -10 15 -5 16
12 5 11 42 -1 42 -25 0 -2 40 30 53 12 4 11 6 -2 6 -10 1 -18 6 -18 11 0 6 -9
10 -20 10 -11 0 -20 -4 -20 -10 0 -14 -27 -12 -33 3 -3 6 -3 -6 1 -28 l5 -39
-27 27 c-15 15 -35 27 -44 26 -10 0 -12 -3 -4 -6 6 -2 12 -14 13 -26 0 -12 3
-16 6 -9 7 17 23 15 23 -3 0 -8 -4 -15 -10 -15 -5 0 -10 -4 -10 -10 0 -5 11
-10 25 -10 14 0 25 -4 25 -9 0 -5 8 -12 18 -15 9 -3 -10 -3 -43 -1 -33 3 -54
2 -47 -1 14 -7 17 -34 3 -34 -5 0 -16 7 -25 15 -8 8 -19 15 -25 15 -6 0 -11
11 -11 25 0 20 -5 25 -27 26 -16 0 -22 3 -15 6 14 5 17 43 3 43 -9 0 -21 -23
-21 -40 0 -5 11 -21 25 -35 24 -24 25 -25 5 -25 -11 0 -20 -6 -20 -13 0 -8 -9
-25 -21 -38 -17 -19 -22 -21 -29 -9 -6 8 -8 21 -5 28 2 6 -2 12 -10 12 -8 0
-15 -7 -15 -15 0 -8 5 -15 10 -15 6 0 10 -7 10 -16 0 -14 7 -15 37 -11 20 4
40 12 45 19 8 10 11 10 15 1 3 -8 23 -13 49 -13 37 0 44 3 44 20 0 11 5 20 10
20 6 0 10 -9 10 -20 0 -14 7 -20 24 -20 13 0 26 3 29 8 2 4 2 1 0 -7 -2 -10 3
-12 19 -7 13 3 33 6 46 6 18 0 22 5 19 23 -2 12 -2 16 0 10 3 -7 13 -13 24
-13 10 0 19 -4 19 -10 0 -5 20 -10 45 -10 38 0 45 3 45 20 0 11 5 20 10 20 6
0 10 7 10 15 0 20 17 19 37 -1 13 -12 13 -15 2 -14 -25 4 -39 0 -39 -10 0 -6
42 -10 105 -10 63 0 105 4 105 10 0 6 37 10 90 10 l90 0 0 -245 c0 -211 -2
-245 -15 -245 -8 0 -15 -9 -15 -19 0 -10 -6 -21 -13 -24 -10 -4 -12 3 -9 25 4
30 3 31 -24 24 -16 -4 -33 -13 -37 -19 -6 -9 -10 -9 -14 1 -3 8 -33 12 -99 12
-87 0 -94 -1 -94 -20 0 -13 -7 -20 -20 -20 -11 0 -23 -7 -26 -15 -4 -8 -15
-15 -25 -15 -10 0 -19 -7 -19 -15 0 -8 -9 -15 -20 -15 -11 0 -20 -4 -20 -9 0
-5 -20 -12 -45 -15 -25 -4 -45 -11 -45 -17 0 -5 -6 -9 -14 -9 -8 0 -16 -4 -18
-10 -5 -15 -131 -17 -136 -2 -2 7 -21 12 -43 12 -21 0 -39 4 -39 9 0 4 -27 11
-60 15 -33 4 -60 11 -60 16 0 6 -11 10 -25 10 -14 0 -25 5 -25 10 0 6 -11 10
-25 10 -14 0 -28 7 -31 15 -3 8 -21 17 -40 21 -19 3 -36 14 -39 24 -3 10 -17
21 -30 24 -14 4 -25 11 -25 16 0 6 -5 10 -11 10 -6 0 -17 7 -25 15 -19 18 -31
19 -37 3 -2 -7 -2 -3 -1 9 3 17 -2 23 -26 28 -17 4 -30 11 -30 16 0 5 -11 9
-25 9 -16 0 -25 6 -25 15 0 8 -7 15 -15 15 -8 0 -15 5 -15 10 0 6 -6 10 -14
10 -8 0 -17 6 -19 13 -4 9 -8 8 -16 -3 -5 -8 -14 -11 -18 -6 -4 5 -3 10 2 13
24 9 39 23 32 30 -5 4 -12 2 -16 -5 -4 -7 -24 -15 -45 -19 -31 -5 -35 -3 -30
11 4 12 0 16 -15 16 -12 0 -21 -4 -21 -10 0 -15 -90 -13 -91 3 0 9 -2 9 -6 0
-2 -7 -20 -15 -38 -19 -20 -3 -37 -13 -40 -24 -3 -10 -17 -21 -30 -24 -14 -4
-25 -11 -25 -16 0 -6 -7 -10 -15 -10 -8 0 -15 -5 -15 -11 0 -6 -7 -18 -16 -26
-13 -14 -17 -14 -25 -2 -6 9 -9 10 -9 2 0 -7 -16 -15 -35 -19 -19 -3 -35 -10
-35 -15 0 -5 -7 -9 -15 -9 -8 0 -15 -4 -15 -10 0 -5 -11 -12 -25 -16 -14 -3
-25 -10 -25 -15 0 -5 -7 -9 -15 -9 -18 0 -20 -16 -2 -24 6 -3 0 -3 -14 0 -17
4 -32 -1 -43 -12 -10 -9 -37 -19 -62 -22 -24 -2 -44 -9 -44 -13 0 -5 -13 -9
-30 -9 -16 0 -30 -4 -30 -9 0 -5 -25 -13 -55 -16 -30 -4 -55 -11 -55 -16 0 -5
-11 -9 -24 -9 -13 0 -27 -6 -30 -12 -5 -10 -7 -10 -12 0 -3 6 -17 12 -30 12
-13 0 -24 -6 -25 -12 0 -10 -2 -10 -6 0 -2 6 -13 12 -23 12 -10 0 -20 -6 -22
-12 -3 -9 -34 -13 -106 -13 -75 0 -102 -3 -102 -12 0 -7 -10 -13 -22 -14 -13
0 -42 -2 -65 -5 -32 -3 -44 0 -51 13 -9 16 -11 16 -27 0 -11 -12 -33 -17 -71
-17 -30 0 -54 -4 -54 -10 0 -5 -13 -10 -29 -10 -16 0 -32 -6 -35 -12 -5 -10
-7 -10 -12 0 -7 14 -34 16 -34 2 0 -5 -20 -10 -45 -10 l-45 0 0 195 0 195 48
-4 c26 -2 57 -4 69 -5 12 -1 24 -10 28 -21 9 -29 38 -26 31 3 -3 12 -3 16 0
10 3 -7 14 -13 25 -13 10 0 19 -4 19 -10 0 -5 7 -10 15 -10 8 0 15 5 15 10 0
15 47 12 53 -2 3 -7 6 -3 6 9 1 18 9 23 46 29 25 3 45 10 45 15 0 5 7 9 15 9
31 0 14 18 -22 24 -61 10 -220 7 -203 -4 8 -5 11 -12 7 -17 -11 -10 -27 17
-20 34 4 9 -4 13 -26 13 -17 0 -31 -4 -31 -10 0 -14 -27 -13 -32 1 -2 6 -23
12 -46 13 l-42 1 0 112 c0 69 4 113 10 113 6 0 10 7 10 15 0 8 -4 15 -10 15
-18 0 -11 50 8 57 9 4 20 11 24 17 5 7 8 7 8 -1 0 -19 39 -16 58 4 12 12 13
18 4 21 -14 4 -16 32 -2 32 6 0 10 -4 10 -10 0 -14 27 -12 34 3 3 9 8 7 15 -5
8 -12 23 -16 56 -13 34 2 48 -1 54 -14 5 -9 13 -12 18 -8 4 5 0 13 -10 18 -9
6 -17 19 -17 29 0 11 -4 20 -10 20 -5 0 -10 -9 -10 -20 0 -11 -4 -20 -10 -20
-5 0 -10 11 -10 25 0 16 -4 23 -14 19 -7 -3 -20 2 -29 10 -8 8 -28 18 -43 21
-16 3 -22 2 -14 -2 8 -3 21 -12 28 -20 11 -11 8 -13 -22 -13 -28 0 -36 4 -36
18 0 9 -4 23 -9 31 -8 12 -12 12 -25 -2 -24 -24 -65 -4 -66 31 0 10 31 12 140
10 138 -3 140 -3 140 -25z m2828 20 c-30 -3 -38 -9 -38 -24 0 -16 -7 -19 -40
-19 -43 0 -47 4 -27 24 19 20 38 24 92 24 42 -1 44 -2 13 -5z m-58 -66 c0 -7
9 -19 20 -27 11 -8 20 -18 20 -22 0 -3 -9 -10 -20 -13 -11 -4 -20 -15 -20 -26
0 -42 -32 10 -35 56 -2 38 0 45 16 45 11 0 19 -6 19 -13z m47 -9 c-3 -8 -6 -5
-6 6 -1 11 2 17 5 13 3 -3 4 -12 1 -19z m-137 -13 c0 -8 -9 -15 -20 -15 -22 0
-27 15 -7 23 21 9 27 7 27 -8z m210 -16 c0 -23 -16 -25 -24 -3 -10 25 -7 34 9
28 8 -4 15 -15 15 -25z m-3150 -14 c0 -8 -4 -15 -10 -15 -5 0 -10 7 -10 15 0
8 5 15 10 15 6 0 10 -7 10 -15z m180 5 c0 -5 -4 -10 -10 -10 -5 0 -10 5 -10
10 0 6 5 10 10 10 6 0 10 -4 10 -10z m2940 -5 c0 -8 -4 -15 -10 -15 -5 0 -10
-9 -10 -20 0 -12 -7 -20 -16 -20 -11 0 -14 5 -10 16 3 9 6 24 6 35 0 12 7 19
20 19 11 0 20 -7 20 -15z m-3000 -410 c0 -8 -9 -15 -20 -15 -22 0 -27 15 -7
23 21 9 27 7 27 -8z m110 -15 c0 -11 -4 -20 -10 -20 -5 0 -10 9 -10 20 0 11 5
20 10 20 6 0 10 -9 10 -20z m50 -10 c0 -5 -4 -10 -10 -10 -5 0 -10 5 -10 10 0
6 5 10 10 10 6 0 10 -4 10 -10z m1250 -80 c0 -5 -4 -10 -10 -10 -5 0 -10 5
-10 10 0 6 5 10 10 10 6 0 10 -4 10 -10z m30 -15 c0 -16 -6 -25 -15 -25 -16 0
-19 9 -9 34 9 25 24 19 24 -9z m54 10 c4 -11 -2 -15 -20 -15 -21 0 -23 2 -12
15 17 18 24 19 32 0z m106 5 c0 -5 -4 -10 -10 -10 -5 0 -10 5 -10 10 0 6 5 10
10 10 6 0 10 -4 10 -10z m0 -30 c0 -5 -4 -10 -10 -10 -5 0 -10 5 -10 10 0 6 5
10 10 10 6 0 10 -4 10 -10z m180 0 c0 -5 -4 -10 -10 -10 -5 0 -10 5 -10 10 0
6 5 10 10 10 6 0 10 -4 10 -10z m-130 -20 c0 -5 -4 -10 -10 -10 -5 0 -10 5
-10 10 0 6 5 10 10 10 6 0 10 -4 10 -10z m-500 -30 c0 -5 -4 -10 -10 -10 -5 0
-10 5 -10 10 0 6 5 10 10 10 6 0 10 -4 10 -10z m260 0 c0 -5 -4 -10 -10 -10
-5 0 -10 5 -10 10 0 6 5 10 10 10 6 0 10 -4 10 -10z m260 0 c0 -5 -4 -10 -10
-10 -5 0 -10 5 -10 10 0 6 5 10 10 10 6 0 10 -4 10 -10z m190 0 c0 -5 -4 -10
-10 -10 -5 0 -10 5 -10 10 0 6 5 10 10 10 6 0 10 -4 10 -10z m-660 -20 c0 -5
-4 -10 -10 -10 -5 0 -10 5 -10 10 0 6 5 10 10 10 6 0 10 -4 10 -10z m350 0 c0
-5 -7 -10 -15 -10 -8 0 -15 5 -15 10 0 6 7 10 15 10 8 0 15 -4 15 -10z m1250
0 c0 -5 -4 -10 -10 -10 -5 0 -10 5 -10 10 0 6 5 10 10 10 6 0 10 -4 10 -10z
m70 0 c0 -5 -4 -10 -10 -10 -5 0 -10 5 -10 10 0 6 5 10 10 10 6 0 10 -4 10
-10z m-1424 -25 c7 -18 40 -20 47 -2 3 7 6 5 6 -6 1 -13 7 -16 26 -11 19 5 25
2 25 -10 0 -19 26 -22 33 -3 2 7 8 8 13 3 5 -5 4 -11 -3 -13 -23 -8 -14 -23
13 -23 25 0 26 2 21 35 -5 31 -4 33 9 21 8 -8 14 -24 14 -35 0 -23 25 -29 33
-8 4 9 8 8 16 -3 9 -12 11 -11 11 8 0 15 -6 22 -20 22 -14 0 -20 6 -19 23 1
15 3 17 6 5 3 -11 20 -18 54 -23 27 -4 49 -11 49 -16 0 -5 6 -9 14 -9 8 0 16
-5 18 -10 2 -6 29 -11 60 -13 53 -2 58 -4 58 -24 0 -16 -6 -23 -20 -23 -11 0
-20 5 -20 10 0 6 -13 10 -30 10 -25 0 -30 -4 -30 -24 0 -25 21 -36 73 -36 15
0 27 -6 27 -12 0 -10 2 -10 8 -1 6 10 52 17 90 14 17 -1 15 -21 -2 -21 -8 0
-16 -4 -18 -9 -1 -5 -70 -11 -151 -13 -122 -2 -150 0 -158 12 -7 12 -11 12
-17 2 -5 -7 -31 -15 -58 -18 -27 -3 -50 -10 -52 -15 -5 -12 -52 -12 -52 1 0 6
-11 10 -25 10 -26 0 -34 -15 -12 -23 9 -4 8 -8 -3 -16 -21 -15 -30 -14 -30 4
0 18 -36 20 -43 3 -4 -10 -8 -9 -16 2 -10 13 -12 13 -21 0 -8 -12 -10 -10 -8
9 l3 24 -128 2 c-98 1 -131 5 -139 16 -7 11 -11 11 -15 2 -3 -8 -24 -13 -54
-13 -32 0 -49 4 -49 13 0 8 -3 8 -8 1 -10 -15 -40 -24 -57 -18 -17 7 -21 44
-5 44 6 0 10 -4 10 -10 0 -5 5 -10 10 -10 6 0 10 7 10 15 0 8 6 15 14 15 8 0
16 4 18 10 2 5 38 13 81 16 66 6 77 10 77 25 0 13 7 19 24 19 14 0 32 7 40 16
9 8 16 11 16 5 0 -6 11 -11 25 -11 26 0 34 15 13 23 -7 2 -9 8 -5 13 4 5 13 2
18 -6 8 -11 12 -12 16 -2 2 6 17 12 33 12 16 0 35 7 44 15 8 8 19 15 25 15 15
0 14 -17 -1 -23 -7 -3 4 -6 25 -6 21 -1 37 -6 37 -13 0 -6 3 -8 7 -5 3 4 -3
16 -15 27 -26 25 -27 30 -7 30 9 0 18 -7 21 -15z m334 -5 c0 -5 -4 -10 -10
-10 -5 0 -10 5 -10 10 0 6 5 10 10 10 6 0 10 -4 10 -10z m960 0 c0 -5 -4 -10
-10 -10 -5 0 -10 5 -10 10 0 6 5 10 10 10 6 0 10 -4 10 -10z m-1690 -50 c0 -5
-4 -10 -10 -10 -5 0 -10 5 -10 10 0 6 5 10 10 10 6 0 10 -4 10 -10z m990 0 c0
-5 -4 -10 -10 -10 -5 0 -10 5 -10 10 0 6 5 10 10 10 6 0 10 -4 10 -10z m784
-18 c-15 -2 -24 -10 -24 -22 0 -12 -9 -19 -30 -22 -16 -3 -30 -1 -30 3 0 24
16 39 46 45 19 3 34 10 34 16 0 5 6 3 14 -4 12 -11 10 -14 -10 -16z m176 18
c0 -5 -4 -10 -10 -10 -5 0 -10 5 -10 10 0 6 5 10 10 10 6 0 10 -4 10 -10z
m-799 -40 c10 0 19 -4 19 -10 0 -5 -9 -10 -20 -10 -11 0 -20 2 -20 4 0 2 -2
10 -3 18 -2 7 -2 10 0 6 3 -5 13 -8 24 -8z m-1171 -10 c0 -5 -7 -10 -15 -10
-8 0 -15 5 -15 10 0 6 7 10 15 10 8 0 15 -4 15 -10z m1045 -13 c16 -5 15 -5
-4 -4 -14 1 -26 9 -28 17 -3 10 -2 11 4 4 4 -7 17 -14 28 -17z m-1142 -4 c-7
-2 -19 -2 -25 0 -7 3 -2 5 12 5 14 0 19 -2 13 -5z m1031 -8 c-7 -16 -24 -21
-24 -6 0 8 7 13 27 20 1 1 0 -6 -3 -14z m653 9 c-3 -3 -12 -4 -19 -1 -8 3 -5
6 6 6 11 1 17 -2 13 -5z m443 -9 c0 -8 -4 -15 -10 -15 -5 0 -10 7 -10 15 0 8
5 15 10 15 6 0 10 -7 10 -15z m-2380 -5 c0 -5 -4 -10 -10 -10 -5 0 -10 5 -10
10 0 6 5 10 10 10 6 0 10 -4 10 -10z m210 -6 c0 -11 -5 -14 -16 -10 -13 5 -15
1 -11 -21 4 -16 4 -22 1 -15 -7 14 -44 16 -44 2 0 -16 -99 -12 -116 4 -20 21
-18 24 26 31 22 4 40 11 40 16 0 5 27 9 60 9 48 0 60 -3 60 -16z m1410 6 c0
-5 -4 -10 -10 -10 -5 0 -10 5 -10 10 0 6 5 10 10 10 6 0 10 -4 10 -10z m50 0
c0 -5 -4 -10 -10 -10 -5 0 -10 5 -10 10 0 6 5 10 10 10 6 0 10 -4 10 -10z
m-274 -25 c-8 -8 -17 -15 -20 -15 -3 0 -6 7 -6 15 0 9 9 15 21 15 18 0 19 -2
5 -15z m69 -14 c-6 -21 -25 -29 -25 -11 0 6 5 10 10 10 6 0 10 8 10 17 0 9 3
14 6 10 3 -3 3 -15 -1 -26z m-1855 9 c0 -5 -4 -10 -10 -10 -5 0 -10 5 -10 10
0 6 5 10 10 10 6 0 10 -4 10 -10z m2090 5 c0 -7 -34 -45 -40 -45 -3 0 -11 4
-19 9 -12 8 -12 11 0 25 13 14 59 23 59 11z m-80 -24 c0 -12 -21 -19 -37 -13
-22 8 -14 22 12 22 14 0 25 -4 25 -9z m-2244 -59 c-4 -3 -11 0 -16 8 -15 24
-11 33 6 15 9 -9 13 -19 10 -23z m344 28 c0 -5 -4 -10 -10 -10 -5 0 -10 5 -10
10 0 6 5 10 10 10 6 0 10 -4 10 -10z m100 0 c0 -5 -4 -10 -10 -10 -5 0 -10 5
-10 10 0 6 5 10 10 10 6 0 10 -4 10 -10z m557 -6 c14 -13 14 -17 2 -25 -20
-12 -37 -11 -19 2 11 8 12 12 3 16 -13 5 -18 23 -7 23 3 0 13 -7 21 -16z
m1213 6 c0 -5 -4 -10 -10 -10 -5 0 -10 5 -10 10 0 6 5 10 10 10 6 0 10 -4 10
-10z m-1560 -20 c0 -5 -4 -10 -10 -10 -5 0 -10 5 -10 10 0 6 5 10 10 10 6 0
10 -4 10 -10z m1050 0 c0 -5 -7 -10 -15 -10 -8 0 -15 5 -15 10 0 6 7 10 15 10
8 0 15 -4 15 -10z m45 -9 c-3 -6 -11 -11 -16 -11 -5 0 -4 6 3 14 14 16 24 13
13 -3z m1015 9 c0 -5 21 -10 48 -10 70 0 92 -8 89 -34 -3 -34 35 -32 63 4 12
16 27 30 31 30 5 0 9 -59 9 -130 l0 -131 -30 -6 c-24 -4 -29 -10 -25 -24 4
-13 1 -19 -9 -19 -12 0 -16 10 -16 35 0 19 5 35 10 35 6 0 10 7 10 15 0 11 -8
13 -32 8 -18 -3 -34 -10 -36 -15 -6 -13 -19 -9 -25 6 -4 10 -1 13 9 9 9 -3 14
1 14 14 0 17 -7 20 -41 20 -24 0 -35 -3 -27 -8 18 -11 5 -20 -31 -21 -27 -1
-31 -5 -31 -29 0 -15 -6 -29 -12 -32 -7 -2 -10 -8 -6 -12 4 -4 14 0 23 9 16
15 25 20 25 13 0 -8 -36 -44 -50 -50 -8 -4 -3 -5 13 -2 22 4 27 2 27 -14 0
-11 7 -26 15 -35 18 -18 19 -26 2 -26 -7 0 -19 9 -27 20 -11 15 -26 20 -63 20
-43 0 -47 2 -33 15 8 8 19 15 25 15 6 0 11 6 11 14 0 8 6 17 13 19 9 4 8 8 -3
16 -10 7 -11 11 -2 11 6 0 12 5 12 10 0 6 -7 10 -15 10 -8 0 -15 -4 -15 -10 0
-5 -9 -10 -20 -10 -11 0 -20 5 -20 10 0 6 -7 10 -15 10 -8 0 -15 -6 -15 -14 0
-8 -11 -13 -30 -12 -17 1 -30 7 -30 14 0 6 -4 12 -10 12 -5 0 -10 7 -10 15 0
8 -7 15 -16 15 -34 0 -5 25 32 27 21 1 33 0 27 -3 -22 -10 -14 -24 12 -24 14
0 25 5 25 10 0 17 18 11 22 -7 3 -15 5 -15 21 2 16 15 20 16 28 4 6 -10 9 -11
9 -1 0 7 -7 15 -15 18 -17 7 -21 54 -5 54 6 0 10 9 10 20 0 11 -2 20 -4 20 -2
0 -11 3 -19 6 -10 3 -17 -3 -21 -20 -8 -32 -46 -37 -46 -6 0 11 -7 20 -15 20
-8 0 -15 -4 -15 -10 0 -5 -11 -10 -25 -10 -14 0 -25 -4 -25 -9 0 -5 -13 -11
-29 -13 -17 -2 -28 -1 -25 3 6 11 -6 37 -20 42 -8 3 -11 -4 -8 -22 3 -23 0
-26 -25 -27 -15 -1 -22 1 -15 3 21 8 13 23 -13 23 -14 0 -25 5 -25 11 0 14 25
39 39 39 6 0 11 7 11 15 0 8 5 15 10 15 6 0 10 -7 10 -15 0 -8 9 -15 20 -15
11 0 20 7 20 15 0 8 5 15 10 15 6 0 10 -7 10 -15 0 -10 10 -15 34 -15 24 0 35
-5 38 -17 3 -15 4 -15 21 1 9 10 17 13 17 7 0 -6 9 -11 20 -11 11 0 20 7 20
15 0 8 6 13 13 11 6 -1 9 -1 5 1 -20 11 -5 23 28 23 35 0 64 18 64 39 0 6 5
11 10 11 6 0 10 -4 10 -10z m-2326 -26 c9 -8 16 -20 16 -26 0 -6 -9 -1 -20 12
-29 33 -25 44 4 14z m1520 1 c-7 -16 -24 -21 -24 -6 0 8 7 13 27 20 1 1 0 -6
-3 -14z m136 -6 c0 -5 -18 -9 -40 -9 -37 0 -55 13 -28 22 18 6 68 -3 68 -13z
m180 6 c0 -8 -4 -15 -10 -15 -5 0 -10 7 -10 15 0 8 5 15 10 15 6 0 10 -7 10
-15z m-2250 -5 c0 -5 -4 -10 -10 -10 -5 0 -10 5 -10 10 0 6 5 10 10 10 6 0 10
-4 10 -10z m180 0 c0 -5 -4 -10 -10 -10 -5 0 -10 5 -10 10 0 6 5 10 10 10 6 0
10 -4 10 -10z m300 0 c0 -5 -7 -10 -15 -10 -8 0 -15 5 -15 10 0 6 7 10 15 10
8 0 15 -4 15 -10z m120 0 c0 -5 -4 -10 -10 -10 -5 0 -10 5 -10 10 0 6 5 10 10
10 6 0 10 -4 10 -10z m1150 0 c0 -5 4 -10 10 -10 13 0 50 -32 50 -43 0 -5 -7
-1 -16 7 -8 9 -20 16 -25 16 -11 0 -39 25 -39 34 0 3 5 6 10 6 6 0 10 -4 10
-10z m610 -11 c0 -18 -2 -19 -15 -5 -8 8 -15 17 -15 20 0 3 7 6 15 6 9 0 15
-9 15 -21z m237 6 c8 -9 13 -19 10 -22 -6 -5 -37 21 -37 31 0 10 11 6 27 -9z
m-2767 -15 c0 -5 -11 -10 -25 -10 -14 0 -25 5 -25 10 0 6 11 10 25 10 14 0 25
-4 25 -10z m145 -19 c-6 -5 -25 10 -25 20 0 5 6 4 14 -3 8 -7 12 -15 11 -17z
m345 19 c0 -5 -4 -10 -10 -10 -5 0 -10 5 -10 10 0 6 5 10 10 10 6 0 10 -4 10
-10z m703 -4 c4 -10 1 -13 -9 -9 -7 3 -14 9 -14 14 0 14 17 10 23 -5z m627 -1
c0 -8 -4 -15 -10 -15 -5 0 -10 7 -10 15 0 8 5 15 10 15 6 0 10 -7 10 -15z m50
-1 c0 -9 -5 -14 -12 -12 -18 6 -21 28 -4 28 9 0 16 -7 16 -16z m810 6 c0 -5
-4 -10 -10 -10 -5 0 -10 5 -10 10 0 6 5 10 10 10 6 0 10 -4 10 -10z m50 0 c0
-5 -7 -10 -15 -10 -8 0 -15 5 -15 10 0 6 7 10 15 10 8 0 15 -4 15 -10z m-1980
-30 c0 -5 16 -10 35 -10 19 0 35 5 35 10 0 6 7 10 15 10 8 0 15 -4 15 -10 0
-5 11 -10 25 -10 14 0 25 5 25 10 0 6 50 10 130 10 121 0 160 -9 110 -25 -18
-6 -24 -23 -21 -65 0 -10 -1 -11 -5 -2 -9 19 -24 14 -24 -8 0 -15 -7 -20 -25
-20 -14 0 -25 5 -25 11 0 6 -7 4 -15 -5 -8 -8 -15 -20 -15 -26 0 -17 -26 -40
-44 -40 -11 0 -16 9 -16 30 0 28 -3 30 -34 30 -36 0 -66 -21 -66 -46 0 -20
-20 -17 -21 4 0 13 -2 14 -6 2 -10 -24 -30 -40 -52 -40 -12 0 -21 5 -21 10 0
6 -7 10 -15 10 -8 0 -15 7 -15 16 0 10 -5 14 -16 10 -8 -3 -12 -2 -9 4 12 20
-6 50 -31 50 -13 0 -24 5 -24 10 0 6 -4 10 -10 10 -5 0 -10 -9 -10 -20 0 -11
-4 -20 -10 -20 -5 0 -10 5 -10 11 0 12 -24 -9 -33 -31 -4 -8 -5 -3 -2 13 5 24
2 27 -20 27 -18 0 -26 7 -31 25 -4 16 -13 25 -25 25 -10 0 -19 6 -20 13 0 10
-2 10 -6 0 -2 -7 -16 -13 -29 -13 -13 0 -24 -4 -24 -10 0 -5 -7 -10 -15 -10
-17 0 -18 -4 -9 -37 4 -13 14 -23 24 -23 10 0 20 -6 23 -13 6 -17 -94 -12
-105 6 -6 9 -10 9 -16 -1 -5 -7 -32 -13 -66 -13 -44 -1 -60 2 -70 16 -9 13
-20 16 -44 10 -38 -8 -43 -35 -7 -35 14 0 25 -4 25 -10 0 -5 -6 -10 -14 -10
-20 0 -16 -68 4 -81 10 -6 12 -11 4 -16 -6 -5 -14 -15 -18 -23 -3 -8 -4 -3 -1
13 4 19 1 29 -10 33 -9 4 -15 19 -15 40 0 24 -5 34 -15 34 -8 0 -15 -4 -15
-10 0 -5 -11 -10 -25 -10 -14 0 -25 3 -25 6 0 10 28 34 39 34 6 0 11 7 11 15
0 8 7 15 15 15 8 0 15 7 15 15 0 8 -7 15 -15 15 -8 0 -15 -4 -15 -10 0 -5 -7
-10 -15 -10 -8 0 -15 5 -15 10 0 6 -9 10 -20 10 -22 0 -28 26 -8 32 14 5 -6
30 -32 41 -8 3 156 6 365 6 251 0 381 4 383 11 5 13 22 13 22 0z m1170 0 c0
-5 -7 -10 -15 -10 -8 0 -15 5 -15 10 0 6 7 10 15 10 8 0 15 -4 15 -10z m217
-12 c-3 -8 -6 -5 -6 6 -1 11 2 17 5 13 3 -3 4 -12 1 -19z m303 12 c0 -5 11
-10 25 -10 16 0 25 -6 25 -15 0 -8 -4 -15 -10 -15 -5 0 -10 -7 -10 -15 0 -8
-7 -15 -15 -15 -9 0 -12 6 -9 15 4 8 10 15 15 15 5 0 9 5 9 10 0 6 -11 10 -25
10 -16 0 -25 6 -25 15 0 8 5 15 10 15 6 0 10 -4 10 -10z m-780 -30 c0 -5 -4
-10 -10 -10 -5 0 -10 5 -10 10 0 6 5 10 10 10 6 0 10 -4 10 -10z m30 0 c0 -5
-4 -10 -10 -10 -5 0 -10 5 -10 10 0 6 5 10 10 10 6 0 10 -4 10 -10z m671 -2
c0 -10 2 -10 6 0 6 14 33 16 33 2 0 -5 9 -10 20 -10 11 0 20 -4 20 -10 0 -5
-6 -10 -12 -10 -9 0 -10 -2 -2 -8 7 -4 13 -16 15 -27 3 -13 14 -21 32 -23 28
-3 39 -22 12 -22 -8 0 -15 -7 -15 -15 0 -8 7 -15 15 -15 8 0 15 -4 15 -10 0
-5 11 -10 25 -10 14 0 25 5 25 10 0 6 5 10 10 10 6 0 10 -7 10 -16 0 -11 8
-15 28 -13 49 4 62 0 62 -21 0 -11 5 -20 10 -20 6 0 10 -7 10 -15 0 -8 -4 -15
-9 -15 -5 0 -11 -12 -13 -27 -2 -14 -9 -28 -16 -29 -7 -1 -8 0 -2 3 17 8 11
23 -10 23 -16 0 -20 7 -20 30 0 22 -5 30 -18 30 -10 0 -24 9 -32 20 -20 28
-43 26 -35 -2 5 -18 4 -20 -4 -8 -10 13 -12 13 -21 0 -8 -12 -10 -11 -10 8 0
38 -42 69 -53 40 -3 -9 -11 -5 -26 11 -27 31 -27 32 7 29 32 -4 39 24 7 31
-24 4 -37 21 -30 39 2 7 -4 12 -15 12 -24 0 -26 -23 -4 -44 14 -14 12 -15 -18
-9 -38 7 -48 14 -30 20 17 6 15 23 -3 23 -16 0 -19 9 -9 34 7 19 44 22 45 4z
m-1141 -18 c0 -5 -4 -10 -10 -10 -5 0 -10 5 -10 10 0 6 5 10 10 10 6 0 10 -4
10 -10z m50 0 c0 -5 11 -10 25 -10 16 0 25 -6 25 -15 0 -8 7 -15 15 -15 8 0
15 -4 15 -10 0 -5 -12 -10 -26 -10 -26 0 -54 20 -54 39 0 6 -4 11 -10 11 -5 0
-10 5 -10 10 0 6 5 10 10 10 6 0 10 -4 10 -10z m550 0 c0 -5 8 -11 18 -11 16
-1 16 -2 0 -6 -10 -2 -18 -7 -18 -9 0 -12 29 -33 51 -37 13 -2 3 -5 -23 -6
-27 0 -48 -6 -48 -12 0 -16 26 -39 45 -39 9 0 23 -7 31 -15 8 -8 21 -12 29 -9
9 4 15 0 15 -10 0 -19 26 -22 33 -3 2 6 8 9 12 5 9 -8 -18 -38 -34 -38 -6 0
-11 5 -11 10 0 6 -16 10 -35 10 -19 0 -35 5 -35 10 0 14 -28 12 -33 -2 -2 -8
-8 -9 -13 -4 -5 5 -4 11 4 13 22 8 13 33 -13 33 -20 0 -25 -5 -25 -25 0 -16
-6 -25 -15 -25 -8 0 -15 5 -15 10 0 6 5 10 10 10 6 0 10 7 10 15 0 11 -12 15
-44 15 -26 0 -46 5 -49 13 -3 8 4 13 21 12 18 0 28 6 30 19 2 10 0 16 -6 12
-13 -8 -42 3 -42 15 0 5 9 9 20 9 11 0 20 6 21 13 0 10 2 10 6 0 2 -7 16 -13
29 -13 13 0 24 -4 24 -10 0 -5 7 -10 15 -10 8 0 15 9 15 19 0 11 6 22 13 24 6
3 0 6 -15 6 -35 1 -37 21 -3 21 14 0 25 -4 25 -10z m70 0 c0 -5 -4 -10 -10
-10 -5 0 -10 5 -10 10 0 6 5 10 10 10 6 0 10 -4 10 -10z m340 1 c0 -5 8 -12
18 -14 10 -3 6 -5 -10 -6 -19 -1 -28 4 -28 14 0 8 5 15 10 15 6 0 10 -4 10 -9z
m-1765 -40 c-3 -12 -11 -21 -16 -21 -14 0 -11 38 4 43 17 6 20 2 12 -22z m999
23 c17 -7 22 -44 7 -44 -5 0 -13 9 -16 20 -7 22 -25 28 -25 8 0 -6 -3 -9 -6
-5 -7 7 4 27 16 27 4 0 15 -3 24 -6z m-1034 -14 c0 -5 -4 -10 -10 -10 -5 0
-10 5 -10 10 0 6 5 10 10 10 6 0 10 -4 10 -10z m834 -32 c6 -4 21 -8 34 -8 12
0 22 -4 22 -10 0 -5 -7 -10 -16 -10 -8 0 -13 -4 -10 -9 21 -34 -41 -59 -74
-31 -25 22 -25 30 0 30 11 0 20 -4 20 -10 0 -5 11 -10 25 -10 14 0 25 5 25 10
0 6 -4 10 -10 10 -5 0 -10 6 -10 14 0 8 -7 16 -15 20 -8 3 -14 16 -14 28 1 21
2 21 6 3 3 -11 10 -23 17 -27z m312 22 c19 0 34 5 34 10 0 6 11 10 25 10 14 0
25 -4 25 -10 0 -5 -11 -10 -25 -10 -16 0 -25 -6 -25 -15 0 -8 5 -15 10 -15 6
0 10 -11 10 -25 0 -14 -4 -25 -10 -25 -5 0 -10 11 -10 25 0 22 -4 25 -35 25
-19 0 -35 -4 -35 -10 0 -5 -13 -10 -30 -10 -16 0 -30 5 -30 10 0 6 7 10 15 10
9 0 12 6 9 15 -4 9 0 15 10 15 9 0 16 6 17 13 0 10 2 10 6 0 2 -7 20 -13 39
-13z m554 10 c0 -5 -4 -10 -10 -10 -5 0 -10 5 -10 10 0 6 5 10 10 10 6 0 10
-4 10 -10z m-2161 -52 c1 -5 -3 -8 -9 -8 -5 0 -10 12 -9 28 0 24 1 25 9 7 5
-11 9 -23 9 -27z m1951 32 c0 -5 -4 -10 -10 -10 -5 0 -10 5 -10 10 0 6 5 10
10 10 6 0 10 -4 10 -10z m160 0 c0 -5 -4 -10 -10 -10 -5 0 -10 5 -10 10 0 6 5
10 10 10 6 0 10 -4 10 -10z m390 0 c0 -5 -4 -10 -10 -10 -5 0 -10 5 -10 10 0
6 5 10 10 10 6 0 10 -4 10 -10z m80 0 c0 -5 -7 -10 -15 -10 -8 0 -15 5 -15 10
0 6 7 10 15 10 8 0 15 -4 15 -10z m-2023 -17 c-11 -3 -16 -12 -13 -26 1 -12 1
-16 -1 -10 -2 7 -14 12 -25 10 -11 -1 -23 5 -25 13 -4 13 -3 13 5 1 9 -12 13
-12 27 2 9 10 24 16 33 16 15 -1 15 -2 -1 -6z m1633 -9 c0 -7 12 -15 28 -17
l27 -4 -27 -2 c-15 0 -33 6 -42 14 -17 17 -36 20 -36 5 0 -5 5 -10 10 -10 6 0
10 -11 10 -25 0 -14 -4 -25 -10 -25 -5 0 -10 9 -10 20 0 16 -7 20 -30 20 -20
0 -30 5 -30 15 0 8 -4 15 -10 15 -10 0 -12 -7 -13 -45 0 -16 -1 -17 -4 -2 -3
9 -14 17 -26 18 -12 0 -16 3 -9 6 6 2 12 10 12 18 0 9 21 12 80 12 57 -1 80
-4 80 -13z m414 1 c-4 -8 -15 -15 -25 -15 -27 0 -24 18 4 23 12 2 23 5 24 6 1
0 0 -6 -3 -14z m-2534 -5 c0 -5 -4 -10 -10 -10 -5 0 -10 5 -10 10 0 6 5 10 10
10 6 0 10 -4 10 -10z m1413 -2 c3 -10 -7 -12 -38 -10 -30 3 -47 -1 -59 -13 -9
-10 -20 -14 -24 -10 -4 4 -1 10 6 12 6 3 12 11 12 19 0 18 96 20 103 2z m907
0 c0 -9 -16 -13 -45 -13 -29 0 -45 4 -45 13 0 8 16 12 45 12 29 0 45 -4 45
-12z m-390 -17 c0 -5 3 -16 6 -25 5 -12 0 -16 -20 -16 -40 0 -34 45 7 49 4 1
7 -3 7 -8z m-1970 -11 c0 -5 -7 -10 -15 -10 -8 0 -15 5 -15 10 0 6 7 10 15 10
8 0 15 -4 15 -10z m280 0 c0 -5 -4 -10 -10 -10 -5 0 -10 5 -10 10 0 6 5 10 10
10 6 0 10 -4 10 -10z m2030 0 c0 -5 -4 -10 -10 -10 -5 0 -10 5 -10 10 0 6 5
10 10 10 6 0 10 -4 10 -10z m-852 -22 c-3 -7 -11 -13 -18 -13 -7 0 -15 6 -17
13 -3 7 4 12 17 12 13 0 20 -5 18 -12z m42 2 c0 -5 -4 -10 -10 -10 -5 0 -10 5
-10 10 0 6 5 10 10 10 6 0 10 -4 10 -10z m-783 -16 c-3 -3 -12 -4 -19 -1 -8 3
-5 6 6 6 11 1 17 -2 13 -5z m233 -9 c0 -8 -9 -15 -19 -15 -11 0 -22 -6 -24
-12 -3 -7 -6 -3 -6 9 -1 19 9 27 42 32 4 0 7 -6 7 -14z m183 8 c-20 -8 -15
-23 7 -23 11 0 20 5 20 11 0 18 29 -18 36 -45 6 -24 4 -26 -25 -26 -24 0 -31
-4 -31 -20 0 -26 -21 -26 -40 0 -19 26 -30 25 -30 -1 0 -18 -2 -19 -15 -5 -8
8 -15 17 -15 20 0 14 36 46 52 46 11 0 18 7 18 18 0 21 9 32 24 31 6 0 5 -3
-1 -6z m1127 -8 c0 -8 -4 -15 -10 -15 -5 0 -10 7 -10 15 0 8 5 15 10 15 6 0
10 -7 10 -15z m-2180 -15 c11 -12 18 -37 18 -62 1 -24 6 -44 11 -46 26 -9 8
-22 -29 -22 -22 0 -40 5 -40 10 0 6 11 10 25 10 16 0 25 6 25 15 0 8 -4 15
-10 15 -5 0 -10 7 -10 15 0 8 -4 15 -10 15 -5 0 -10 11 -10 25 0 16 -6 25 -15
25 -8 0 -15 5 -15 10 0 18 42 11 60 -10z m390 10 c0 -5 -7 -10 -15 -10 -8 0
-15 -5 -15 -12 0 -6 -2 -9 -5 -6 -3 3 -3 13 1 22 7 17 34 22 34 6z m770 -15
c0 -14 -4 -25 -10 -25 -5 0 -10 11 -10 25 0 14 5 25 10 25 6 0 10 -11 10 -25z
m290 19 c0 -3 -7 -12 -15 -20 -16 -17 -18 -14 -9 10 6 15 24 23 24 10z m134
-29 c4 -19 10 -36 14 -36 4 -1 23 -3 42 -5 19 -2 37 -9 38 -14 2 -6 10 -10 18
-10 8 0 14 -4 14 -10 0 -5 7 -10 15 -10 8 0 15 -7 15 -15 0 -8 -7 -15 -15 -15
-8 0 -15 7 -15 15 0 8 -7 15 -15 15 -9 0 -12 -6 -9 -15 5 -11 -1 -15 -19 -15
-14 0 -27 4 -29 10 -1 5 -21 11 -43 13 -34 2 -40 6 -38 25 2 14 -3 22 -12 22
-8 0 -15 -9 -15 -20 0 -11 -4 -20 -10 -20 -5 0 -10 11 -10 25 0 18 5 25 20 25
20 0 24 8 20 48 -3 37 27 26 34 -13z m339 23 c4 -10 8 -9 16 2 9 12 11 11 11
-7 0 -13 5 -23 10 -23 6 0 10 -7 10 -15 0 -8 7 -15 15 -15 8 0 15 6 15 14 0
11 19 14 100 11 105 -3 130 -13 130 -54 0 -24 5 -23 -140 -26 -72 -2 -105 -6
-108 -15 -3 -9 -7 -9 -14 1 -7 11 -11 11 -15 2 -3 -9 -27 -13 -69 -13 -44 0
-64 4 -64 13 0 8 -3 8 -9 -2 -8 -12 -12 -12 -26 2 -9 10 -12 17 -6 17 15 0 14
67 -1 73 -7 3 -3 6 10 6 12 1 22 -5 22 -13 0 -7 9 -16 19 -19 13 -3 18 0 15 8
-3 7 5 15 20 19 13 3 28 15 31 26 7 23 21 26 28 8z m97 2 c0 -5 -4 -10 -10
-10 -5 0 -10 5 -10 10 0 6 5 10 10 10 6 0 10 -4 10 -10z m240 0 c0 -5 -4 -10
-10 -10 -5 0 -10 5 -10 10 0 6 5 10 10 10 6 0 10 -4 10 -10z m-2040 -25 c0 -8
-9 -15 -20 -15 -17 0 -19 2 -8 15 17 19 28 19 28 0z m57 -7 c-3 -8 -6 -5 -6 6
-1 11 2 17 5 13 3 -3 4 -12 1 -19z m157 -5 c-7 -26 -7 -27 10 -10 21 21 36 22
36 2 0 -8 7 -15 15 -15 8 0 15 5 15 11 0 6 7 4 15 -5 8 -8 15 -24 15 -35 0
-12 4 -21 9 -21 5 0 16 -3 25 -6 20 -8 21 13 1 32 -8 9 -15 23 -15 32 0 15 2
15 11 2 8 -11 12 -12 16 -2 6 14 33 16 33 2 0 -5 10 -10 23 -10 12 0 28 -4 36
-9 12 -8 11 -12 -4 -28 -13 -13 -20 -14 -23 -5 -7 22 -32 41 -47 36 -17 -7
-20 -24 -5 -24 6 0 10 -11 10 -25 0 -23 -3 -25 -50 -25 -38 0 -50 4 -50 15 0
8 -7 15 -16 15 -11 0 -14 6 -8 22 6 19 4 19 -20 -5 -32 -32 -30 -32 -52 -10
-13 13 -19 14 -22 5 -7 -21 -42 -14 -42 8 0 11 -4 20 -10 20 -5 0 -10 -11 -10
-25 0 -16 6 -25 15 -25 8 0 15 -4 15 -10 0 -5 -7 -10 -15 -10 -8 0 -15 5 -15
10 0 6 -22 10 -50 10 -27 0 -50 -4 -50 -10 0 -5 -7 -10 -15 -10 -8 0 -15 7
-15 15 0 10 11 15 35 15 28 0 35 4 35 19 0 11 -9 23 -20 26 -20 6 -28 35 -10
35 6 0 10 -4 10 -10 0 -11 36 -50 46 -50 3 0 12 7 21 16 10 10 25 13 44 9 24
-5 28 -4 23 9 -4 11 -1 16 10 16 9 0 16 7 16 15 0 8 7 15 15 15 12 0 14 -7 9
-27z m231 5 c6 -4 2 -8 -7 -8 -10 0 -18 7 -18 17 0 9 3 12 8 7 4 -5 12 -12 17
-16z m235 12 c0 -5 -4 -10 -10 -10 -5 0 -10 5 -10 10 0 6 5 10 10 10 6 0 10
-4 10 -10z m1180 0 c0 -5 -4 -10 -10 -10 -5 0 -10 5 -10 10 0 6 5 10 10 10 6
0 10 -4 10 -10z m-1354 -25 c-8 -8 -17 -15 -19 -15 -3 0 -7 7 -11 15 -4 11 2
15 20 15 23 0 24 -2 10 -15z m514 0 c0 -8 -4 -15 -10 -15 -5 0 -10 7 -10 15 0
8 5 15 10 15 6 0 10 -7 10 -15z m470 -6 c0 -24 -23 -21 -28 4 -2 10 3 17 12
17 10 0 16 -9 16 -21z m780 6 c0 -8 -4 -15 -9 -15 -5 0 -17 -7 -25 -16 -15
-14 -16 -13 -16 10 0 22 9 30 43 35 4 0 7 -6 7 -14z m-1697 -47 c6 -4 8 -10 4
-15 -12 -11 -27 18 -25 47 l1 25 4 -25 c3 -14 10 -28 16 -32z m98 22 c5 0 9
-4 9 -10 0 -5 -7 -10 -15 -10 -10 0 -15 9 -14 28 1 16 3 20 6 10 2 -10 9 -18
14 -18z m399 20 c0 -5 -4 -10 -10 -10 -5 0 -10 5 -10 10 0 6 5 10 10 10 6 0
10 -4 10 -10z m470 0 c0 -5 -4 -10 -10 -10 -5 0 -10 5 -10 10 0 6 5 10 10 10
6 0 10 -4 10 -10z m-1616 -25 c-4 -8 -10 -15 -15 -15 -5 0 -9 7 -9 15 0 8 7
15 15 15 9 0 12 -6 9 -15z m1034 1 c-7 -8 -15 -12 -17 -11 -5 6 10 25 20 25 5
0 4 -6 -3 -14z m1765 7 c-13 -2 -33 -2 -45 0 -13 2 -3 4 22 4 25 0 35 -2 23
-4z m-1701 -25 c2 -17 9 -22 26 -21 14 2 22 -3 22 -12 0 -20 -36 -19 -44 0 -3
8 -17 15 -31 15 -14 0 -25 5 -25 10 0 6 7 10 15 10 8 0 15 5 15 10 0 20 19 9
22 -12z m48 12 c0 -5 -4 -10 -10 -10 -5 0 -10 5 -10 10 0 6 5 10 10 10 6 0 10
-4 10 -10z m1200 -10 c0 -11 -4 -20 -10 -20 -5 0 -10 9 -10 20 0 11 5 20 10
20 6 0 10 -9 10 -20z m32 -4 c4 -17 1 -23 -9 -19 -14 6 -18 43 -4 43 5 0 11
-11 13 -24z m548 14 c0 -5 -4 -10 -10 -10 -5 0 -10 5 -10 10 0 6 5 10 10 10 6
0 10 -4 10 -10z m-2955 -32 c6 -4 2 -8 -7 -8 -10 0 -18 7 -18 17 0 9 3 12 8 7
4 -5 12 -12 17 -16z m525 12 c0 -5 -4 -10 -10 -10 -5 0 -10 5 -10 10 0 6 5 10
10 10 6 0 10 -4 10 -10z m314 -5 c4 -11 -1 -15 -19 -15 -14 0 -25 -5 -25 -12
0 -6 -2 -9 -5 -7 -2 3 -2 15 2 27 6 25 38 30 47 7z m506 3 c0 -7 -5 -20 -10
-28 -9 -13 -11 -13 -19 -1 -5 8 -7 20 -4 28 6 17 33 17 33 1z m827 -2 c-4 -10
-1 -13 9 -9 7 3 14 10 14 17 0 8 2 8 8 0 4 -7 18 -14 32 -17 25 -4 25 -4 -2
-6 -16 0 -28 -5 -28 -11 0 -5 -25 -10 -55 -10 -57 0 -74 15 -30 26 14 3 25 10
25 15 0 5 7 9 16 9 10 0 14 -6 11 -14z m149 -6 c8 0 14 -7 14 -15 0 -12 -3
-12 -20 2 -11 10 -20 22 -19 28 0 5 3 4 6 -2 2 -7 11 -13 19 -13z m584 5 c0
-9 -6 -12 -15 -9 -9 4 -15 0 -15 -10 0 -21 -16 -21 -24 0 -11 28 -7 34 24 34
20 0 30 -5 30 -15z m-2846 -20 c-7 -16 -24 -21 -24 -6 0 8 7 13 27 20 1 1 0
-6 -3 -14z m2743 9 c-3 -3 -12 -4 -19 -1 -8 3 -5 6 6 6 11 1 17 -2 13 -5z
m-3007 -14 c0 -5 -4 -10 -10 -10 -5 0 -10 5 -10 10 0 6 5 10 10 10 6 0 10 -4
10 -10z m520 0 c0 -5 -9 -10 -20 -10 -11 0 -20 5 -20 10 0 6 9 10 20 10 11 0
20 -4 20 -10z m310 0 c0 -5 -4 -10 -10 -10 -5 0 -10 5 -10 10 0 6 5 10 10 10
6 0 10 -4 10 -10z m320 0 c0 -5 -4 -10 -10 -10 -5 0 -10 5 -10 10 0 6 5 10 10
10 6 0 10 -4 10 -10z m60 0 c0 -5 -7 -10 -15 -10 -8 0 -15 5 -15 10 0 6 7 10
15 10 8 0 15 -4 15 -10z m70 0 c0 -5 -11 -10 -25 -10 -14 0 -25 5 -25 10 0 6
11 10 25 10 14 0 25 -4 25 -10z m150 0 c0 -5 -4 -10 -10 -10 -5 0 -10 5 -10
10 0 6 5 10 10 10 6 0 10 -4 10 -10z"/>
<path d="M4360 1650 c0 -5 5 -10 10 -10 6 0 10 5 10 10 0 6 -4 10 -10 10 -5 0
-10 -4 -10 -10z"/>
<path d="M5740 1650 c0 -5 11 -10 25 -10 14 0 25 -4 25 -10 0 -14 27 -12 34 3
5 10 7 10 12 0 6 -13 34 -18 34 -7 0 3 -6 12 -14 20 -17 16 -116 20 -116 4z"/>
<path d="M6240 1650 c0 -5 -7 -10 -15 -10 -20 0 -20 -46 1 -54 8 -3 12 -2 9 4
-10 16 5 50 21 50 8 0 14 5 14 10 0 6 -7 10 -15 10 -8 0 -15 -4 -15 -10z"/>
<path d="M6370 1650 c0 -5 7 -10 15 -10 8 0 15 5 15 10 0 6 -7 10 -15 10 -8 0
-15 -4 -15 -10z"/>
<path d="M4176 1624 c-13 -34 2 -46 28 -22 11 10 11 15 0 25 -16 17 -21 16
-28 -3z"/>
<path d="M5010 1630 c0 -5 5 -10 10 -10 6 0 10 5 10 10 0 6 -4 10 -10 10 -5 0
-10 -4 -10 -10z"/>
<path d="M5250 1630 c0 -5 5 -10 10 -10 6 0 10 5 10 10 0 6 -4 10 -10 10 -5 0
-10 -4 -10 -10z"/>
<path d="M5690 1625 c0 -8 5 -15 10 -15 6 0 10 7 10 15 0 8 -4 15 -10 15 -5 0
-10 -7 -10 -15z"/>
<path d="M6080 1630 c0 -5 5 -10 10 -10 6 0 10 5 10 10 0 6 -4 10 -10 10 -5 0
-10 -4 -10 -10z"/>
<path d="M6580 1630 c0 -5 7 -10 15 -10 8 0 15 5 15 10 0 6 -7 10 -15 10 -8 0
-15 -4 -15 -10z"/>
<path d="M4230 1600 c0 -5 7 -10 15 -10 8 0 15 5 15 10 0 6 -7 10 -15 10 -8 0
-15 -4 -15 -10z"/>
<path d="M6010 1600 c0 -5 5 -10 10 -10 6 0 10 5 10 10 0 6 -4 10 -10 10 -5 0
-10 -4 -10 -10z"/>
<path d="M6110 1600 c0 -5 5 -10 10 -10 6 0 10 5 10 10 0 6 -4 10 -10 10 -5 0
-10 -4 -10 -10z"/>
<path d="M6500 1599 c0 -14 25 -39 39 -39 15 0 14 17 -1 23 -10 4 -10 6 0 6
23 2 12 21 -13 21 -14 0 -25 -5 -25 -11z"/>
<path d="M5284 1565 c-16 -21 -27 -25 -70 -25 -49 0 -51 -1 -46 -25 2 -14 8
-25 13 -25 5 0 12 -18 15 -40 7 -40 17 -51 28 -27 5 10 7 10 12 0 7 -15 34
-17 34 -3 0 6 -4 10 -10 10 -5 0 -10 14 -10 31 0 30 0 30 47 25 26 -3 49 -10
51 -16 2 -5 17 -10 33 -10 24 0 29 4 29 25 0 26 14 34 24 13 5 -10 7 -10 12 0
3 6 16 12 29 12 13 0 26 -6 28 -12 4 -10 6 -10 6 0 1 6 8 12 16 12 8 0 15 7
15 15 0 10 -10 15 -29 15 -16 0 -32 6 -35 13 -5 10 -7 10 -12 0 -7 -15 -34
-17 -34 -3 0 13 -47 13 -52 1 -1 -5 -15 -13 -30 -16 -21 -6 -28 -4 -28 8 0 8
-6 18 -12 20 -10 4 -9 8 2 16 8 6 10 11 4 11 -6 0 -20 -11 -30 -25z m6 -45 c0
-5 -4 -10 -10 -10 -5 0 -10 5 -10 10 0 6 5 10 10 10 6 0 10 -4 10 -10z m80 0
c0 -5 -4 -10 -10 -10 -5 0 -10 5 -10 10 0 6 5 10 10 10 6 0 10 -4 10 -10z"/>
<path d="M5695 1573 c-8 -7 -18 -13 -24 -13 -6 0 -11 -4 -11 -10 0 -5 -23 -10
-50 -10 -43 0 -49 -2 -38 -14 7 -8 15 -10 16 -5 7 17 22 9 22 -11 0 -16 7 -20
34 -20 19 0 41 -3 50 -6 12 -5 16 1 17 22 1 24 2 25 6 7 4 -23 23 -33 23 -13
0 6 7 10 16 10 9 0 14 6 11 13 -3 9 6 11 34 9 31 -3 39 -1 39 12 0 12 -10 16
-35 16 -19 0 -35 4 -35 9 0 15 -61 19 -75 4z"/>
<path d="M6577 1574 c3 -7 9 -14 14 -14 14 0 10 17 -5 23 -10 4 -13 1 -9 -9z"/>
<path d="M5350 1570 c0 -5 5 -10 10 -10 6 0 10 5 10 10 0 6 -4 10 -10 10 -5 0
-10 -4 -10 -10z"/>
<path d="M5840 1571 c0 -14 30 -41 45 -41 15 0 45 27 45 41 0 5 -20 9 -45 9
-25 0 -45 -4 -45 -9z"/>
<path d="M5090 1550 c0 -5 5 -10 10 -10 6 0 10 5 10 10 0 6 -4 10 -10 10 -5 0
-10 -4 -10 -10z"/>
<path d="M5950 1550 c0 -5 5 -10 10 -10 6 0 10 5 10 10 0 6 -4 10 -10 10 -5 0
-10 -4 -10 -10z"/>
<path d="M6267 1524 c6 -15 23 -19 23 -5 0 5 -7 11 -14 14 -10 4 -13 1 -9 -9z"/>
<path d="M3970 1520 c0 -5 5 -10 10 -10 6 0 10 5 10 10 0 6 -4 10 -10 10 -5 0
-10 -4 -10 -10z"/>
<path d="M4910 1520 c0 -5 5 -10 10 -10 6 0 10 5 10 10 0 6 -4 10 -10 10 -5 0
-10 -4 -10 -10z"/>
<path d="M5850 1521 c0 -20 -32 -40 -58 -37 -15 2 -20 1 -12 -1 8 -3 18 -10
23 -17 5 -8 10 -7 17 4 9 13 11 13 20 0 8 -12 10 -9 10 13 0 15 5 27 10 27 6
0 10 5 10 10 0 6 -4 10 -10 10 -5 0 -10 -4 -10 -9z"/>
<path d="M5950 1520 c0 -5 7 -10 15 -10 8 0 15 5 15 10 0 6 -7 10 -15 10 -8 0
-15 -4 -15 -10z"/>
<path d="M4000 1500 c0 -5 5 -10 10 -10 6 0 10 5 10 10 0 6 -4 10 -10 10 -5 0
-10 -4 -10 -10z"/>
<path d="M3946 1483 c6 -4 14 -15 17 -23 5 -11 6 -9 4 4 -1 11 -9 21 -17 23
-10 3 -11 2 -4 -4z"/>
<path d="M5560 1475 c0 -8 5 -15 10 -15 6 0 10 7 10 15 0 8 -4 15 -10 15 -5 0
-10 -7 -10 -15z"/>
<path d="M5968 1483 c-35 -9 -20 -33 21 -33 22 0 42 -5 44 -12 4 -10 8 -10 14
-2 4 7 19 14 32 15 27 4 42 29 17 29 -9 0 -16 -4 -16 -9 0 -12 -36 -20 -61
-14 -12 3 -18 11 -15 19 5 14 -4 16 -36 7z"/>
<path d="M4200 1470 c0 -5 5 -10 10 -10 6 0 10 5 10 10 0 6 -4 10 -10 10 -5 0
-10 -4 -10 -10z"/>
<path d="M4390 1470 c0 -5 5 -10 10 -10 6 0 10 5 10 10 0 6 -4 10 -10 10 -5 0
-10 -4 -10 -10z"/>
<path d="M4650 1470 c0 -5 5 -10 10 -10 6 0 10 5 10 10 0 6 -4 10 -10 10 -5 0
-10 -4 -10 -10z"/>
<path d="M5300 1470 c0 -5 5 -10 10 -10 6 0 10 5 10 10 0 6 -4 10 -10 10 -5 0
-10 -4 -10 -10z"/>
<path d="M5898 1433 c2 -13 8 -23 12 -23 4 0 10 10 12 23 3 16 0 23 -12 23
-12 0 -15 -7 -12 -23z"/>
<path d="M3992 1425 c0 -16 2 -22 5 -12 2 9 2 23 0 30 -3 6 -5 -1 -5 -18z"/>
<path d="M4072 1423 c-22 -22 -22 -23 -2 -23 12 0 20 7 20 18 0 14 2 15 10 2
5 -8 12 -11 16 -8 3 4 0 13 -7 21 -12 11 -18 10 -37 -10z"/>
<path d="M4191 1434 c-7 -8 -10 -18 -6 -22 4 -4 10 -1 12 6 3 6 16 12 29 12
13 0 24 5 24 10 0 16 -43 11 -59 -6z"/>
<path d="M5380 1440 c0 -5 5 -10 10 -10 6 0 10 5 10 10 0 6 -4 10 -10 10 -5 0
-10 -4 -10 -10z"/>
<path d="M3870 1421 c0 -5 7 -12 16 -15 22 -9 24 -8 24 9 0 8 -9 15 -20 15
-11 0 -20 -4 -20 -9z"/>
<path d="M5820 1390 c0 -5 5 -10 10 -10 6 0 10 5 10 10 0 6 -4 10 -10 10 -5 0
-10 -4 -10 -10z"/>
<path d="M6290 1390 c0 -5 5 -10 10 -10 6 0 10 5 10 10 0 6 -4 10 -10 10 -5 0
-10 -4 -10 -10z"/>
<path d="M5070 1370 c0 -5 5 -10 10 -10 6 0 10 5 10 10 0 6 -4 10 -10 10 -5 0
-10 -4 -10 -10z"/>
<path d="M5501 1364 c0 -11 3 -14 6 -6 3 7 2 16 -1 19 -3 4 -6 -2 -5 -13z"/>
<path d="M5590 1370 c0 -5 5 -10 10 -10 6 0 10 5 10 10 0 6 -4 10 -10 10 -5 0
-10 -4 -10 -10z"/>
<path d="M5870 1370 c0 -5 5 -10 10 -10 6 0 10 5 10 10 0 6 -4 10 -10 10 -5 0
-10 -4 -10 -10z"/>
<path d="M6110 1370 c0 -5 5 -10 10 -10 6 0 10 5 10 10 0 6 -4 10 -10 10 -5 0
-10 -4 -10 -10z"/>
<path d="M4730 1340 c0 -5 5 -10 10 -10 6 0 10 5 10 10 0 6 -4 10 -10 10 -5 0
-10 -4 -10 -10z"/>
<path d="M5170 1340 c0 -5 5 -10 10 -10 6 0 10 5 10 10 0 6 -4 10 -10 10 -5 0
-10 -4 -10 -10z"/>
<path d="M4873 1323 c9 -2 23 -2 30 0 6 3 -1 5 -18 5 -16 0 -22 -2 -12 -5z"/>
<path d="M5770 1310 c0 -5 5 -10 10 -10 6 0 10 5 10 10 0 6 -4 10 -10 10 -5 0
-10 -4 -10 -10z"/>
<path d="M4050 1290 c0 -5 5 -10 10 -10 6 0 10 5 10 10 0 6 -4 10 -10 10 -5 0
-10 -4 -10 -10z"/>
<path d="M6970 1290 c0 -5 5 -10 10 -10 6 0 10 5 10 10 0 6 -4 10 -10 10 -5 0
-10 -4 -10 -10z"/>
<path d="M4966 1273 c5 -5 12 -12 16 -18 4 -6 8 -2 8 8 0 9 -7 17 -17 17 -9 0
-12 -3 -7 -7z"/>
<path d="M6915 1269 c-11 -16 -1 -19 13 -3 7 8 8 14 3 14 -5 0 -13 -5 -16 -11z"/>
<path d="M4130 1264 c0 -10 31 -36 37 -31 3 3 -2 13 -10 22 -16 15 -27 19 -27
9z"/>
<path d="M5930 1210 c0 -5 5 -10 10 -10 6 0 10 5 10 10 0 6 -4 10 -10 10 -5 0
-10 -4 -10 -10z"/>
<path d="M5670 1190 c0 -5 5 -10 10 -10 6 0 10 5 10 10 0 6 -4 10 -10 10 -5 0
-10 -4 -10 -10z"/>
<path d="M6240 1190 c0 -5 5 -10 10 -10 6 0 10 5 10 10 0 6 -4 10 -10 10 -5 0
-10 -4 -10 -10z"/>
<path d="M6610 1190 c0 -5 5 -10 10 -10 6 0 10 5 10 10 0 6 -4 10 -10 10 -5 0
-10 -4 -10 -10z"/>
<path d="M4640 1157 c0 -9 -4 -17 -10 -17 -5 0 -10 -4 -10 -10 0 -5 4 -10 9
-10 12 0 25 39 17 47 -3 4 -6 -1 -6 -10z"/>
<path d="M4317 1142 c-13 -3 -16 -9 -11 -25 6 -21 5 -21 -15 3 -19 20 -24 22
-31 10 -14 -22 -12 -27 14 -34 34 -8 56 2 57 28 0 11 3 15 6 9 5 -15 53 -18
53 -4 0 5 10 12 23 14 12 2 -1 4 -28 3 -28 -1 -59 -2 -68 -4z"/>
<path d="M4560 1143 c14 -3 28 -10 32 -17 5 -7 8 -5 8 7 0 13 -8 17 -32 16
-28 -2 -29 -2 -8 -6z"/>
<path d="M4780 1120 c0 -15 -7 -20 -26 -20 -23 0 -24 -2 -10 -15 14 -14 17
-14 36 5 21 21 27 50 10 50 -5 0 -10 -9 -10 -20z"/>
<path d="M6290 1130 c0 -5 5 -10 10 -10 6 0 10 5 10 10 0 6 -4 10 -10 10 -5 0
-10 -4 -10 -10z"/>
<path d="M4647 1106 c-4 -10 -1 -13 9 -9 7 3 14 9 14 14 0 14 -17 10 -23 -5z"/>
<path d="M5740 1110 c0 -5 5 -10 10 -10 6 0 10 5 10 10 0 6 -4 10 -10 10 -5 0
-10 -4 -10 -10z"/>
<path d="M6890 1110 c0 -5 5 -10 10 -10 6 0 10 5 10 10 0 6 -4 10 -10 10 -5 0
-10 -4 -10 -10z"/>
<path d="M4350 1090 c-8 -5 -11 -12 -8 -16 4 -3 14 1 23 10 18 17 9 21 -15 6z"/>
<path d="M4403 1093 c9 -2 23 -2 30 0 6 3 -1 5 -18 5 -16 0 -22 -2 -12 -5z"/>
<path d="M4180 1060 c0 -5 5 -10 10 -10 6 0 10 5 10 10 0 6 -4 10 -10 10 -5 0
-10 -4 -10 -10z"/>
<path d="M6512 1054 c-7 -8 -8 -14 -3 -14 10 0 25 19 20 25 -2 1 -10 -3 -17
-11z"/>
<path d="M6610 1060 c0 -5 5 -10 10 -10 6 0 10 5 10 10 0 6 -4 10 -10 10 -5 0
-10 -4 -10 -10z"/>
<path d="M6870 1060 c0 -5 5 -10 10 -10 6 0 10 5 10 10 0 6 -4 10 -10 10 -5 0
-10 -4 -10 -10z"/>
<path d="M5963 1025 c-9 -10 -6 -12 14 -12 14 0 21 2 17 6 -5 3 -11 9 -14 13
-3 3 -10 0 -17 -7z"/>
<path d="M4727 1004 c6 -15 23 -19 23 -5 0 5 -7 11 -14 14 -10 4 -13 1 -9 -9z"/>
<path d="M6378 1013 c7 -3 16 -2 19 1 4 3 -2 6 -13 5 -11 0 -14 -3 -6 -6z"/>
<path d="M6433 1013 c-15 -5 -17 -23 -4 -23 5 0 11 7 15 15 3 8 4 15 3 14 -1
0 -8 -3 -14 -6z"/>
<path d="M3890 1000 c0 -5 5 -10 10 -10 6 0 10 5 10 10 0 6 -4 10 -10 10 -5 0
-10 -4 -10 -10z"/>
<path d="M4880 1000 c0 -5 5 -10 10 -10 6 0 10 5 10 10 0 6 -4 10 -10 10 -5 0
-10 -4 -10 -10z"/>
<path d="M6240 980 c0 -5 5 -10 10 -10 6 0 10 5 10 10 0 6 -4 10 -10 10 -5 0
-10 -4 -10 -10z"/>
<path d="M6400 950 c0 -5 5 -10 10 -10 6 0 10 5 10 10 0 6 -4 10 -10 10 -5 0
-10 -4 -10 -10z"/>
<path d="M4780 930 c0 -5 5 -10 10 -10 6 0 10 5 10 10 0 6 -4 10 -10 10 -5 0
-10 -4 -10 -10z"/>
<path d="M4910 930 c0 -5 5 -10 10 -10 6 0 10 5 10 10 0 6 -4 10 -10 10 -5 0
-10 -4 -10 -10z"/>
<path d="M6240 900 c0 -5 5 -10 10 -10 6 0 10 5 10 10 0 6 -4 10 -10 10 -5 0
-10 -4 -10 -10z"/>
<path d="M4730 870 c0 -5 5 -10 10 -10 6 0 10 5 10 10 0 6 -4 10 -10 10 -5 0
-10 -4 -10 -10z"/>
<path d="M4410 820 c0 -5 5 -10 10 -10 6 0 10 5 10 10 0 6 -4 10 -10 10 -5 0
-10 -4 -10 -10z"/>
<path d="M4130 800 c0 -5 5 -10 10 -10 6 0 10 5 10 10 0 6 -4 10 -10 10 -5 0
-10 -4 -10 -10z"/>
<path d="M4200 770 c0 -5 5 -10 10 -10 6 0 10 5 10 10 0 6 -4 10 -10 10 -5 0
-10 -4 -10 -10z"/>
<path d="M5270 850 c0 -5 5 -10 10 -10 6 0 10 5 10 10 0 6 -4 10 -10 10 -5 0
-10 -4 -10 -10z"/>
<path d="M5327 846 c-4 -10 -1 -13 9 -9 15 6 19 23 5 23 -5 0 -11 -7 -14 -14z"/>
<path d="M5220 820 c0 -5 5 -10 10 -10 6 0 10 5 10 10 0 6 -4 10 -10 10 -5 0
-10 -4 -10 -10z"/>
<path d="M5380 820 c0 -5 7 -10 15 -10 8 0 15 5 15 10 0 6 -7 10 -15 10 -8 0
-15 -4 -15 -10z"/>
<path d="M5540 820 c0 -5 5 -10 10 -10 6 0 10 5 10 10 0 6 -4 10 -10 10 -5 0
-10 -4 -10 -10z"/>
<path d="M5382 769 c-17 -17 -28 -19 -91 -14 -58 4 -71 2 -71 -10 0 -8 5 -15
10 -15 6 0 10 5 10 12 0 6 10 0 21 -13 15 -16 23 -20 26 -11 3 6 11 12 18 12
7 0 16 6 18 13 4 10 6 10 6 0 1 -9 21 -13 67 -13 48 0 64 3 61 13 -2 6 -15 11
-28 10 -13 -1 -18 1 -11 3 16 8 15 21 -3 28 -8 3 -23 -4 -33 -15z"/>
<path d="M5708 783 c-56 -6 -46 -23 13 -23 35 0 49 4 47 12 -5 14 -12 16 -60
11z"/>
<path d="M5160 740 c0 -5 7 -10 15 -10 8 0 15 5 15 10 0 6 -7 10 -15 10 -8 0
-15 -4 -15 -10z"/>
<path d="M5480 740 c0 -5 18 -10 39 -10 22 0 41 -5 44 -12 2 -7 8 -10 12 -6 4
4 0 14 -8 23 -17 17 -87 21 -87 5z"/>
<path d="M5350 690 c0 -5 5 -10 10 -10 6 0 10 5 10 10 0 6 -4 10 -10 10 -5 0
-10 -4 -10 -10z"/>
<path d="M6290 720 c0 -5 5 -10 10 -10 6 0 10 5 10 10 0 6 -4 10 -10 10 -5 0
-10 -4 -10 -10z"/>
<path d="M6833 574 c0 -14 2 -21 6 -17 3 4 9 10 12 13 4 3 1 10 -6 17 -10 9
-12 6 -12 -13z"/>
<path d="M6870 591 c0 -12 39 -25 47 -17 4 3 -1 6 -10 6 -9 0 -17 5 -17 10 0
6 -4 10 -10 10 -5 0 -10 -4 -10 -9z"/>
<path d="M6970 590 c0 -5 5 -10 10 -10 6 0 10 5 10 10 0 6 -4 10 -10 10 -5 0
-10 -4 -10 -10z"/>
<path d="M6630 560 c0 -5 5 -10 10 -10 6 0 10 5 10 10 0 6 -4 10 -10 10 -5 0
-10 -4 -10 -10z"/>
<path d="M6760 550 c0 -15 7 -20 25 -20 18 0 25 5 25 20 0 15 -7 20 -25 20
-18 0 -25 -5 -25 -20z"/>
<path d="M6730 510 c0 -5 7 -10 15 -10 8 0 15 5 15 10 0 6 -7 10 -15 10 -8 0
-15 -4 -15 -10z"/>
<path d="M6940 510 c0 -5 5 -10 10 -10 6 0 10 5 10 10 0 6 -4 10 -10 10 -5 0
-10 -4 -10 -10z"/>
<path d="M6981 503 c-12 -13 -12 -16 0 -24 10 -6 10 -9 2 -9 -7 0 -13 -4 -13
-10 0 -20 20 -9 26 15 8 33 2 46 -15 28z"/>
<path d="M4540 560 c0 -5 5 -10 10 -10 6 0 10 5 10 10 0 6 -4 10 -10 10 -5 0
-10 -4 -10 -10z"/>
<path d="M4570 560 c0 -5 5 -10 10 -10 6 0 10 5 10 10 0 6 -4 10 -10 10 -5 0
-10 -4 -10 -10z"/>
<path d="M4600 560 c0 -5 5 -10 10 -10 6 0 10 5 10 10 0 6 -4 10 -10 10 -5 0
-10 -4 -10 -10z"/>
<path d="M4776 554 c-9 -24 -7 -27 9 -10 17 17 19 26 6 26 -5 0 -12 -7 -15
-16z"/>
<path d="M4880 560 c0 -5 5 -10 10 -10 6 0 10 5 10 10 0 6 -4 10 -10 10 -5 0
-10 -4 -10 -10z"/>
<path d="M4670 540 c0 -5 5 -10 10 -10 6 0 10 5 10 10 0 6 -4 10 -10 10 -5 0
-10 -4 -10 -10z"/>
<path d="M3992 500 c0 -14 2 -19 5 -12 2 6 2 18 0 25 -3 6 -5 1 -5 -13z"/>
<path d="M6190 540 c0 -5 5 -10 10 -10 6 0 10 5 10 10 0 6 -4 10 -10 10 -5 0
-10 -4 -10 -10z"/>
<path d="M5560 280 c0 -5 5 -10 10 -10 6 0 10 5 10 10 0 6 -4 10 -10 10 -5 0
-10 -4 -10 -10z"/>
<path d="M5971 324 c0 -11 3 -14 6 -6 3 7 2 16 -1 19 -3 4 -6 -2 -5 -13z"/>
<path d="M5762 290 c0 -14 2 -19 5 -12 2 6 2 18 0 25 -3 6 -5 1 -5 -13z"/>
<path d="M5800 280 c0 -5 5 -10 10 -10 6 0 10 5 10 10 0 6 -4 10 -10 10 -5 0
-10 -4 -10 -10z"/>
<path d="M5850 280 c0 -5 5 -10 10 -10 6 0 10 5 10 10 0 6 -4 10 -10 10 -5 0
-10 -4 -10 -10z"/>
<path d="M5980 280 c0 -5 5 -10 10 -10 6 0 10 5 10 10 0 6 -4 10 -10 10 -5 0
-10 -4 -10 -10z"/>
<path d="M6100 280 c0 -5 7 -10 15 -10 8 0 15 5 15 10 0 6 -7 10 -15 10 -8 0
-15 -4 -15 -10z"/>
<path d="M103 1383 c21 -6 22 -26 2 -43 -22 -18 -18 -30 8 -30 17 0 19 2 8 9
-12 8 -12 12 -2 25 17 20 7 46 -16 45 -17 -1 -17 -2 0 -6z"/>
<path d="M144 1376 c-11 -28 0 -61 21 -61 16 0 20 7 20 35 0 25 -5 36 -18 38
-9 2 -20 -3 -23 -12z m36 -26 c0 -20 -5 -30 -15 -30 -10 0 -15 10 -15 30 0 20
5 30 15 30 10 0 15 -10 15 -30z"/>
<path d="M3653 1383 c21 -6 22 -26 2 -43 -22 -18 -18 -30 8 -30 17 0 19 2 8 9
-12 8 -12 12 -2 25 17 20 7 46 -16 45 -17 -1 -17 -2 0 -6z"/>
<path d="M3694 1376 c-11 -28 0 -61 21 -61 16 0 20 7 20 35 0 25 -5 36 -18 38
-9 2 -20 -3 -23 -12z m36 -26 c0 -20 -5 -30 -15 -30 -10 0 -15 10 -15 30 0 20
5 30 15 30 10 0 15 -10 15 -30z"/>
<path d="M97 1030 c-18 -29 -18 -30 2 -30 12 0 21 -6 21 -12 0 -10 3 -9 9 1 6
9 11 10 15 2 21 -33 54 8 41 50 -9 27 -37 20 -46 -11 l-7 -25 -1 28 c-1 35
-12 34 -34 -3z m78 -10 c0 -13 -6 -25 -12 -27 -9 -3 -13 6 -13 27 0 21 4 30
13 28 6 -3 12 -15 12 -28z m-59 -7 c-10 -10 -19 5 -10 18 6 11 8 11 12 0 2 -7
1 -15 -2 -18z"/>
<path d="M3637 1030 c-18 -29 -18 -30 2 -30 12 0 21 -6 21 -12 0 -10 3 -9 9 1
6 9 11 10 15 2 21 -33 54 8 41 50 -9 27 -37 20 -46 -11 l-7 -25 -1 28 c-1 35
-12 34 -34 -3z m78 -10 c0 -13 -6 -25 -12 -27 -9 -3 -13 6 -13 27 0 21 4 30
13 28 6 -3 12 -15 12 -28z m-59 -7 c-10 -10 -19 5 -10 18 6 11 8 11 12 0 2 -7
1 -15 -2 -18z"/>
<path d="M94 726 c-3 -8 -4 -25 -2 -38 3 -20 9 -23 48 -23 45 0 45 0 45 35 0
26 -5 36 -18 38 -12 2 -20 -3 -24 -16 -3 -14 -11 -18 -24 -15 -24 7 -25 20 -1
26 16 4 16 5 -1 6 -10 0 -20 -5 -23 -13z m86 -26 c0 -20 -5 -30 -15 -30 -10 0
-15 10 -15 30 0 20 5 30 15 30 10 0 15 -10 15 -30z m-58 -15 c0 -5 -5 -11 -11
-13 -6 -2 -11 4 -11 13 0 9 5 15 11 13 6 -2 11 -8 11 -13z"/>
<path d="M3644 726 c-3 -8 -4 -25 -2 -38 3 -20 9 -23 48 -23 45 0 45 0 45 35
0 26 -5 36 -18 38 -12 2 -20 -3 -24 -16 -3 -14 -11 -18 -24 -15 -24 7 -25 20
-1 26 16 4 16 5 -1 6 -10 0 -20 -5 -23 -13z m86 -26 c0 -20 -5 -30 -15 -30
-10 0 -15 10 -15 30 0 20 5 30 15 30 10 0 15 -10 15 -30z m-58 -15 c0 -5 -5
-11 -11 -13 -6 -2 -11 4 -11 13 0 9 5 15 11 13 6 -2 11 -8 11 -13z"/>
<path d="M97 403 c-2 -5 -4 -23 -5 -40 -2 -27 1 -33 18 -33 11 0 20 5 20 10 0
6 8 5 20 -2 17 -11 22 -10 30 2 12 19 12 41 1 59 -12 18 -41 7 -41 -17 0 -18
-18 -42 -32 -42 -4 0 -8 7 -8 16 0 10 6 14 15 10 11 -4 15 1 15 19 0 23 -23
36 -33 18z m23 -13 c0 -5 -4 -10 -10 -10 -5 0 -10 5 -10 10 0 6 5 10 10 10 6
0 10 -4 10 -10z m55 -20 c0 -13 -6 -25 -12 -27 -9 -3 -13 6 -13 27 0 21 4 30
13 28 6 -3 12 -15 12 -28z"/>
<path d="M3647 403 c-2 -5 -4 -23 -5 -40 -2 -27 1 -33 18 -33 11 0 20 5 20 10
0 6 8 5 20 -2 17 -11 22 -10 30 2 12 19 12 41 1 59 -12 18 -41 7 -41 -17 0
-18 -18 -42 -32 -42 -4 0 -8 7 -8 16 0 10 6 14 15 10 11 -4 15 1 15 19 0 23
-23 36 -33 18z m23 -13 c0 -5 -4 -10 -10 -10 -5 0 -10 5 -10 10 0 6 5 10 10
10 6 0 10 -4 10 -10z m55 -20 c0 -13 -6 -25 -12 -27 -9 -3 -13 6 -13 27 0 21
4 30 13 28 6 -3 12 -15 12 -28z"/>
<path d="M267 163 c-11 -10 -8 -61 4 -69 6 -3 16 -1 22 5 9 9 8 11 -5 6 -15
-6 -18 -1 -18 25 0 25 3 31 16 26 8 -3 12 -2 9 4 -7 12 -19 13 -28 3z"/>
<path d="M643 163 c21 -6 22 -26 2 -43 -22 -18 -18 -30 8 -30 17 0 19 2 8 9
-12 8 -12 12 -2 25 17 20 7 46 -16 45 -17 -1 -17 -2 0 -6z"/>
<path d="M680 151 c0 -10 9 -21 20 -24 26 -7 26 -24 0 -30 -17 -4 -17 -4 2 -3
30 1 37 35 9 43 -26 7 -27 20 -3 26 13 4 11 5 -5 6 -16 1 -23 -5 -23 -18z"/>
<path d="M1040 150 c0 -11 7 -20 15 -20 21 0 19 -28 -2 -33 -17 -4 -17 -5 0
-6 25 -1 34 29 14 44 -22 16 -21 22 1 28 13 4 11 5 -5 6 -17 1 -23 -5 -23 -19z"/>
<path d="M1094 156 c-11 -28 0 -61 21 -61 16 0 20 7 20 35 0 25 -5 36 -18 38
-9 2 -20 -3 -23 -12z m36 -26 c0 -20 -5 -30 -15 -30 -10 0 -15 10 -15 30 0 20
5 30 15 30 10 0 15 -10 15 -30z"/>
<path d="M1463 163 c13 -3 16 -10 11 -26 -14 -45 -14 -51 0 -22 21 42 19 55
-6 54 -18 -1 -19 -2 -5 -6z"/>
<path d="M1500 151 c0 -10 9 -21 20 -24 26 -7 26 -24 0 -30 -17 -4 -17 -4 2
-3 30 1 37 35 9 43 -26 7 -27 20 -3 26 13 4 11 5 -5 6 -16 1 -23 -5 -23 -18z"/>
<path d="M1818 163 c6 -2 12 -17 12 -33 0 -16 -6 -31 -12 -33 -7 -3 -4 -6 7
-6 18 -1 20 4 17 39 -3 29 -8 40 -21 39 -10 0 -11 -2 -3 -6z"/>
<path d="M1864 156 c-11 -28 0 -61 21 -61 16 0 20 7 20 35 0 25 -5 36 -18 38
-9 2 -20 -3 -23 -12z m36 -26 c0 -20 -5 -30 -15 -30 -10 0 -15 10 -15 30 0 20
5 30 15 30 10 0 15 -10 15 -30z"/>
<path d="M1925 151 c-9 -30 4 -63 23 -59 12 2 17 14 17 38 0 40 -29 55 -40 21z
m35 -21 c0 -16 -5 -30 -10 -30 -14 0 -24 26 -16 45 10 26 26 16 26 -15z"/>
<path d="M2228 163 c6 -2 12 -17 12 -33 0 -16 -6 -31 -12 -33 -7 -3 -4 -6 7
-6 18 -1 20 4 17 39 -3 29 -8 40 -21 39 -10 0 -11 -2 -3 -6z"/>
<path d="M2288 159 c24 -9 23 -18 -6 -51 -14 -17 -13 -18 14 -17 16 1 21 3 12
6 -16 4 -16 6 -2 28 19 28 11 45 -19 44 -22 0 -22 0 1 -10z"/>
<path d="M2340 150 c0 -11 7 -20 15 -20 21 0 19 -28 -2 -33 -17 -4 -17 -5 0
-6 25 -1 34 29 14 44 -22 16 -21 22 1 28 13 4 11 5 -5 6 -17 1 -23 -5 -23 -19z"/>
<path d="M2628 163 c6 -2 12 -17 12 -33 0 -16 -6 -31 -12 -33 -7 -3 -4 -6 7
-6 18 -1 20 4 17 39 -3 29 -8 40 -21 39 -10 0 -11 -2 -3 -6z"/>
<path d="M2670 151 c0 -10 9 -21 20 -24 26 -7 26 -24 0 -30 -17 -4 -17 -4 2
-3 30 1 37 35 9 43 -26 7 -27 20 -3 26 13 4 11 5 -5 6 -16 1 -23 -5 -23 -18z"/>
<path d="M2745 161 c-3 -7 0 -8 9 -5 13 5 16 -1 16 -26 0 -26 -3 -31 -17 -25
-15 5 -16 4 -5 -6 17 -18 34 2 30 37 -3 29 -21 43 -33 25z"/>
<path d="M3038 163 c6 -2 12 -17 12 -33 0 -16 -6 -31 -12 -33 -7 -3 -4 -6 7
-6 18 -1 20 4 17 39 -3 29 -8 40 -21 39 -10 0 -11 -2 -3 -6z"/>
<path d="M3093 163 c20 -5 21 -12 6 -50 -5 -15 -6 -23 -1 -18 5 6 14 25 20 43
11 31 10 32 -16 31 -17 -1 -20 -3 -9 -6z"/>
<path d="M3150 150 c0 -11 7 -20 15 -20 21 0 19 -28 -2 -33 -17 -4 -17 -5 0
-6 25 -1 34 29 14 44 -22 16 -21 22 1 28 13 4 11 5 -5 6 -17 1 -23 -5 -23 -19z"/>
<path d="M3817 163 c-11 -10 -8 -61 4 -69 6 -3 16 -1 22 5 9 9 8 11 -5 6 -15
-6 -18 -1 -18 25 0 25 3 31 16 26 8 -3 12 -2 9 4 -7 12 -19 13 -28 3z"/>
<path d="M4193 163 c21 -6 22 -26 2 -43 -22 -18 -18 -30 8 -30 17 0 19 2 8 9
-12 8 -12 12 -2 25 17 20 7 46 -16 45 -17 -1 -17 -2 0 -6z"/>
<path d="M4230 151 c0 -10 9 -21 20 -24 26 -7 26 -24 0 -30 -17 -4 -17 -4 2
-3 30 1 37 35 9 43 -26 7 -27 20 -3 26 13 4 11 5 -5 6 -16 1 -23 -5 -23 -18z"/>
<path d="M4590 150 c0 -11 7 -20 15 -20 21 0 19 -28 -2 -33 -17 -4 -17 -5 0
-6 25 -1 34 29 14 44 -22 16 -21 22 1 28 13 4 11 5 -5 6 -17 1 -23 -5 -23 -19z"/>
<path d="M4644 156 c-11 -28 0 -61 21 -61 16 0 20 7 20 35 0 25 -5 36 -18 38
-9 2 -20 -3 -23 -12z m36 -26 c0 -20 -5 -30 -15 -30 -10 0 -15 10 -15 30 0 20
5 30 15 30 10 0 15 -10 15 -30z"/>
<path d="M5003 163 c13 -3 16 -10 11 -26 -14 -45 -14 -51 0 -22 21 42 19 55
-6 54 -18 -1 -19 -2 -5 -6z"/>
<path d="M5040 151 c0 -10 9 -21 20 -24 26 -7 26 -24 0 -30 -17 -4 -17 -4 2
-3 30 1 37 35 9 43 -26 7 -27 20 -3 26 13 4 11 5 -5 6 -16 1 -23 -5 -23 -18z"/>
<path d="M5368 163 c6 -2 12 -17 12 -33 0 -16 -6 -31 -12 -33 -7 -3 -4 -6 7
-6 18 -1 20 4 17 39 -3 29 -8 40 -21 39 -10 0 -11 -2 -3 -6z"/>
<path d="M5414 156 c-11 -28 0 -61 21 -61 16 0 20 7 20 35 0 25 -5 36 -18 38
-9 2 -20 -3 -23 -12z m36 -26 c0 -20 -5 -30 -15 -30 -10 0 -15 10 -15 30 0 20
5 30 15 30 10 0 15 -10 15 -30z"/>
<path d="M5475 151 c-9 -30 4 -63 23 -59 12 2 17 14 17 38 0 40 -29 55 -40 21z
m35 -21 c0 -31 -16 -41 -26 -15 -8 19 2 45 16 45 5 0 10 -13 10 -30z"/>
<path d="M5768 163 c6 -2 12 -17 12 -33 0 -16 -6 -31 -12 -33 -7 -3 -4 -6 7
-6 18 -1 20 4 17 39 -3 29 -8 40 -21 39 -10 0 -11 -2 -3 -6z"/>
<path d="M5828 159 c24 -9 23 -18 -6 -51 -14 -17 -13 -18 14 -17 16 1 21 3 12
6 -16 4 -16 6 -2 28 19 28 11 45 -19 44 -22 0 -22 0 1 -10z"/>
<path d="M5880 150 c0 -11 7 -20 15 -20 21 0 19 -28 -2 -33 -17 -4 -17 -5 0
-6 25 -1 34 29 14 44 -22 16 -21 22 1 28 13 4 11 5 -5 6 -17 1 -23 -5 -23 -19z"/>
<path d="M6178 163 c6 -2 12 -17 12 -33 0 -16 -6 -31 -12 -33 -7 -3 -4 -6 7
-6 18 -1 20 4 17 39 -3 29 -8 40 -21 39 -10 0 -11 -2 -3 -6z"/>
<path d="M6220 151 c0 -10 9 -21 20 -24 26 -7 26 -24 0 -30 -17 -4 -17 -4 2
-3 30 1 37 35 9 43 -26 7 -27 20 -3 26 13 4 11 5 -5 6 -16 1 -23 -5 -23 -18z"/>
<path d="M6295 161 c-3 -7 0 -8 9 -5 13 5 16 -1 16 -26 0 -26 -3 -31 -17 -25
-15 5 -16 4 -5 -6 17 -18 34 2 30 37 -3 29 -21 43 -33 25z"/>
<path d="M6578 163 c6 -2 12 -17 12 -33 0 -16 -6 -31 -12 -33 -7 -3 -4 -6 7
-6 18 -1 20 4 17 39 -3 29 -8 40 -21 39 -10 0 -11 -2 -3 -6z"/>
<path d="M6633 163 c20 -5 21 -12 6 -50 -5 -15 -6 -23 -1 -18 5 6 14 25 20 43
11 31 10 32 -16 31 -17 -1 -20 -3 -9 -6z"/>
<path d="M6690 150 c0 -11 7 -20 15 -20 21 0 19 -28 -2 -33 -17 -4 -17 -5 0
-6 25 -1 34 29 14 44 -22 16 -21 22 1 28 13 4 11 5 -5 6 -17 1 -23 -5 -23 -19z"/>
</g>
</svg>
