<?xml version="1.0" standalone="no"?>
<!DOCTYPE svg PUBLIC "-//W3C//DTD SVG 20010904//EN"
 "http://www.w3.org/TR/2001/REC-SVG-20010904/DTD/svg10.dtd">
<svg version="1.0" xmlns="http://www.w3.org/2000/svg"
 width="1000.000000pt" height="496.000000pt" viewBox="0 0 1000.000000 496.000000"
 preserveAspectRatio="xMidYMid meet">

<g transform="translate(0.000000,496.000000) scale(0.100000,-0.100000)"
fill="#000000" stroke="none">
<path d="M5270 4871 c0 -14 -5 -18 -19 -14 -13 3 -21 -2 -25 -15 -10 -30 3
-52 30 -50 22 2 24 7 24 50 0 26 -2 48 -5 48 -3 0 -5 -9 -5 -19z m-3 -37 c8
-21 -13 -42 -28 -27 -13 13 -5 43 11 43 6 0 13 -7 17 -16z"/>
<path d="M5610 4876 c0 -8 -10 -16 -22 -18 -18 -2 -23 -10 -23 -33 0 -25 4
-30 28 -33 26 -3 27 -2 27 47 0 28 -2 51 -5 51 -3 0 -5 -6 -5 -14z m-7 -39 c3
-8 1 -20 -4 -28 -11 -19 -34 3 -26 25 8 20 23 21 30 3z"/>
<path d="M4741 4833 c1 -27 4 -38 6 -26 2 13 13 24 26 26 l22 4 -22 2 c-13 0
-23 7 -23 15 0 8 10 17 23 19 19 4 18 4 -5 6 -27 1 -28 -1 -27 -46z"/>
<path d="M4811 4842 c-7 -14 -7 -24 3 -37 19 -27 48 -12 44 22 -4 33 -32 42
-47 15z m39 -17 c0 -16 -6 -25 -15 -25 -9 0 -15 9 -15 25 0 16 6 25 15 25 9 0
15 -9 15 -25z"/>
<path d="M4881 4820 c1 -27 3 -29 6 -10 2 14 11 30 20 37 13 10 13 12 -6 10
-17 -1 -21 -7 -20 -37z"/>
<path d="M4931 4821 c1 -35 2 -35 8 -7 9 41 31 46 31 7 0 -17 5 -31 10 -31 6
0 10 14 10 31 0 39 22 34 31 -7 6 -27 7 -27 8 -4 1 38 -10 48 -56 47 -43 -1
-43 -1 -42 -36z"/>
<path d="M5070 4848 c25 -11 25 -11 3 -15 -34 -6 -31 -43 2 -41 22 2 26 7 23
33 -2 24 -8 30 -28 32 l-25 3 25 -12z m15 -38 c-3 -5 -10 -10 -16 -10 -5 0 -9
5 -9 10 0 6 7 10 16 10 8 0 12 -4 9 -10z"/>
<path d="M5125 4850 c-8 -14 3 -30 21 -30 20 0 18 -18 -3 -23 -15 -3 -14 -4 1
-3 27 1 32 26 7 33 -26 7 -27 20 -3 26 15 4 15 5 0 6 -9 0 -20 -3 -23 -9z"/>
<path d="M5304 4846 c-11 -28 1 -51 26 -53 l25 -3 -25 12 -25 12 28 4 c21 2
27 8 23 19 -3 8 -6 17 -6 19 0 11 -41 2 -46 -10z m41 -6 c3 -5 -3 -10 -15 -10
-12 0 -18 5 -15 10 3 6 10 10 15 10 5 0 12 -4 15 -10z"/>
<path d="M5414 4846 c-11 -29 0 -51 26 -51 21 0 25 5 25 30 0 24 -5 31 -23 33
-13 2 -24 -3 -28 -12z m43 -12 c8 -21 -13 -42 -28 -27 -13 13 -5 43 11 43 6 0
13 -7 17 -16z"/>
<path d="M5491 4821 c1 -35 2 -35 8 -7 9 42 29 44 34 4 l5 -33 -2 35 c-1 29
-5 35 -23 36 -20 1 -23 -3 -22 -35z"/>
<path d="M5658 4853 c27 -6 29 -19 2 -26 -25 -6 -27 -37 -2 -36 10 0 12 3 5 6
-18 7 -16 23 1 23 8 0 17 -8 20 -17 2 -10 4 -2 3 17 -2 30 -6 35 -27 37 -22 1
-22 1 -2 -4z"/>
<path d="M530 4666 c0 -50 -4 -76 -12 -79 -10 -4 -10 -6 0 -6 9 -1 12 -51 12
-215 0 -162 -3 -216 -12 -219 -10 -4 -10 -6 0 -6 18 -1 18 -437 0 -444 -10 -4
-10 -6 0 -6 18 -1 18 -427 0 -434 -10 -4 -10 -6 0 -6 18 -1 18 -427 0 -434
-10 -4 -10 -6 0 -6 8 -1 12 -23 12 -76 l0 -75 209 0 c191 0 210 -2 214 -17 4
-17 5 -17 6 0 1 16 42 17 705 17 663 0 705 -1 709 -17 4 -17 5 -17 6 0 1 16
42 17 710 17 667 0 710 -1 714 -17 4 -17 5 -17 6 0 1 16 42 17 705 17 663 0
705 -1 709 -17 4 -17 5 -17 6 0 1 16 42 17 705 17 663 0 705 -1 709 -17 4 -17
5 -17 6 0 1 16 42 17 710 17 667 0 710 -1 714 -17 4 -17 5 -17 6 0 1 16 42 17
705 17 663 0 705 -1 709 -17 4 -17 5 -17 6 0 1 16 18 17 206 17 l205 0 0 1040
0 1040 -4690 0 -4690 0 0 -74z m9370 -966 l0 -1030 -4680 0 -4680 0 0 1030 0
1030 4680 0 4680 0 0 -1030z"/>
<path d="M2532 4623 c-16 -41 -29 -226 -57 -808 -36 -759 -48 -953 -63 -1000
-14 -47 -23 96 -34 593 -6 287 -15 522 -20 522 -4 0 -8 -4 -8 -9 0 -5 -13
-101 -30 -215 -31 -213 -47 -293 -61 -301 -10 -7 -34 109 -59 290 -34 247 -52
325 -74 325 -31 0 -39 -57 -52 -370 -12 -289 -24 -465 -40 -579 -17 -113 -34
36 -69 584 -29 467 -42 621 -57 698 -9 50 -13 56 -25 45 -20 -20 -30 -99 -50
-386 l-18 -257 -6 120 c-4 66 -7 206 -8 311 -1 143 -4 195 -15 209 -12 17 -14
16 -24 -16 -15 -47 -28 -192 -57 -649 -36 -560 -51 -715 -65 -689 -13 23 -28
198 -55 619 -36 566 -49 710 -66 710 -5 0 -9 -146 -9 -333 0 -313 -10 -820
-16 -814 -1 1 -14 187 -29 412 -26 413 -50 701 -61 743 -4 12 -12 22 -19 22
-25 0 -37 -116 -80 -780 -27 -413 -43 -592 -55 -585 -4 2 -10 307 -14 677 -8
758 -18 936 -50 925 -23 -8 -36 -171 -71 -907 -26 -539 -41 -798 -52 -884 -16
-131 -32 50 -68 814 -28 598 -35 710 -44 710 -3 0 -3 -60 1 -132 4 -73 19
-371 33 -663 31 -644 45 -815 66 -815 24 0 38 153 64 673 38 768 46 929 55
1032 5 61 10 117 10 125 1 13 2 13 9 0 19 -32 30 -339 35 -936 3 -342 9 -629
12 -638 10 -26 23 -18 33 22 14 52 26 203 56 662 33 516 48 680 62 667 12 -13
35 -271 63 -727 16 -255 39 -562 45 -588 18 -76 24 41 25 486 1 273 5 531 10
572 4 41 8 61 9 44 0 -17 12 -206 26 -420 35 -536 49 -699 66 -725 30 -49 48
91 84 656 26 413 41 601 52 670 l7 40 7 -40 c5 -22 9 -168 10 -325 1 -157 4
-343 8 -415 8 -164 14 -126 36 235 16 258 30 432 41 504 17 106 34 -41 69
-594 30 -467 42 -616 56 -688 12 -58 28 -64 41 -16 14 50 38 369 48 639 10
259 15 311 30 320 15 9 30 -58 65 -293 36 -247 49 -307 66 -318 25 -15 42 43
73 251 13 86 25 158 28 160 3 3 8 -180 11 -407 6 -362 17 -571 33 -617 3 -10
8 -10 18 -2 21 18 34 192 71 961 27 561 41 797 52 845 l6 30 8 -35 c10 -46 35
-467 62 -1058 14 -289 26 -471 32 -470 5 2 10 58 10 133 3 644 6 848 10 843 3
-3 14 -187 25 -409 31 -637 46 -828 66 -848 9 -10 22 20 28 68 11 86 26 333
51 866 42 900 59 1059 80 767 7 -95 9 -103 26 -99 10 3 21 2 23 -2 8 -12 34
-333 51 -611 34 -560 54 -755 78 -747 25 8 38 120 72 652 31 491 45 656 56
675 7 12 8 11 9 -6 0 -12 4 -66 10 -120 5 -55 21 -281 35 -504 27 -437 50
-679 64 -693 24 -24 32 13 55 243 3 30 17 235 31 455 37 577 46 668 69 659 14
-6 12 26 51 -774 32 -666 46 -835 68 -827 6 2 14 16 19 33 11 42 35 418 58
919 30 654 46 893 61 878 10 -10 27 -251 35 -495 3 -98 10 -178 15 -178 5 0 9
10 9 23 0 13 6 32 14 42 13 18 14 18 19 -1 11 -39 28 -133 52 -300 37 -259 53
-317 80 -294 7 6 18 30 24 54 22 90 73 455 77 556 11 282 26 539 33 570 l8 35
6 -40 c17 -106 22 -191 62 -1030 30 -617 43 -775 65 -775 18 0 27 59 40 250
12 176 60 1166 60 1231 0 25 4 39 9 34 5 -6 21 -269 35 -585 34 -715 46 -888
66 -920 5 -8 12 -12 15 -8 19 19 35 245 70 983 27 571 42 806 55 839 8 22 12
-2 26 -149 3 -38 10 -74 14 -80 7 -9 21 -124 35 -300 3 -33 14 -206 25 -385
31 -503 48 -670 70 -670 29 0 38 87 85 815 21 329 40 543 49 552 1 1 7 -1 14
-6 18 -11 29 -121 62 -630 40 -614 51 -720 77 -728 25 -9 40 132 78 737 28
433 43 611 55 623 4 5 11 -78 14 -185 15 -416 64 -1115 82 -1163 9 -23 27 -13
35 19 11 40 36 341 59 716 21 336 35 516 46 584 5 30 8 36 15 23 9 -16 39
-317 39 -394 0 -32 4 -43 15 -43 16 0 19 5 29 53 4 15 10 27 15 27 13 0 26
-69 62 -309 34 -230 45 -286 64 -301 29 -24 42 25 85 319 16 113 33 207 38
210 5 3 16 100 25 214 17 212 29 271 40 206 11 -59 26 -243 52 -659 38 -585
54 -720 84 -671 5 7 14 53 20 101 15 119 58 798 66 1053 4 115 11 205 15 200
12 -12 27 -180 55 -608 39 -618 53 -755 75 -755 29 0 40 106 85 805 27 415 40
545 54 554 5 3 12 54 16 112 3 58 10 111 15 118 15 26 30 -181 65 -919 34
-720 47 -885 69 -907 27 -27 39 123 81 997 15 294 28 536 30 538 5 6 15 -160
40 -698 35 -742 49 -881 80 -831 17 28 34 277 65 946 11 242 27 537 35 655 8
118 15 219 15 224 0 6 3 6 9 0 12 -11 29 -238 37 -486 3 -104 10 -188 15 -188
5 0 9 6 9 14 0 8 5 27 11 43 20 52 26 27 85 -362 28 -188 45 -245 68 -226 20
17 32 71 66 307 17 114 35 213 40 219 5 6 14 75 20 155 11 153 27 291 35 298
13 14 29 -153 60 -643 34 -537 48 -687 65 -715 32 -51 47 73 85 665 9 132 20
244 25 249 6 6 10 33 10 61 0 61 29 378 36 384 2 2 6 2 8 0 10 -10 27 -210 51
-574 38 -587 55 -778 71 -794 10 -10 27 20 34 61 5 24 16 144 25 268 9 124 20
257 24 295 l8 70 2 -97 c2 -196 46 -280 80 -153 5 22 24 133 40 246 35 235 49
309 61 309 13 0 28 -76 64 -326 27 -188 36 -286 41 -457 6 -232 21 -421 34
-444 16 -29 29 13 40 127 16 182 20 245 46 800 29 606 43 838 54 877 l8 28 6
-35 c12 -66 26 -305 52 -890 28 -618 30 -654 46 -645 5 4 9 193 9 483 1 512
14 1008 28 1057 9 30 9 30 15 -15 12 -81 26 -316 52 -855 14 -291 30 -600 36
-685 24 -353 54 -349 78 10 12 180 61 1173 61 1239 0 23 4 41 9 41 13 0 15
-29 66 -810 25 -376 39 -490 62 -497 25 -9 38 115 78 747 36 570 48 666 73
599 5 -13 21 -280 36 -594 37 -772 51 -973 71 -993 29 -30 42 113 80 918 42
904 60 1073 80 781 7 -95 9 -102 27 -98 11 3 21 0 23 -6 10 -28 26 -228 50
-602 29 -456 42 -617 55 -694 11 -59 14 -66 28 -57 23 14 34 134 77 801 14
215 30 423 35 463 13 93 13 113 1 92 -12 -21 -27 -192 -56 -645 -25 -393 -41
-591 -52 -655 -16 -90 -33 67 -68 615 -38 592 -53 735 -76 735 -5 0 -9 -5 -9
-11 0 -5 -4 -7 -10 -4 -5 3 -10 30 -10 58 0 53 -17 178 -26 186 -13 13 -24
-23 -33 -104 -13 -115 -26 -333 -51 -870 -20 -428 -35 -682 -47 -804 -16 -162
-33 32 -68 759 -37 770 -35 742 -57 769 -10 13 -21 22 -23 19 -18 -18 -36
-199 -70 -738 -35 -543 -52 -700 -68 -610 -11 64 -27 261 -52 660 -26 399 -42
601 -51 633 -3 9 -11 17 -18 17 -15 0 -12 34 -51 -770 -27 -564 -42 -780 -56
-794 -5 -6 -9 0 -9 15 0 13 -4 74 -10 134 -5 61 -21 346 -35 635 -32 663 -43
866 -56 960 -8 67 -21 101 -33 89 -18 -18 -29 -220 -36 -702 -4 -301 -9 -550
-12 -552 -2 -2 -12 170 -22 383 -28 629 -45 855 -66 875 -27 28 -40 -126 -75
-853 -36 -757 -51 -980 -65 -980 -12 0 -18 82 -30 385 -8 194 -19 331 -36 445
-50 339 -63 394 -92 376 -18 -11 -29 -63 -62 -291 -33 -222 -45 -289 -59 -314
-18 -31 -31 66 -37 269 -5 194 -10 257 -19 248 -2 -2 -13 -147 -25 -323 -23
-358 -38 -528 -50 -559 -7 -19 -8 -18 -14 9 -8 41 -32 346 -51 655 -21 347
-44 617 -56 663 -8 30 -13 36 -23 28 -15 -13 -30 -123 -46 -329 -6 -73 -15
-142 -19 -155 -5 -12 -15 -114 -21 -227 -12 -221 -35 -530 -46 -610 -18 -135
-34 8 -74 640 -32 507 -50 690 -70 690 -21 0 -40 -125 -56 -360 -3 -58 -11
-110 -16 -116 -5 -7 -22 -103 -38 -215 -33 -224 -49 -307 -61 -315 -13 -7 -26
57 -59 280 -37 247 -47 298 -65 322 -10 15 -16 16 -27 6 -13 -10 -16 15 -22
191 -7 203 -21 385 -32 420 -11 33 -29 11 -36 -44 -13 -104 -28 -358 -53 -879
-27 -566 -42 -815 -54 -870 l-8 -35 -6 40 c-11 68 -26 309 -52 855 -29 633
-33 680 -50 680 -15 0 -17 -25 -50 -730 -28 -579 -43 -808 -56 -830 -7 -12 -8
-11 -9 5 0 11 -5 64 -10 117 -5 53 -21 332 -35 620 -32 678 -43 862 -56 978
-10 88 -21 122 -34 108 -9 -9 -25 -119 -25 -170 0 -26 -6 -67 -14 -90 -19 -56
-30 -180 -61 -658 -25 -396 -41 -595 -52 -659 -16 -93 -32 51 -68 609 -34 539
-51 720 -70 738 -20 20 -33 -73 -34 -233 -2 -290 -62 -1118 -82 -1139 -6 -6
-9 -4 -9 5 0 8 -4 50 -10 94 -5 44 -19 220 -30 390 -46 715 -59 858 -80 879
-21 22 -42 -99 -55 -324 -4 -58 -13 -123 -20 -145 -8 -22 -28 -134 -44 -250
-17 -115 -36 -228 -42 -250 l-12 -40 -13 31 c-7 17 -29 140 -49 273 -37 245
-52 312 -73 319 -7 2 -19 -11 -26 -30 -19 -43 -23 -29 -31 102 -13 223 -33
336 -56 313 -16 -16 -36 -229 -64 -658 -47 -739 -60 -828 -84 -589 -17 165
-51 713 -60 975 -5 136 -13 254 -19 264 -9 17 -10 17 -20 -1 -16 -31 -30 -169
-52 -504 -41 -647 -56 -824 -70 -849 -14 -26 -31 144 -65 689 -34 535 -42 607
-68 649 l-21 35 -12 -30 c-15 -36 -36 -275 -64 -729 -20 -320 -34 -493 -47
-584 -15 -114 -33 33 -68 589 -36 561 -45 670 -65 715 -4 11 -13 74 -19 140
-7 65 -14 122 -17 125 -13 13 -32 -36 -38 -98 -12 -131 -26 -383 -46 -807 -21
-458 -24 -514 -41 -755 -18 -251 -28 -230 -49 95 -11 177 -60 1171 -60 1232 0
44 -14 73 -28 58 -6 -6 -24 -307 -41 -670 -18 -363 -36 -703 -41 -755 -5 -52
-10 -106 -10 -119 0 -15 -4 -21 -9 -15 -13 13 -28 234 -56 819 -39 815 -51
985 -74 1008 -6 6 -13 9 -15 6 -11 -11 -28 -211 -37 -449 -9 -253 -42 -553
-81 -728 -24 -110 -33 -80 -83 253 -42 279 -58 328 -92 294 -7 -7 -12 51 -17
193 -7 205 -21 386 -32 421 -10 31 -29 13 -35 -34 -13 -87 -30 -362 -54 -884
-46 -960 -59 -1070 -84 -705 -6 91 -22 399 -36 685 -31 658 -33 675 -55 705
l-19 25 -9 -25 c-16 -41 -31 -204 -57 -620 -26 -409 -52 -720 -60 -728 -3 -3
-7 -3 -10 -1 -9 10 -26 200 -55 654 -17 259 -35 508 -40 555 -6 47 -10 93 -10
103 0 9 -6 17 -14 17 -8 0 -17 -8 -20 -17 -10 -33 -25 -226 -51 -628 -24 -383
-38 -558 -52 -654 -15 -113 -32 34 -68 594 -36 577 -49 703 -71 732 -8 11 -13
13 -14 6 0 -7 -4 -13 -10 -13 -5 0 -10 24 -10 53 0 56 -17 188 -25 196 -3 2
-10 0 -15 -5 -21 -21 -36 -222 -70 -959 -29 -623 -47 -882 -61 -868 -11 13
-27 244 -54 803 -35 727 -37 760 -46 760 -5 0 -10 -141 -10 -312 -1 -295 -13
-738 -17 -637 -9 218 -44 902 -53 1014 -9 124 -23 215 -33 215 -2 0 -8 -12
-14 -27z"/>
<path d="M417 4590 c-18 -29 -18 -30 2 -30 12 0 21 -6 21 -12 0 -10 2 -10 8 0
9 14 3 72 -7 72 -4 0 -15 -13 -24 -30z m19 -17 c-10 -10 -19 5 -10 18 6 11 8
11 12 0 2 -7 1 -15 -2 -18z"/>
<path d="M423 4173 c21 -6 22 -26 2 -43 -22 -18 -18 -30 8 -30 17 0 19 2 8 9
-12 8 -12 12 -2 25 17 20 7 46 -16 45 -17 -1 -17 -2 0 -6z"/>
<path d="M180 4093 c0 -14 2 -15 9 -5 7 11 9 11 14 -2 9 -23 37 -20 37 4 0 11
-4 20 -10 20 -5 0 -7 -7 -4 -15 4 -8 1 -15 -5 -15 -6 0 -11 7 -11 15 0 8 -7
15 -15 15 -8 0 -15 -8 -15 -17z"/>
<path d="M168 4043 c6 -2 12 -11 12 -18 0 -16 25 -26 45 -19 8 4 15 15 15 25
0 16 -7 19 -42 18 -24 0 -37 -3 -30 -6z m60 -15 c-3 -7 -11 -13 -18 -13 -7 0
-15 6 -17 13 -3 7 4 12 17 12 13 0 20 -5 18 -12z"/>
<path d="M193 3983 c9 -2 25 -2 35 0 9 3 1 5 -18 5 -19 0 -27 -2 -17 -5z"/>
<path d="M178 3958 c-9 -22 -3 -25 32 -20 20 3 30 10 29 21 0 10 -2 11 -6 4
-6 -16 -40 -17 -45 -1 -3 8 -6 6 -10 -4z"/>
<path d="M193 3913 c9 -2 25 -2 35 0 9 3 1 5 -18 5 -19 0 -27 -2 -17 -5z"/>
<path d="M182 3855 c0 -19 4 -35 9 -35 4 0 6 6 3 14 -4 10 3 16 23 19 l28 4
-27 2 c-29 1 -38 15 -15 24 7 4 6 6 -4 6 -13 1 -17 -8 -17 -34z"/>
<path d="M181 3788 c-1 -25 20 -33 32 -12 10 17 11 17 18 -1 6 -16 8 -17 8 -3
1 25 -20 33 -32 12 -10 -17 -11 -17 -18 1 -6 16 -8 17 -8 3z"/>
<path d="M180 3720 c0 -16 6 -20 33 -19 31 2 31 2 4 6 -20 3 -27 9 -23 19 3 8
1 14 -4 14 -6 0 -10 -9 -10 -20z"/>
<path d="M417 3723 c-11 -10 -8 -61 4 -69 6 -3 16 -1 22 5 9 9 8 11 -5 6 -15
-6 -18 -1 -18 25 0 25 3 31 16 26 8 -3 12 -2 9 4 -7 12 -19 13 -28 3z"/>
<path d="M187 3673 c-4 -3 -7 -13 -6 -22 0 -12 3 -11 9 4 7 17 9 17 9 3 1 -26
41 -24 41 2 0 14 -7 20 -23 20 -13 0 -27 -3 -30 -7z m43 -13 c0 -5 -4 -10 -10
-10 -5 0 -10 5 -10 10 0 6 5 10 10 10 6 0 10 -4 10 -10z"/>
<path d="M180 3618 c0 -14 8 -18 33 -17 27 2 28 2 7 6 -14 3 -28 10 -32 17 -5
7 -8 5 -8 -6z"/>
<path d="M174 3571 c-2 -2 -2 -7 1 -11 5 -8 65 0 65 9 0 6 -59 9 -66 2z"/>
<path d="M178 3503 c12 -2 32 -2 45 0 12 2 2 4 -23 4 -25 0 -35 -2 -22 -4z"/>
<path d="M187 3473 c-4 -3 -7 -13 -6 -22 0 -12 3 -11 9 4 7 16 9 16 9 4 1 -18
25 -32 35 -22 3 4 6 15 6 25 0 12 -7 18 -23 18 -13 0 -27 -3 -30 -7z m43 -19
c0 -8 -4 -12 -10 -9 -5 3 -10 10 -10 16 0 5 5 9 10 9 6 0 10 -7 10 -16z"/>
<path d="M187 3413 c-4 -3 -7 -15 -7 -25 0 -14 7 -18 33 -17 29 1 29 2 8 8
-35 9 -37 29 -4 34 27 4 28 4 2 6 -14 0 -29 -2 -32 -6z"/>
<path d="M161 3394 c0 -11 3 -14 6 -6 3 7 2 16 -1 19 -3 4 -6 -2 -5 -13z"/>
<path d="M183 3344 c-3 -8 -1 -20 5 -26 14 -14 47 -6 48 12 0 9 -1 10 -3 3 -7
-20 -23 -15 -23 7 0 24 -18 27 -27 4z m14 -16 c-3 -8 -6 -5 -6 6 -1 11 2 17 5
13 3 -3 4 -12 1 -19z"/>
<path d="M198 3281 c-15 -24 -25 -27 -31 -8 -2 7 -3 6 -3 -3 2 -24 32 -23 43
2 l11 23 11 -25 11 -25 -3 24 c-3 32 -23 38 -39 12z"/>
<path d="M408 3279 c24 -9 23 -18 -6 -51 -14 -17 -13 -18 14 -17 16 1 21 3 12
6 -16 4 -16 6 -2 28 19 28 11 45 -19 44 -22 0 -22 0 1 -10z"/>
<path d="M333 3243 c9 -2 25 -2 35 0 9 3 1 5 -18 5 -19 0 -27 -2 -17 -5z"/>
<path d="M407 2830 c-21 -30 -22 -40 -3 -40 8 0 16 -5 18 -12 8 -22 14 16 8
47 l-5 30 -18 -25z m13 -15 c0 -8 -4 -15 -10 -15 -5 0 -7 7 -4 15 4 8 8 15 10
15 2 0 4 -7 4 -15z"/>
<path d="M333 2803 c9 -2 25 -2 35 0 9 3 1 5 -18 5 -19 0 -27 -2 -17 -5z"/>
<path d="M530 2376 c0 -82 -4 -116 -12 -119 -10 -4 -10 -6 0 -6 9 -1 12 -33
12 -125 0 -90 -3 -126 -12 -129 -10 -4 -10 -6 0 -6 17 -1 17 -247 0 -254 -10
-4 -10 -6 0 -6 17 -1 17 -257 0 -264 -10 -4 -10 -6 0 -6 17 -1 17 -247 0 -254
-10 -4 -10 -6 0 -6 17 -1 17 -257 0 -264 -10 -4 -10 -6 0 -6 17 -1 17 -247 0
-254 -10 -4 -10 -6 0 -6 9 -1 12 -34 12 -131 l0 -130 209 0 c191 0 210 -2 214
-17 4 -17 5 -17 6 0 1 16 42 17 705 17 663 0 705 -1 709 -17 4 -17 5 -17 6 0
1 16 42 17 710 17 667 0 710 -1 714 -17 4 -17 5 -17 6 0 1 16 42 17 705 17
663 0 705 -1 709 -17 4 -17 5 -17 6 0 1 16 42 17 705 17 663 0 705 -1 709 -17
4 -17 5 -17 6 0 1 16 42 17 710 17 667 0 710 -1 714 -17 4 -17 5 -17 6 0 1 16
42 17 705 17 663 0 705 -1 709 -17 4 -17 5 -17 6 0 1 16 18 17 206 17 l205 0
0 1040 0 1040 -4690 0 -4690 0 0 -114z m9370 -926 l0 -1030 -4680 0 -4680 0 0
1030 0 1030 4680 0 4680 0 0 -1030z"/>
<path d="M7957 2273 c-4 -71 -8 -225 -9 -343 l-2 -215 -7 230 c-7 262 -6 248
-18 241 -4 -3 -11 -166 -15 -363 -4 -197 -11 -385 -16 -418 l-7 -60 -2 78 c-1
57 -4 78 -13 75 -7 -3 -15 -15 -19 -29 -5 -15 -7 -1 -8 41 -1 75 -9 112 -22
104 -5 -3 -9 58 -9 140 0 154 -13 194 -24 77 -4 -38 -11 -71 -16 -73 -5 -2
-12 -68 -16 -148 -4 -80 -11 -148 -16 -151 -4 -3 -13 -78 -20 -167 -6 -89 -12
-161 -14 -159 -1 1 -7 65 -14 142 -10 135 -29 204 -31 120 -3 -100 -17 -94
-18 7 -1 83 -4 109 -16 115 -12 7 -15 58 -17 328 -2 205 -7 320 -13 320 -6 0
-13 -44 -16 -100 -8 -138 -22 -245 -27 -215 -2 14 -8 28 -13 31 -5 3 -12 33
-15 67 -4 34 -11 62 -15 62 -5 0 -9 -36 -9 -80 0 -60 -3 -80 -13 -80 -11 0
-15 -39 -21 -177 -7 -206 -22 -354 -42 -434 -8 -30 -15 -93 -16 -140 -1 -67
-2 -72 -5 -24 -5 114 -15 185 -24 185 -5 0 -10 -10 -10 -22 -5 -76 -18 179
-25 485 -4 196 -10 357 -14 357 -11 0 -20 -118 -21 -265 0 -71 -2 -125 -4
-120 -2 6 -6 23 -10 39 -7 32 -21 25 -28 -14 -2 -14 -5 9 -6 51 -2 116 -13
229 -22 229 -5 0 -9 -55 -9 -122 0 -68 -5 -130 -10 -138 -7 -11 -10 -7 -10 18
0 57 -18 34 -24 -30 -11 -121 -13 -122 -15 -6 -1 103 -9 145 -24 121 -3 -5
-10 -66 -16 -138 -10 -117 -23 -228 -38 -325 -3 -19 -8 -29 -10 -22 -9 24 -23
12 -23 -20 0 -51 -18 -20 -24 42 -3 30 -11 115 -17 188 -7 72 -16 132 -20 132
-5 0 -10 -17 -10 -37 -1 -38 -1 -38 -9 -8 l-7 30 -16 -35 c-18 -41 -23 -32
-32 60 -19 212 -24 303 -24 462 -1 97 -5 179 -10 182 -15 9 -21 -21 -21 -103
0 -161 -21 -395 -36 -407 -11 -9 -17 -59 -26 -215 -7 -135 -15 -207 -23 -215
-8 -9 -15 -69 -20 -181 -7 -165 -21 -324 -24 -271 0 14 -5 28 -10 30 -5 2 -15
102 -21 223 -7 121 -16 225 -21 231 -5 6 -12 63 -16 125 -3 63 -9 119 -13 124
-4 6 -11 52 -15 103 -4 50 -10 92 -15 92 -9 0 -20 -151 -20 -271 0 -71 -3 -90
-16 -97 -12 -7 -18 -29 -22 -83 -2 -41 -9 -77 -14 -80 -5 -3 -12 -144 -15
-312 -3 -169 -10 -307 -15 -307 -4 0 -8 42 -8 93 0 172 -13 457 -21 457 -4 0
-9 -17 -11 -37 -2 -21 -7 68 -11 197 -9 252 -11 270 -32 270 -10 0 -15 -17
-18 -57 -2 -40 -4 -28 -5 38 -3 133 -13 249 -23 249 -4 0 -12 -19 -17 -42 -9
-41 -10 -39 -11 35 -1 42 -5 77 -10 77 -10 0 -18 -57 -27 -197 -4 -57 -10
-103 -14 -103 -5 0 -11 32 -15 70 -4 39 -11 72 -15 75 -8 5 -15 -89 -26 -360
-3 -88 -9 -180 -14 -205 l-7 -45 -2 58 c-2 91 -17 66 -28 -45 l-10 -103 -1 77
c-1 42 -6 79 -11 82 -4 3 -11 62 -15 132 -4 78 -12 135 -21 148 -15 24 -35
192 -35 304 0 97 -10 182 -21 182 -5 0 -9 -43 -9 -95 0 -73 -3 -95 -13 -95
-11 0 -15 -35 -20 -157 -5 -112 -11 -161 -21 -172 -14 -17 -33 -229 -45 -501
l-6 -135 -13 240 c-7 132 -17 244 -23 250 -5 5 -9 0 -10 -15 -1 -23 -2 -22 -9
5 -4 17 -11 127 -14 245 -8 295 -15 382 -33 376 -10 -4 -13 12 -13 79 0 47 -4
85 -9 85 -5 0 -13 -55 -17 -122 -5 -68 -10 -106 -12 -85 -2 20 -7 37 -11 37
-11 0 -21 -109 -22 -240 -1 -58 -3 -96 -6 -85 -2 11 -6 27 -9 35 -10 28 -34
-20 -34 -67 0 -29 -4 -42 -12 -41 -10 2 -15 -33 -22 -132 -8 -121 -10 -130
-19 -90 -11 56 -20 66 -41 45 -15 -15 -16 -14 -16 20 0 22 -4 34 -10 30 -5 -3
-10 -35 -10 -71 0 -35 -4 -64 -8 -64 -10 0 -22 193 -22 356 0 62 -4 115 -9
118 -13 8 -19 -30 -27 -171 -3 -68 -10 -123 -15 -123 -5 0 -9 9 -9 20 0 25
-19 27 -22 3 -3 -33 -15 132 -17 220 -1 64 -5 93 -16 103 -11 12 -15 39 -15
109 0 111 -16 134 -25 38 -10 -113 -12 -113 -14 4 -1 110 -13 152 -25 92 -3
-18 -6 -113 -6 -214 0 -100 -3 -256 -7 -348 -5 -146 -8 -166 -24 -170 -22 -6
-29 18 -29 96 0 31 -4 57 -10 57 -6 0 -10 -35 -11 -82 -1 -87 -15 -224 -18
-174 -1 19 -5 26 -14 23 -15 -6 -26 207 -28 553 -1 183 -8 258 -21 215 -4 -11
-10 -131 -13 -267 -4 -137 -11 -248 -15 -248 -4 0 -10 75 -14 168 -4 92 -10
182 -13 200 -10 62 -22 17 -30 -113 -4 -72 -9 -122 -11 -112 -10 48 -20 3 -25
-119 -3 -75 -10 -140 -15 -143 -5 -3 -12 -55 -15 -116 -3 -62 -11 -111 -17
-113 -5 -2 -10 -12 -10 -23 0 -10 -4 -19 -8 -19 -10 0 -22 222 -22 388 0 56
-4 102 -9 102 -5 0 -12 -12 -14 -27 -4 -26 -4 -26 -6 5 -1 34 -17 44 -24 15
-3 -10 -5 -1 -6 20 -1 42 -13 48 -29 15 -9 -19 -11 -12 -11 43 -1 50 -5 68
-16 73 -11 4 -15 23 -15 81 0 43 -4 75 -10 75 -6 0 -10 -27 -10 -60 0 -44 -4
-60 -14 -60 -11 0 -15 -51 -21 -262 -4 -145 -10 -267 -15 -273 -4 -5 -13 -48
-21 -95 l-14 -85 -6 95 c-7 109 -17 160 -29 160 -5 0 -11 -12 -13 -27 -2 -16
-5 -5 -6 24 0 28 -5 53 -10 55 -6 2 -11 83 -13 186 -2 112 -7 182 -13 182 -5
1 -12 -16 -15 -37 -3 -21 -9 -44 -14 -51 -4 -7 -11 -34 -15 -60 -7 -42 -8 -35
-15 63 -15 196 -21 240 -34 238 -9 -2 -12 21 -12 82 0 47 -4 85 -9 85 -4 0
-11 -35 -14 -77 -3 -43 -11 -79 -16 -81 -7 -2 -11 -70 -12 -195 -1 -106 -4
-230 -8 -277 l-8 -85 -1 103 c-1 56 -6 102 -10 102 -9 0 -22 -236 -22 -402 0
-54 -4 -98 -9 -98 -5 0 -12 -55 -16 -122 -5 -89 -10 -117 -17 -104 -11 19 -22
249 -34 666 -3 140 -9 259 -12 264 -2 4 -8 2 -13 -5 -7 -11 -9 -10 -9 4 0 33
-25 11 -32 -29 -4 -21 -10 -136 -14 -255 -6 -201 -7 -216 -24 -212 -28 7 -34
-13 -45 -152 l-11 -130 -8 150 c-4 83 -11 161 -16 175 l-9 25 -7 -24 c-7 -24
-8 -23 -21 15 -9 24 -20 137 -29 304 -8 146 -19 273 -24 282 -6 10 -13 85 -17
168 -6 149 -22 208 -24 88 -2 -227 -16 -480 -27 -487 -7 -4 -15 -53 -20 -122
-6 -74 -10 -94 -11 -57 0 31 -5 60 -11 63 -5 3 -10 0 -11 -7 0 -7 -5 -2 -10
11 -19 48 -30 3 -40 -169 -6 -96 -14 -179 -19 -185 -4 -5 -10 -21 -12 -35 -2
-14 -7 33 -10 104 -4 77 -11 132 -18 136 -10 6 -29 365 -30 573 0 37 -4 67 -9
67 -8 0 -12 -52 -28 -420 l-7 -165 -8 124 c-5 83 -13 133 -24 155 -13 24 -18
68 -22 194 -2 89 -8 162 -12 162 -8 0 -20 -124 -20 -212 0 -32 -4 -58 -10 -58
-5 0 -10 -26 -11 -57 -1 -73 -16 -182 -18 -135 0 17 -5 32 -10 32 -10 0 -21
-133 -21 -266 0 -55 -4 -104 -10 -110 -6 -6 -13 -114 -17 -249 -3 -132 -10
-229 -14 -215 -4 14 -12 128 -19 255 -11 229 -20 285 -31 210 -6 -39 -6 -39
-8 13 0 28 -5 52 -11 52 -5 0 -11 -8 -12 -17 -1 -10 -6 77 -12 192 -8 158 -14
209 -23 208 -9 -2 -13 9 -13 32 0 67 -18 35 -25 -45 -4 -44 -11 -80 -16 -80
-5 0 -9 -12 -10 -27 0 -16 -4 -37 -9 -48 -6 -14 -9 3 -9 53 -1 41 -5 72 -11
72 -5 0 -10 -3 -10 -7 -1 -5 -5 -107 -9 -228 -7 -175 -13 -229 -26 -260 -10
-22 -19 -33 -21 -25 -1 8 -5 32 -9 53 -11 69 -25 27 -27 -81 l-1 -107 -8 135
c-3 74 -7 172 -8 218 -1 88 -12 105 -27 45 -8 -32 -11 -15 -17 107 -20 379
-34 497 -57 474 -9 -9 -29 -301 -31 -458 -1 -50 -4 -81 -6 -68 -9 45 -20 20
-26 -60 -4 -46 -7 -162 -8 -258 0 -107 -4 -167 -9 -155 -5 11 -9 54 -9 96 -1
121 -13 259 -22 259 -5 0 -9 -20 -9 -44 0 -25 -4 -48 -10 -51 -6 -4 -10 49
-12 142 -2 112 -6 147 -15 146 -9 -2 -13 12 -13 47 0 28 -4 50 -10 50 -5 0
-10 -10 -10 -22 0 -17 -3 -19 -9 -9 -11 17 -31 6 -32 -17 0 -11 -3 -12 -6 -4
-2 6 -11 12 -19 12 -8 0 -14 6 -14 13 0 7 -7 67 -16 132 -15 120 -35 170 -49
126 -3 -12 -10 -19 -15 -16 -8 5 -14 -63 -26 -285 -3 -63 -12 -140 -20 -171
-8 -31 -14 -101 -14 -155 -1 -190 -18 -406 -33 -421 -12 -12 -15 7 -20 138 -4
84 -11 155 -16 158 -5 3 -12 50 -16 105 -4 54 -13 113 -20 130 -7 17 -16 57
-20 89 -8 67 -25 76 -25 14 0 -82 -13 -196 -21 -191 -5 3 -9 78 -9 167 0 193
-10 387 -20 387 -4 0 -11 -42 -16 -92 -6 -64 -9 -80 -12 -53 -2 22 -8 44 -13
49 -5 6 -9 49 -9 96 0 125 -12 300 -20 300 -4 0 -11 -85 -15 -190 -4 -104 -11
-190 -15 -190 -4 0 -11 -93 -16 -207 -4 -115 -9 -200 -11 -190 -8 33 -20 17
-26 -35 -3 -29 -9 -93 -13 -143 -8 -90 -21 -90 -23 -1 -1 40 -14 41 -24 1 -3
-11 -5 34 -6 100 -2 174 -13 375 -21 375 -7 0 -17 -64 -45 -275 -8 -60 -15
-119 -17 -130 -1 -11 -5 52 -8 140 -3 96 -9 160 -15 160 -11 0 -11 2 -22 -170
l-8 -120 -6 105 c-4 58 -7 133 -8 168 -2 105 -19 69 -26 -58 -7 -116 -18 -150
-29 -92 -3 15 -8 78 -12 140 -3 62 -10 115 -15 118 -5 3 -9 -11 -9 -32 0 -31
-2 -35 -15 -24 -13 11 -15 7 -16 -26 -1 -31 -4 -24 -13 30 -6 38 -15 69 -21
68 -6 -1 -11 -46 -12 -104 -5 -205 -15 -327 -26 -325 -6 1 -18 -30 -27 -73
l-16 -75 -7 180 c-8 192 -14 255 -28 255 -5 0 -10 -24 -11 -52 -2 -56 -14 201
-17 340 0 47 -5 82 -11 82 -6 0 -10 -43 -10 -107 0 -132 -10 -220 -21 -201
-12 18 -25 -2 -34 -56 l-8 -41 -8 45 c-4 25 -8 64 -8 88 -1 23 -5 42 -11 42
-5 0 -10 -17 -10 -37 0 -35 -1 -36 -14 -18 -8 12 -15 59 -18 113 -5 84 -11
113 -22 101 -2 -2 -9 -98 -16 -214 -7 -115 -16 -211 -21 -213 -5 -2 -9 -25 -9
-50 0 -26 -5 -54 -10 -62 -7 -10 -10 18 -10 88 0 78 -4 107 -15 118 -12 13
-15 48 -15 184 0 93 -4 171 -9 174 -9 6 -17 -137 -26 -464 -11 -406 -28 -397
-44 25 -13 348 -20 455 -31 455 -19 0 -40 -266 -40 -510 0 -91 -5 -172 -10
-180 -7 -11 -10 -6 -10 20 0 20 -5 41 -11 47 -8 8 -16 120 -23 335 -9 247 -14
322 -24 320 -8 -1 -12 16 -12 57 0 33 -4 62 -9 65 -8 6 -21 -110 -21 -196 0
-38 -5 -54 -21 -67 -16 -13 -23 -38 -34 -116 -7 -55 -18 -116 -24 -135 -6 -19
-11 -54 -11 -77 0 -30 -4 -43 -14 -43 -13 0 -24 -49 -28 -129 -3 -60 -15 195
-17 345 -1 177 -12 324 -22 324 -5 0 -10 -46 -11 -102 -2 -79 -5 -50 -12 120
-5 122 -12 222 -16 222 -11 0 -19 -109 -27 -347 -3 -117 -10 -213 -14 -213 -4
0 -10 -8 -12 -17 -3 -10 -5 -1 -6 20 -2 54 -21 46 -22 -10 -13 -430 -14 -458
-26 -455 -7 1 -13 -5 -13 -14 0 -14 -3 -14 -15 -4 -13 11 -15 6 -17 -36 -3
-123 -16 93 -17 303 -1 188 -3 223 -16 231 -13 7 -30 116 -35 225 0 4 -5 7
-10 7 -7 0 -9 -18 -6 -47 3 -27 11 -102 17 -168 6 -66 14 -122 18 -125 4 -3
13 -189 19 -414 7 -225 16 -414 20 -420 8 -12 20 64 21 135 1 34 5 46 16 46
12 0 15 -13 15 -59 0 -32 4 -58 10 -58 6 0 10 12 10 28 0 132 23 508 30 510 6
2 10 19 10 38 0 24 5 34 15 34 12 0 15 14 16 63 1 34 5 143 8 242 7 160 8 168
10 70 3 -132 13 -204 32 -215 10 -7 15 -78 22 -327 5 -175 10 -320 13 -322 11
-11 15 18 21 175 5 93 9 152 11 132 2 -21 7 -38 12 -38 10 0 17 65 24 221 3
63 12 135 20 160 8 24 18 80 22 124 6 63 9 74 15 50 3 -16 7 -56 8 -87 1 -71
20 -89 23 -21 1 37 2 41 5 15 3 -20 9 -32 16 -29 9 3 15 -59 22 -232 6 -148
14 -234 20 -231 14 7 24 -60 25 -165 0 -98 9 -165 20 -165 4 0 11 177 15 393
4 215 11 428 14 472 l7 80 7 -110 c4 -60 12 -234 18 -385 6 -151 15 -279 19
-283 4 -5 11 11 15 35 4 23 11 45 16 48 4 3 12 80 17 170 l9 165 2 -147 c0
-85 5 -149 11 -153 6 -4 10 9 10 32 0 28 3 34 10 23 19 -31 35 8 39 98 2 61 7
89 17 95 10 6 14 34 15 110 1 56 4 127 8 157 l7 55 12 -53 c7 -29 12 -84 12
-122 0 -37 3 -75 6 -84 9 -22 24 -10 24 20 0 15 6 24 15 24 9 0 15 10 16 23 0
12 6 38 13 57 l13 35 6 -55 c4 -30 7 -105 7 -167 0 -61 3 -118 6 -127 15 -38
24 4 26 112 l1 117 8 -135 c3 -74 7 -148 8 -164 2 -62 20 -9 23 69 2 44 7 -59
11 -230 5 -171 12 -314 16 -318 9 -9 21 187 21 338 0 117 16 215 36 215 14 0
17 20 32 180 l9 95 1 -117 c2 -116 15 -161 28 -93 3 19 10 35 14 35 4 0 11 28
16 63 l9 62 2 -75 c4 -90 10 -123 23 -115 6 4 10 -7 10 -23 0 -53 15 -45 26
15 l12 58 1 -95 c1 -52 4 -112 7 -133 12 -68 24 -38 25 61 2 92 2 94 9 37 4
-33 8 -108 9 -167 1 -60 5 -108 10 -108 5 0 12 71 15 158 3 86 11 195 16 242
5 47 13 118 16 158 4 40 10 74 14 77 4 2 10 -111 14 -253 3 -141 9 -299 13
-349 6 -89 17 -118 26 -70 2 12 5 1 6 -25 0 -27 5 -48 10 -48 4 0 11 69 15
153 10 236 17 306 28 276 8 -19 11 -21 17 -9 7 12 31 414 31 513 0 19 5 27 17
27 9 0 13 -3 10 -7 -4 -3 -2 -12 5 -20 7 -8 13 -67 16 -146 2 -73 8 -136 12
-141 9 -9 18 42 23 129 2 28 5 -29 7 -125 3 -96 5 -193 6 -216 0 -27 8 -48 22
-62 l22 -22 5 23 c3 12 6 76 8 142 2 110 3 117 15 90 9 -19 17 -96 21 -213 5
-108 12 -187 18 -190 6 -4 13 -52 17 -107 10 -144 17 -205 26 -205 4 0 10 27
13 60 3 34 10 66 15 73 10 12 32 373 32 528 0 47 4 89 9 95 11 10 30 209 32
324 1 83 9 122 25 127 7 2 14 -24 18 -69 11 -114 27 -201 42 -223 8 -11 14
-39 14 -62 0 -58 17 -55 25 5 10 75 13 80 14 29 1 -32 6 -49 16 -53 11 -5 15
-22 15 -63 0 -32 5 -62 13 -69 8 -9 13 -61 15 -167 4 -143 10 -180 26 -139 3
9 7 37 7 62 1 37 4 30 11 -33 11 -97 21 -138 34 -142 12 -4 24 106 24 213 0
34 4 64 10 66 9 3 22 193 36 541 3 93 10 165 14 160 4 -4 15 -141 25 -303 9
-162 18 -297 21 -299 3 -3 9 1 14 9 13 22 18 -33 24 -276 6 -229 13 -314 26
-314 5 0 10 67 12 148 2 89 7 155 14 163 6 8 14 34 17 59 3 25 14 61 23 80 10
20 22 79 28 140 5 58 15 110 21 117 7 6 15 34 19 62 4 32 11 50 19 48 7 -1 14
15 17 43 10 91 22 16 31 -198 10 -237 15 -282 29 -282 6 0 10 -72 10 -180 0
-99 4 -180 9 -180 13 0 21 62 22 175 l2 100 7 -105 c7 -110 15 -150 30 -150
22 0 28 47 32 241 3 113 9 212 13 220 11 16 11 19 13 182 2 116 4 128 20 125
14 -2 17 6 19 47 7 132 16 215 24 215 5 0 9 -75 9 -170 0 -93 4 -170 9 -170
11 0 21 48 22 114 2 50 11 -52 24 -266 4 -60 10 -108 14 -108 9 0 20 181 23
349 1 105 1 105 8 36 4 -38 9 -135 10 -215 3 -216 14 -288 33 -220 2 8 7 -39
10 -104 7 -112 11 -136 21 -125 3 2 8 59 12 127 4 67 11 122 15 122 5 0 10 35
10 78 2 117 16 157 18 50 1 -51 5 -88 11 -88 6 0 10 25 10 55 0 40 4 55 14 55
16 0 26 21 26 56 0 13 6 24 14 24 16 0 25 81 28 240 1 83 2 94 7 50 4 -35 10
-54 18 -53 14 3 20 -37 27 -183 3 -56 13 -120 21 -144 8 -23 15 -68 15 -99 0
-172 27 -342 32 -198 2 72 15 -109 17 -230 0 -50 5 -94 10 -98 11 -6 16 48 31
322 6 112 13 210 16 218 6 14 8 13 19 -2 22 -30 35 17 36 134 0 145 16 228 18
96 0 -51 5 -93 10 -93 5 0 11 10 13 23 2 12 7 -81 12 -208 8 -251 18 -351 42
-396 23 -45 34 -26 34 61 0 60 3 79 15 84 12 4 15 25 15 98 0 82 2 90 14 72
12 -16 15 -16 19 -4 3 8 8 161 11 340 4 192 10 328 16 334 7 7 10 -19 10 -75
0 -95 9 -117 26 -67 9 28 12 14 23 -117 7 -83 16 -154 20 -158 10 -10 21 99
21 201 0 39 4 72 8 72 5 0 12 -87 16 -192 3 -112 10 -194 16 -196 6 -2 10 -59
10 -141 0 -156 9 -261 21 -261 5 0 10 60 11 133 l1 132 8 -135 c3 -74 7 -170
8 -212 2 -145 19 -79 25 100 8 221 15 282 28 258 22 -39 28 4 28 190 0 116 4
194 10 194 5 0 12 15 15 33 10 54 35 43 35 -15 0 -55 13 -63 26 -15 6 23 10
-6 12 -105 1 -81 7 -138 12 -138 6 0 11 8 11 18 1 9 5 0 8 -21 3 -21 11 -37
16 -37 6 0 12 -30 15 -67 4 -54 8 -67 20 -64 8 2 25 3 38 3 20 0 22 5 22 59 0
46 3 59 15 59 9 0 15 9 16 23 0 20 1 20 8 3 15 -38 21 12 22 182 1 92 4 194 8
227 6 51 8 37 15 -95 8 -173 16 -222 34 -228 9 -3 12 23 12 102 0 58 4 106 8
106 5 0 12 -138 16 -307 4 -169 9 -309 12 -312 11 -11 16 15 22 111 5 82 8 93
12 55 7 -69 24 -58 31 20 3 38 6 64 7 58 6 -28 22 27 22 75 1 49 2 53 14 37
23 -30 28 -5 33 156 3 103 9 162 18 182 8 17 18 68 23 115 l9 85 2 -76 c1 -58
5 -78 16 -83 11 -4 15 -24 16 -83 1 -103 12 -183 24 -186 5 -1 12 12 15 28 5
24 7 27 13 12 11 -29 27 -9 27 34 0 24 4 38 10 34 6 -3 10 -50 10 -105 0 -54
4 -101 9 -104 4 -3 11 -25 15 -48 4 -23 11 -45 17 -49 6 -3 13 -31 16 -62 8
-79 23 -71 23 11 0 38 3 105 7 148 l8 79 6 -55 c4 -30 7 -81 8 -112 1 -55 13
-83 24 -54 3 7 9 78 13 156 5 105 10 143 20 147 10 3 14 25 15 67 l2 61 7 -60
c4 -33 8 -87 9 -120 1 -37 5 -55 10 -50 6 6 15 105 21 220 7 116 17 213 22
216 6 4 14 22 18 40 5 23 8 -5 9 -91 2 -165 23 -203 34 -60 2 25 4 -10 5 -76
3 -188 22 -478 33 -489 5 -5 9 5 9 30 0 21 2 36 5 33 3 -3 12 -151 20 -328 13
-295 17 -342 29 -329 2 2 9 159 15 349 14 429 28 617 47 644 8 11 15 34 15 51
1 17 3 22 6 13 11 -42 23 -12 24 60 l1 77 14 -89 c8 -49 19 -95 24 -101 6 -7
13 -66 17 -131 3 -66 9 -124 14 -129 4 -6 11 -90 15 -188 4 -97 10 -177 15
-177 8 0 17 50 22 130 3 38 4 36 5 -15 3 -67 17 -106 25 -64 7 32 37 577 37
654 0 54 2 58 13 36 19 -38 37 -38 38 1 0 18 4 42 9 53 5 12 9 -51 9 -162 1
-101 5 -183 10 -183 11 0 21 107 22 255 l2 120 12 -165 c7 -91 13 -175 14
-187 1 -13 6 -23 11 -23 6 0 10 28 11 63 1 117 18 28 19 -103 2 -196 17 -404
29 -408 8 -3 11 -72 11 -223 0 -188 2 -219 15 -219 10 0 15 10 15 30 0 19 5
29 13 28 9 -2 13 67 15 312 2 195 7 317 14 321 5 3 12 69 15 145 5 114 9 143
24 163 15 19 19 41 19 110 0 128 17 81 25 -73 4 -72 11 -133 16 -136 10 -7 29
-299 29 -447 l0 -102 27 3 c15 2 29 11 34 23 4 10 10 89 15 174 4 84 9 146 12
137 2 -10 7 -18 11 -18 8 0 15 104 27 420 5 106 12 172 20 185 7 11 15 43 19
70 17 143 19 145 26 30 4 -60 10 -132 14 -160 3 -27 11 -87 16 -132 6 -46 14
-83 19 -83 4 0 12 15 18 33 8 26 10 8 11 -95 1 -70 5 -129 10 -132 13 -9 21
19 21 75 0 83 17 46 24 -53 8 -110 13 -128 32 -128 10 0 14 13 14 50 0 43 3
50 17 48 19 -3 30 55 50 267 l8 80 6 -100 c4 -55 7 -142 8 -192 0 -51 5 -93 9
-93 9 0 21 139 23 260 1 96 17 134 18 45 1 -38 4 -87 7 -107 12 -71 24 -27 25
90 1 102 3 112 12 75 12 -51 26 -56 29 -10 2 47 15 -104 17 -195 1 -93 20
-106 23 -15 l1 62 8 -80 c7 -70 28 -461 29 -537 0 -49 20 -30 21 20 0 37 2 42
9 26 5 -12 13 -25 18 -28 11 -7 22 112 22 240 0 51 4 94 9 96 8 3 26 135 38
280 4 51 9 65 19 61 11 -4 14 14 14 96 0 103 7 119 37 81 10 -13 12 -11 18 10
3 14 9 54 13 90 9 72 22 -294 22 -592 0 -94 4 -158 10 -158 5 0 10 30 12 67
l3 68 10 -43 c14 -59 28 -57 32 2 6 92 13 60 14 -65 1 -68 1 -131 0 -141 -2
-20 17 -34 24 -16 2 7 11 78 19 158 7 80 14 124 15 98 1 -45 13 -63 24 -35 3
6 6 -27 6 -75 1 -108 20 -130 23 -26 2 70 2 70 5 16 7 -106 20 -60 26 89 3 93
9 149 16 151 6 2 11 16 11 30 0 21 2 24 10 12 5 -8 10 -39 10 -68 0 -56 14
-97 31 -87 5 4 10 52 10 108 1 56 5 147 9 202 l7 100 1 -80 c4 -176 16 -365
22 -365 4 0 12 120 16 268 6 165 10 228 12 165 2 -78 6 -103 16 -103 20 0 26
-33 26 -141 0 -115 10 -219 21 -219 4 0 10 19 14 43 4 23 11 48 15 56 8 16 12
-20 30 -303 6 -94 13 -172 15 -175 12 -11 19 15 23 91 3 46 8 85 13 88 5 3 14
98 20 210 22 418 36 623 38 558 2 -119 30 -70 32 56 l1 61 19 -105 c24 -129
26 -142 40 -415 10 -198 19 -258 38 -239 3 3 11 123 16 265 7 168 15 263 22
267 6 4 13 18 16 32 4 25 4 25 6 -2 2 -43 20 -33 28 15 7 39 8 35 14 -43 4
-47 8 -155 8 -240 1 -151 12 -239 32 -250 5 -4 12 -43 16 -88 6 -80 22 -114
24 -49 0 17 3 26 6 19 14 -35 23 12 24 126 1 128 14 290 18 222 2 -33 2 -34
16 -16 10 13 15 43 15 85 0 105 12 231 21 225 5 -3 10 10 11 28 2 49 16 -143
17 -244 1 -88 13 -119 30 -76 7 17 10 3 12 -57 1 -44 4 -93 8 -109 6 -28 7
-29 24 -12 16 17 17 16 17 -3 0 -12 5 -21 10 -21 6 0 10 -12 10 -27 0 -43 12
-103 20 -103 4 0 13 42 19 92 7 51 16 95 20 98 15 9 24 108 30 335 6 204 7
216 19 167 6 -29 14 -112 18 -185 3 -73 7 -147 10 -165 8 -52 24 -26 24 39 0
43 4 59 14 59 19 0 24 -73 37 -515 5 -209 13 -387 16 -395 12 -30 23 58 33
260 12 243 29 413 41 421 5 3 12 29 16 57 3 29 9 52 13 52 4 0 10 46 14 102 3
56 10 105 15 108 4 3 11 12 14 20 3 8 6 0 6 -18 1 -48 21 -29 22 21 1 24 4 32
6 19 8 -41 33 -6 33 46 0 25 3 43 6 39 6 -6 16 -85 35 -299 13 -130 28 -171
30 -75 1 97 16 98 23 2 12 -160 18 -205 27 -205 5 0 10 15 10 33 3 48 17 -65
18 -139 1 -43 5 -63 15 -67 23 -9 26 2 26 87 1 140 19 369 30 376 18 11 31 70
45 210 17 156 19 218 6 204 -4 -5 -14 -74 -20 -154 -15 -179 -21 -208 -33
-186 -5 9 -13 16 -17 16 -5 0 -12 -75 -16 -167 -4 -93 -11 -188 -15 -213 -7
-39 -8 -33 -9 41 -1 89 -6 106 -26 89 -9 -7 -16 28 -28 148 -10 86 -17 180
-17 209 0 28 -4 54 -9 57 -11 7 -21 -43 -21 -112 0 -96 -11 -49 -26 110 -8 84
-16 163 -19 176 -10 43 -25 11 -27 -56 -1 -57 -2 -52 -8 38 -4 58 -8 124 -9
148 -2 75 -21 46 -21 -33 0 -55 -3 -74 -12 -72 -9 1 -14 -16 -16 -53 -2 -35
-9 -58 -18 -63 -11 -6 -14 -34 -14 -130 0 -67 -3 -139 -6 -159 -12 -69 -24
-39 -24 57 0 57 -4 95 -10 95 -5 0 -10 -12 -11 -27 -7 -230 -20 -490 -30 -618
l-14 -160 -7 264 c-8 281 -21 438 -38 455 -5 5 -10 38 -10 71 0 127 -13 335
-22 335 -4 0 -8 -49 -8 -109 0 -61 -4 -112 -8 -115 -12 -7 -30 99 -38 217 -3
53 -10 97 -14 97 -9 0 -20 -236 -20 -435 0 -168 -14 -323 -30 -339 -5 -5 -10
-26 -10 -45 0 -48 -8 -35 -12 19 -2 25 -8 44 -13 42 -6 -1 -12 11 -15 28 -7
40 -23 39 -31 -2 -5 -25 -7 -16 -8 32 -2 91 -12 170 -22 170 -5 0 -10 -10 -10
-22 -4 -59 -18 130 -24 330 -6 175 -11 225 -21 229 -11 4 -14 34 -14 134 0 71
-4 129 -8 129 -13 0 -22 -196 -22 -497 0 -175 -4 -273 -10 -273 -5 0 -10 8
-10 17 0 12 -3 14 -10 7 -6 -6 -13 -64 -16 -130 -6 -135 -10 -164 -24 -164 -6
0 -10 34 -10 78 0 114 -12 242 -21 236 -5 -3 -10 -56 -10 -117 -2 -90 -4 -67
-14 121 -14 260 -28 313 -48 182 -3 -14 -5 7 -6 45 -3 146 -31 201 -31 60 0
-53 -4 -74 -14 -78 -11 -4 -15 -51 -21 -214 -12 -342 -20 -382 -29 -158 -4
105 -14 222 -22 261 -12 59 -33 234 -34 282 0 26 -17 10 -27 -25 -10 -35 -11
-33 -12 40 0 42 -5 77 -10 77 -13 0 -19 -71 -31 -335 -6 -132 -15 -292 -20
-355 -5 -63 -10 -153 -10 -200 -1 -47 -7 -110 -14 -140 l-13 -55 -6 35 c-3 19
-8 87 -11 150 -3 63 -8 132 -12 152 -9 49 -31 57 -43 15 -7 -26 -9 -15 -10 58
-2 111 -17 233 -32 251 -11 14 -28 388 -29 652 0 83 -4 152 -8 152 -5 0 -12
-57 -15 -127z"/>
<path d="M323 2293 c13 -3 16 -10 11 -26 -14 -45 -14 -51 0 -22 21 42 19 55
-6 54 -18 -1 -19 -2 -5 -6z"/>
<path d="M400 2280 c0 -11 7 -20 15 -20 21 0 19 -28 -2 -33 -17 -4 -17 -5 0
-6 26 -2 34 29 11 46 -16 12 -17 15 -4 23 13 8 12 10 -2 10 -11 0 -18 -8 -18
-20z"/>
<path d="M85 2110 c-4 -7 -3 -16 3 -22 14 -14 47 -6 47 12 0 18 -40 26 -50 10z
m45 -10 c0 -5 -9 -10 -20 -10 -11 0 -20 5 -20 10 0 6 9 10 20 10 11 0 20 -4
20 -10z"/>
<path d="M66 2052 c6 -4 13 -15 17 -25 10 -26 51 -18 55 11 3 20 -1 22 -40 22
-24 0 -38 -4 -32 -8z m64 -17 c0 -8 -9 -15 -20 -15 -11 0 -20 7 -20 15 0 8 9
15 20 15 11 0 20 -7 20 -15z"/>
<path d="M320 2010 c0 -11 7 -20 15 -20 21 0 19 -28 -2 -33 -17 -4 -17 -5 0
-6 25 -1 34 29 14 44 -22 16 -21 22 1 28 13 4 11 5 -5 6 -17 1 -23 -5 -23 -19z"/>
<path d="M405 2011 c-9 -30 4 -63 23 -59 12 2 17 14 17 38 0 40 -29 55 -40 21z
m35 -21 c0 -31 -16 -41 -26 -15 -8 19 2 45 16 45 5 0 10 -13 10 -30z"/>
<path d="M93 1993 c9 -2 25 -2 35 0 9 3 1 5 -18 5 -19 0 -27 -2 -17 -5z"/>
<path d="M103 1963 c33 -5 36 -30 5 -36 -20 -3 -20 -4 2 -3 18 1 26 7 28 24 3
19 -1 22 -30 21 -30 -2 -31 -2 -5 -6z"/>
<path d="M93 1883 c9 -2 25 -2 35 0 9 3 1 5 -18 5 -19 0 -27 -2 -17 -5z"/>
<path d="M80 1810 c0 -16 6 -20 33 -19 30 2 30 2 5 6 -16 2 -28 8 -28 13 0 5
12 11 28 13 25 4 25 4 -5 6 -27 1 -33 -3 -33 -19z"/>
<path d="M83 1754 c-5 -14 11 -34 27 -34 3 0 11 4 19 9 19 12 6 41 -19 41 -11
0 -23 -7 -27 -16z m45 -6 c-3 -7 -11 -13 -18 -13 -7 0 -15 6 -17 13 -3 7 4 12
17 12 13 0 20 -5 18 -12z"/>
<path d="M323 1763 c21 -6 22 -26 2 -43 -22 -18 -18 -30 8 -30 17 0 19 2 8 9
-12 8 -12 12 -2 25 17 20 7 46 -16 45 -17 -1 -17 -2 0 -6z"/>
<path d="M400 1750 c0 -11 7 -20 15 -20 21 0 19 -28 -2 -33 -17 -4 -17 -5 0
-6 26 -2 34 29 11 46 -16 12 -17 15 -4 23 13 8 12 10 -2 10 -11 0 -18 -8 -18
-20z"/>
<path d="M84 1690 c2 -24 50 -19 53 5 1 16 1 16 -3 3 -6 -21 -40 -24 -47 -5
-2 7 -3 6 -3 -3z"/>
<path d="M87 1613 c-4 -3 -7 -13 -6 -22 0 -12 3 -11 9 4 7 17 9 17 9 3 1 -26
41 -24 41 2 0 14 -7 20 -23 20 -13 0 -27 -3 -30 -7z m43 -13 c0 -5 -4 -10 -10
-10 -5 0 -10 5 -10 10 0 6 5 10 10 10 6 0 10 -4 10 -10z"/>
<path d="M66 1552 c6 -4 13 -15 17 -25 10 -26 51 -18 55 11 3 20 -1 22 -40 22
-24 0 -38 -4 -32 -8z m64 -17 c0 -8 -9 -15 -20 -15 -11 0 -20 7 -20 15 0 8 9
15 20 15 11 0 20 -7 20 -15z"/>
<path d="M83 1485 c-3 -9 -3 -19 1 -22 3 -4 6 2 7 13 0 16 2 15 10 -4 11 -28
33 -24 37 6 3 18 -2 22 -23 22 -14 0 -28 -7 -32 -15z m47 -16 c0 -5 -4 -9 -10
-9 -5 0 -10 7 -10 16 0 8 5 12 10 9 6 -3 10 -10 10 -16z"/>
<path d="M317 1493 c-11 -10 -8 -61 4 -69 6 -3 16 -1 22 5 9 9 8 11 -5 6 -15
-6 -18 -1 -18 25 0 25 3 31 16 26 8 -3 12 -2 9 4 -7 12 -19 13 -28 3z"/>
<path d="M395 1481 c-9 -30 4 -63 23 -59 12 2 17 14 17 38 0 40 -29 55 -40 21z
m35 -21 c0 -31 -16 -41 -26 -15 -8 19 2 45 16 45 5 0 10 -13 10 -30z"/>
<path d="M80 1426 c0 -12 9 -16 33 -15 21 1 25 3 12 6 -11 3 -26 10 -32 15
-10 8 -13 6 -13 -6z"/>
<path d="M83 1384 c-3 -8 -1 -20 5 -26 14 -14 47 -6 48 12 0 9 -1 10 -3 3 -7
-20 -23 -15 -23 7 0 24 -18 27 -27 4z m14 -16 c-3 -8 -6 -5 -6 6 -1 11 2 17 5
13 3 -3 4 -12 1 -19z"/>
<path d="M93 1333 c-7 -2 -13 -13 -13 -24 0 -16 7 -19 43 -18 23 0 36 3 30 6
-7 2 -13 11 -13 18 0 10 -25 28 -33 24 -1 0 -8 -3 -14 -6z m35 -21 c2 -7 -6
-12 -17 -12 -21 0 -27 11 -14 24 9 9 26 2 31 -12z"/>
<path d="M103 1263 c20 -3 27 -9 23 -19 -3 -8 -1 -14 4 -14 6 0 10 9 10 20 0
16 -6 20 -32 19 -32 -2 -32 -2 -5 -6z"/>
<path d="M308 1229 c24 -9 23 -18 -6 -51 -14 -17 -13 -18 14 -17 16 1 21 3 12
6 -16 4 -16 6 -2 28 19 28 11 45 -19 44 -22 0 -22 0 1 -10z"/>
<path d="M390 1220 c0 -11 7 -20 15 -20 21 0 19 -28 -2 -33 -17 -4 -17 -5 0
-6 25 -1 34 29 14 44 -22 16 -21 22 1 28 13 4 11 5 -5 6 -17 1 -23 -5 -23 -19z"/>
<path d="M84 1190 c2 -24 50 -19 53 5 1 16 1 16 -3 3 -6 -21 -40 -24 -47 -5
-2 7 -3 6 -3 -3z"/>
<path d="M233 1193 c9 -2 25 -2 35 0 9 3 1 5 -18 5 -19 0 -27 -2 -17 -5z"/>
<path d="M82 1133 c5 -26 52 -24 55 2 1 16 1 16 -3 3 -7 -22 -24 -24 -24 -3 0
8 -7 15 -16 15 -9 0 -14 -7 -12 -17z"/>
<path d="M80 1088 c0 -14 8 -18 33 -17 27 2 28 2 7 6 -14 3 -28 10 -32 17 -5
7 -8 5 -8 -6z"/>
<path d="M78 1013 c12 -2 32 -2 45 0 12 2 2 4 -23 4 -25 0 -35 -2 -22 -4z"/>
<path d="M87 983 c-4 -3 -7 -13 -6 -22 0 -12 3 -11 9 4 7 16 9 16 9 4 1 -18
25 -32 35 -22 3 4 6 15 6 25 0 12 -7 18 -23 18 -13 0 -27 -3 -30 -7z m43 -19
c0 -8 -4 -12 -10 -9 -5 3 -10 10 -10 16 0 5 5 9 10 9 6 0 10 -7 10 -16z"/>
<path d="M290 961 c0 -10 9 -21 20 -24 26 -7 26 -24 0 -30 -17 -4 -17 -4 2 -3
30 1 37 35 9 43 -26 7 -27 20 -3 26 13 4 11 5 -5 6 -16 1 -23 -5 -23 -18z"/>
<path d="M397 973 c-11 -10 -8 -61 4 -69 6 -3 16 -1 22 5 9 9 8 11 -5 6 -15
-6 -18 -1 -18 25 0 25 3 31 16 26 8 -3 12 -2 9 4 -7 12 -19 13 -28 3z"/>
<path d="M233 933 c9 -2 25 -2 35 0 9 3 1 5 -18 5 -19 0 -27 -2 -17 -5z"/>
<path d="M87 923 c-4 -3 -7 -15 -7 -25 0 -14 7 -18 33 -17 29 1 29 2 8 8 -35
9 -37 29 -4 34 27 4 28 4 2 6 -14 0 -29 -2 -32 -6z"/>
<path d="M61 904 c0 -11 3 -14 6 -6 3 7 2 16 -1 19 -3 4 -6 -2 -5 -13z"/>
<path d="M83 854 c-3 -8 -1 -20 5 -26 14 -14 47 -6 48 12 0 9 -1 10 -3 3 -7
-20 -23 -15 -23 7 0 24 -18 27 -27 4z m14 -16 c-3 -8 -6 -5 -6 6 -1 11 2 17 5
13 3 -3 4 -12 1 -19z"/>
<path d="M98 791 c-15 -24 -25 -27 -31 -8 -2 7 -3 6 -3 -3 2 -24 32 -23 43 2
l11 23 11 -25 11 -25 -3 24 c-3 32 -23 38 -39 12z"/>
<path d="M303 703 c20 -5 21 -12 6 -50 -5 -15 -6 -23 -1 -18 5 6 14 25 20 43
11 31 10 32 -16 31 -17 -1 -20 -3 -9 -6z"/>
<path d="M390 690 c0 -11 7 -20 15 -20 21 0 19 -28 -2 -33 -17 -4 -17 -5 0 -6
25 -1 34 29 14 44 -22 16 -21 22 1 28 13 4 11 5 -5 6 -17 1 -23 -5 -23 -19z"/>
<path d="M233 663 c9 -2 25 -2 35 0 9 3 1 5 -18 5 -19 0 -27 -2 -17 -5z"/>
<path d="M947 333 c-11 -10 -8 -61 4 -69 6 -3 16 -1 22 5 9 9 8 11 -5 6 -15
-6 -18 -1 -18 25 0 25 3 31 16 26 8 -3 12 -2 9 4 -7 12 -19 13 -28 3z"/>
<path d="M2298 333 c6 -2 12 -17 12 -33 0 -16 -6 -31 -12 -33 -7 -3 -4 -6 7
-6 18 -1 20 4 17 39 -3 29 -8 40 -21 39 -10 0 -11 -2 -3 -6z"/>
<path d="M2344 326 c-11 -28 0 -61 21 -61 16 0 20 7 20 35 0 25 -5 36 -18 38
-9 2 -20 -3 -23 -12z m36 -26 c0 -20 -5 -30 -15 -30 -10 0 -15 10 -15 30 0 20
5 30 15 30 10 0 15 -10 15 -30z"/>
<path d="M2405 321 c-9 -30 4 -63 23 -59 12 2 17 14 17 38 0 40 -29 55 -40 21z
m35 -21 c0 -16 -5 -30 -10 -30 -14 0 -24 26 -16 45 10 26 26 16 26 -15z"/>
<path d="M3733 333 c21 -6 22 -26 2 -43 -22 -18 -18 -30 8 -30 17 0 19 2 8 9
-12 8 -12 12 -2 25 17 20 7 46 -16 45 -17 -1 -17 -2 0 -6z"/>
<path d="M3774 326 c-11 -28 0 -61 21 -61 16 0 20 7 20 35 0 25 -5 36 -18 38
-9 2 -20 -3 -23 -12z m36 -26 c0 -20 -5 -30 -15 -30 -10 0 -15 10 -15 30 0 20
5 30 15 30 10 0 15 -10 15 -30z"/>
<path d="M3835 321 c-9 -30 4 -63 23 -59 12 2 17 14 17 38 0 40 -29 55 -40 21z
m35 -21 c0 -16 -5 -30 -10 -30 -14 0 -24 26 -16 45 10 26 26 16 26 -15z"/>
<path d="M5153 333 c20 -5 23 -19 5 -25 -7 -3 -6 -7 5 -11 13 -5 17 -1 17 18
0 20 -5 25 -22 24 -17 -1 -19 -2 -5 -6z"/>
<path d="M5194 326 c-10 -25 0 -61 18 -64 19 -4 32 29 23 58 -7 23 -33 27 -41
6z m31 -26 c0 -13 -6 -25 -12 -27 -9 -3 -13 6 -13 27 0 21 4 30 13 28 6 -3 12
-15 12 -28z"/>
<path d="M5255 321 c-9 -30 4 -63 23 -59 12 2 17 14 17 38 0 40 -29 55 -40 21z
m35 -21 c0 -31 -16 -41 -26 -15 -8 19 2 45 16 45 5 0 10 -13 10 -30z"/>
<path d="M6567 310 c-18 -29 -18 -30 2 -30 12 0 21 -6 21 -12 0 -10 3 -9 9 1
6 9 11 10 15 2 21 -33 54 8 41 50 -9 27 -37 20 -46 -11 l-7 -25 -1 28 c-1 35
-12 34 -34 -3z m78 -10 c0 -13 -6 -25 -12 -27 -9 -3 -13 6 -13 27 0 21 4 30
13 28 6 -3 12 -15 12 -28z m-59 -7 c-10 -10 -19 5 -10 18 6 11 8 11 12 0 2 -7
1 -15 -2 -18z"/>
<path d="M6675 321 c-9 -30 4 -63 23 -59 12 2 17 14 17 38 0 40 -29 55 -40 21z
m35 -21 c0 -16 -5 -30 -10 -30 -14 0 -24 26 -16 45 10 26 26 16 26 -15z"/>
<path d="M7990 320 c0 -11 7 -20 15 -20 21 0 19 -28 -2 -33 -17 -4 -17 -5 0
-6 25 -1 34 29 14 44 -22 16 -21 22 1 28 13 4 11 5 -5 6 -17 1 -23 -5 -23 -19z"/>
<path d="M8044 326 c-11 -28 0 -61 21 -61 16 0 20 7 20 35 0 25 -5 36 -18 38
-9 2 -20 -3 -23 -12z m36 -26 c0 -20 -5 -30 -15 -30 -10 0 -15 10 -15 30 0 20
5 30 15 30 10 0 15 -10 15 -30z"/>
<path d="M8105 321 c-9 -30 4 -63 23 -59 12 2 17 14 17 38 0 40 -29 55 -40 21z
m35 -21 c0 -31 -16 -41 -26 -15 -8 19 2 45 16 45 5 0 10 -13 10 -30z"/>
<path d="M9414 326 c-3 -8 -4 -25 -2 -38 3 -20 9 -23 48 -23 45 0 45 0 45 35
0 26 -5 36 -18 38 -12 2 -20 -3 -24 -16 -3 -14 -11 -18 -24 -15 -24 7 -25 20
-1 26 16 4 16 5 -1 6 -10 0 -20 -5 -23 -13z m86 -26 c0 -20 -5 -30 -15 -30
-10 0 -15 10 -15 30 0 20 5 30 15 30 10 0 15 -10 15 -30z m-58 -15 c0 -5 -5
-11 -11 -13 -6 -2 -11 4 -11 13 0 9 5 15 11 13 6 -2 11 -8 11 -13z"/>
<path d="M9525 321 c-9 -30 4 -63 23 -59 12 2 17 14 17 38 0 40 -29 55 -40 21z
m35 -21 c0 -31 -16 -41 -26 -15 -8 19 2 45 16 45 5 0 10 -13 10 -30z"/>
<path d="M5155 270 c-16 -7 -17 -9 -3 -9 9 -1 20 4 23 9 7 11 7 11 -20 0z"/>
<path d="M4911 164 c0 -11 3 -14 6 -6 3 7 2 16 -1 19 -3 4 -6 -2 -5 -13z"/>
<path d="M5093 140 c0 -25 2 -35 4 -22 2 12 2 32 0 45 -2 12 -4 2 -4 -23z"/>
<path d="M5467 160 c-22 -22 -19 -53 6 -58 14 -3 17 4 17 37 0 23 -1 41 -2 40
-2 0 -11 -9 -21 -19z m13 -30 c0 -11 -4 -20 -10 -20 -5 0 -10 9 -10 20 0 11 5
20 10 20 6 0 10 -9 10 -20z"/>
<path d="M4836 163 c-9 -10 -7 -63 3 -63 5 0 7 9 4 21 -3 12 0 25 7 29 7 4 8
10 2 13 -5 4 -12 4 -16 0z"/>
<path d="M4961 128 c2 -31 2 -31 6 -5 2 15 9 27 14 27 5 0 9 -12 10 -27 1 -28
1 -28 8 -4 9 34 29 37 34 6 4 -24 4 -24 3 2 -1 25 -5 28 -38 31 -37 2 -38 1
-37 -30z"/>
<path d="M5062 130 c0 -19 2 -27 5 -17 2 9 2 25 0 35 -3 9 -5 1 -5 -18z"/>
<path d="M5112 130 c0 -19 2 -27 5 -17 2 9 2 25 0 35 -3 9 -5 1 -5 -18z"/>
<path d="M5140 146 c0 -8 8 -17 18 -21 16 -7 15 -8 -3 -15 -16 -7 -17 -9 -3
-9 24 -1 31 14 12 29 -12 11 -12 15 -2 21 10 7 9 9 -4 9 -10 0 -18 -6 -18 -14z"/>
<path d="M5194 145 c-9 -23 3 -45 23 -44 17 1 17 2 1 6 -24 6 -23 23 2 23 13
0 18 5 14 15 -4 8 -13 15 -20 15 -8 0 -17 -7 -20 -15z"/>
<path d="M5267 153 c-15 -14 -7 -53 11 -54 15 0 14 -2 -3 -10 l-20 -9 20 3
c15 2 21 11 23 40 2 26 -1 37 -11 37 -7 0 -17 -3 -20 -7z m23 -23 c0 -11 -4
-20 -10 -20 -5 0 -10 9 -10 20 0 11 5 20 10 20 6 0 10 -9 10 -20z"/>
<path d="M5324 130 c1 -18 7 -26 24 -28 19 -3 22 1 21 30 -1 29 -2 30 -8 9 -9
-33 -29 -38 -34 -9 -4 21 -4 21 -3 -2z"/>
<path d="M5381 128 c2 -32 2 -32 6 -5 3 20 9 27 19 23 8 -3 14 -1 14 4 0 6 -9
10 -20 10 -16 0 -20 -6 -19 -32z"/>
<path d="M5514 146 c-8 -22 3 -49 19 -43 6 2 12 14 12 27 0 27 -22 39 -31 16z
m26 -16 c0 -11 -4 -20 -10 -20 -5 0 -10 9 -10 20 0 11 5 20 10 20 6 0 10 -9
10 -20z"/>
<path d="M5570 146 c0 -8 8 -17 18 -21 16 -7 15 -8 -3 -15 -16 -7 -17 -9 -3
-9 24 -1 31 14 12 29 -12 11 -12 15 -2 21 10 7 9 9 -4 9 -10 0 -18 -6 -18 -14z"/>
<path d="M4901 133 c-1 -6 -4 -20 -7 -30 -5 -17 -5 -17 6 0 6 10 9 23 6 30 -3
9 -5 9 -5 0z"/>
<path d="M5421 114 c0 -11 3 -14 6 -6 3 7 2 16 -1 19 -3 4 -6 -2 -5 -13z"/>
</g>
</svg>
